<svg width="346" height="400" viewBox="0 0 346 400" fill="none" xmlns="http://www.w3.org/2000/svg">
<g clip-path="url(#clip0_64_315)">
<path d="M3.7998 104V296L173 396L342.2 296V104L173 4L3.7998 104Z" fill="url(#paint0_radial_64_315)"/>
<path d="M173 33.5L317.2 116.7V283.3L173 366.5L28.7998 283.3V116.7L173 33.5ZM173 4L3.7998 104V296L173 396L342.2 296V104L173 4Z" fill="url(#paint1_linear_64_315)"/>
<path d="M173 28.9L321.2 114.4V285.6L173 371L24.7998 285.6V114.4L173 29M173 4L3.7998 104V296L173 396L342.2 296V104L173 4Z" fill="url(#paint2_linear_64_315)"/>
<path d="M173 15L333.2 107.5V292.5L173 385L12.7998 292.5V107.5L173 15ZM173 4L3.7998 104V296L173 396L342.2 296V104L173 4Z" fill="#4E7200"/>
<path d="M173 12.7L335.2 106.3V293.6L173 387.3L10.7998 293.6V106.4L173 12.7ZM173 0L-0.200195 100V300L173 400L346.2 300V100L173 0Z" fill="#E0B568"/>
</g>
<defs>
<radialGradient id="paint0_radial_64_315" cx="0" cy="0" r="1" gradientUnits="userSpaceOnUse" gradientTransform="translate(173 200) scale(187.1 187.1)">
<stop stop-color="#A4B800"/>
<stop offset="0.3" stop-color="#9BB705"/>
<stop offset="0.9" stop-color="#83B413"/>
<stop offset="1" stop-color="#7CB317"/>
</radialGradient>
<linearGradient id="paint1_linear_64_315" x1="173" y1="400" x2="173" y2="3.89255e-06" gradientUnits="userSpaceOnUse">
<stop stop-color="#E6E600"/>
<stop offset="0.5" stop-color="#A4B800"/>
<stop offset="0.7" stop-color="#4E7200"/>
</linearGradient>
<linearGradient id="paint2_linear_64_315" x1="173" y1="1.67258e-07" x2="173" y2="400" gradientUnits="userSpaceOnUse">
<stop stop-color="#E6E600"/>
<stop offset="0.5" stop-color="#A4B800"/>
<stop offset="0.7" stop-color="#4E7200"/>
<stop offset="1" stop-color="#A4B800"/>
</linearGradient>
<clipPath id="clip0_64_315">
<rect width="346" height="400" fill="white"/>
</clipPath>
</defs>

<g transform="translate(51.900000000000006, 69.2) scale(1.384)">

<path d="M15.1491 47.9373C15.1491 47.9373 11.6809 45.4479 9.3919 44.8946C7.03352 44.4106 2.45549 43.7882 1.90058 44.0648C1.34567 44.3414 9.59999 51.4641 11.0566 54.9909C13.1376 58.4485 14.3167 63.635 15.4959 64.8797C16.6751 66.1244 16.8139 66.0553 18.3399 65.9861C19.9352 65.8478 20.837 64.1882 20.837 64.1882V58.4485C20.837 58.4485 20.4208 54.7834 19.2416 52.7089C18.0624 50.6343 15.0798 47.8682 15.0798 47.8682L15.1491 47.9373ZM35.126 46.6926C34.7791 46.4851 31.519 46.9692 29.9237 47.3841C28.2589 47.8682 25.8312 49.8736 25.8312 49.8736C25.8312 49.8736 23.7503 52.2248 22.9873 53.8845C22.2243 55.5441 21.8081 58.656 21.8081 58.656V63.4275C21.8081 63.4275 22.5017 64.8106 23.6115 64.8797C24.7214 64.9489 24.7907 65.018 25.6231 63.9807C26.4555 62.9434 27.2185 58.7251 28.7445 55.7516C29.7156 52.8472 35.4728 46.9692 35.126 46.7618V46.6926ZM33.045 58.7251C33.045 58.7251 31.519 58.8634 30.8254 59.4167C30.2011 59.8316 29.1607 60.938 29.1607 60.938L28.467 62.4594C28.467 62.4594 28.467 63.9807 28.8832 64.2573C29.2994 64.5339 29.993 64.3265 30.5479 64.119C31.1029 63.9116 31.9352 62.3902 33.1144 61.5604C34.0855 60.6614 38.0393 60.039 37.9699 59.8316C37.8312 59.6933 35.889 58.7943 35.1953 58.5868C34.363 58.4485 32.9757 58.7251 32.9757 58.7251H33.045ZM10.4324 60.1773C9.73872 59.2784 7.86589 58.1028 7.86589 58.1028C7.86589 58.1028 5.9237 57.1346 4.60578 57.0655C3.35723 56.9963 0.790757 57.0655 0.582665 57.2729C0.374573 57.4804 5.23006 60.3156 6.27052 61.9753C7.6578 63.5658 8.6289 65.9861 9.3919 66.5394C10.0855 67.0926 10.1549 67.0234 10.9873 66.816C11.8196 66.6777 12.1665 65.7787 12.1665 65.7787L11.7503 62.8743C11.7503 62.8743 11.1954 61.0763 10.4324 60.1082V60.1773Z" fill="#769113"/>
<path d="M151.379 40.6763C151.379 40.6763 147.981 38.2559 145.692 37.7027C143.333 37.1495 138.686 36.5963 138.2 36.8729C137.715 37.1495 145.9 44.2722 147.356 47.799C149.437 51.2566 150.547 56.443 151.796 57.6878C152.975 58.9325 153.114 58.8634 154.64 58.7251C156.166 58.6559 157.137 56.9271 157.137 56.9271V51.2566C157.137 51.2566 156.651 47.5224 155.541 45.517C154.432 43.4424 151.379 40.6763 151.379 40.6763V40.6763ZM171.426 39.5007C171.079 39.2932 167.819 39.7773 166.154 40.1922C164.559 40.6763 162.131 42.6817 162.131 42.6817C162.131 42.6817 160.05 45.0329 159.218 46.6925C158.385 48.3522 158.108 51.4641 158.108 51.4641V56.1664C158.108 56.1664 158.801 57.5495 159.842 57.6878C160.882 57.8261 161.021 57.8261 161.923 56.7888C162.755 55.7515 163.518 51.4641 164.975 48.5597C166.015 45.6553 171.773 39.7773 171.426 39.5698V39.5007ZM171.426 51.3949C170.732 51.2566 169.275 51.5332 169.275 51.5332C169.275 51.5332 167.819 51.6715 167.194 52.2247C166.501 52.6397 165.391 53.7461 165.391 53.7461L164.697 55.2675C164.697 55.2675 164.697 56.7888 165.183 57.0654C165.668 57.342 166.223 57.1346 166.778 56.9271C167.333 56.7197 168.166 55.1983 169.414 54.3685C170.385 53.4695 174.27 52.778 174.27 52.6397C174.131 52.5014 172.189 51.6024 171.495 51.3949H171.426ZM146.801 52.9854C145.969 52.0173 144.166 50.9108 144.166 50.9108C144.166 50.9108 142.154 49.9427 140.906 49.8736C139.588 49.7353 137.091 49.8736 136.813 50.0119C136.605 50.2193 141.53 53.1237 142.57 54.7142C143.958 56.3047 144.929 58.8634 145.622 59.3474C146.316 59.8315 146.455 59.8315 147.287 59.6241C148.05 59.4857 148.466 58.5176 148.466 58.5176L148.05 55.6824C148.05 55.6824 147.495 53.8844 146.732 52.9163L146.801 52.9854Z" fill="#769113"/>
<path d="M16.8105 49.0434L13.8278 46.5539L9.80472 44.4102L7.23824 43.857H4.53305L2.72958 43.9953L5.7816 45.9315L7.58506 47.1071C7.30761 47.1071 10.9839 50.219 12.8567 51.9478L14.7296 54.3681L16.4637 55.4746C16.4637 55.4746 17.9897 56.6502 18.6139 56.2353C19.2382 55.8203 19.1689 55.0597 19.1689 55.0597C19.1689 55.0597 19.5157 54.299 18.822 52.4319C18.1978 50.5648 16.8105 48.9742 16.8105 48.9742V49.0434ZM33.7353 47.6604L35.4001 46.7614L32.4868 46.8997L29.4347 47.7295L26.8683 49.5966L24.7874 51.9478C24.5099 52.4319 23.6775 53.3309 23.6775 53.5383L23.4001 54.3681C23.4001 54.3681 23.1226 55.0597 24.2324 55.198C25.3423 55.3363 26.5215 53.5383 26.5215 53.5383L28.3943 51.5329L30.1978 50.1498L32.2787 48.7668L33.7353 47.6604V47.6604ZM9.04171 58.379C8.83362 58.2407 7.44634 57.6875 7.23824 57.48C6.96079 57.2726 4.94923 56.9959 4.46368 56.9959L1.82785 57.1342C1.55039 57.2034 3.35386 57.6183 3.35386 57.6183L4.18623 58.0332L6.96079 59.4163L8.97235 61.0068C8.97235 61.0068 10.2209 61.4909 10.7064 61.3525C11.2614 61.2142 10.9145 59.8312 10.7064 59.6237L9.04171 58.379V58.379ZM34.8451 58.1024L32.6255 58.5173C32.6255 58.5173 31.8625 58.7248 31.585 59.5546C31.2382 60.3844 31.585 60.3844 31.585 60.3844L31.8625 60.2461L33.2498 59.0705L34.9839 58.7939H36.8567L38.0359 59.0014L37.3422 58.5173L34.8451 58.1024V58.1024ZM152.903 41.7132L149.851 39.2929L145.897 37.1492L143.261 36.5959H140.556L138.753 36.8034L141.805 38.6705L143.677 39.8461C143.4 39.8461 147.007 43.0271 148.949 44.7559L150.822 47.1071L152.487 48.2827C152.487 48.2827 154.082 49.3892 154.637 48.9742C155.261 48.5593 155.192 47.7987 155.192 47.7987C155.192 47.7987 155.539 47.038 154.914 45.1709C154.221 43.3037 152.833 41.7132 152.833 41.7132H152.903ZM169.828 40.3993L171.423 39.5004L168.51 39.6387C168.51 39.6387 165.735 40.3993 165.527 40.5376L162.891 42.3356L160.81 44.7559C160.533 45.1709 159.7 46.0007 159.7 46.2773L159.492 47.1071C159.492 47.1071 159.146 47.8678 160.186 47.937C161.226 48.0061 162.614 46.2773 162.614 46.2773L164.417 44.2719L166.221 42.8888L168.302 41.5058L169.828 40.3993V40.3993ZM145.134 51.1871L143.261 50.219C143.053 50.0115 140.972 49.8041 140.487 49.7349C140.001 49.6658 138.059 49.8732 137.851 49.8732C137.643 49.9424 139.446 50.4265 139.446 50.4265L140.209 50.7722L142.984 52.1553L144.995 53.7458C144.995 53.7458 146.244 54.2298 146.799 54.0915C147.354 53.9532 146.937 52.5702 146.799 52.4319L145.134 51.1871V51.1871ZM173.435 51.3254L170.868 50.8414L168.648 51.3254C168.648 51.3254 167.955 51.4637 167.608 52.2936C167.331 53.1234 167.608 53.1234 167.608 53.1234L167.885 52.9851L169.273 51.8095L171.007 51.5329H172.949L174.059 51.8095L173.365 51.3254H173.435Z" fill="#A2C62F"/>
<path d="M66.6909 60.3841L65.373 60.2458C64.8181 60.1767 64.1938 60.0383 63.5695 59.6234C62.529 58.7936 62.3903 57.3414 62.321 56.6499C62.2516 55.0594 62.2516 53.3306 62.3903 51.74L62.7371 51.0485C63.0146 50.7028 63.4308 50.6336 63.6389 50.6336C64.6996 50.5381 65.7657 50.515 66.8296 50.5645L67.0377 50.4261C67.4539 50.2187 67.8701 50.0112 68.2169 50.0112H68.5637L68.9105 50.2187C69.3267 50.4953 69.5348 50.9102 69.6042 51.1868C70.1591 52.639 70.1591 54.5061 70.0897 56.1658V57.0648C70.0897 58.7936 69.3267 59.5543 68.7024 59.9C68.2169 60.2458 67.662 60.315 67.2458 60.315H66.6909V60.3841Z" fill="white"/>
<path d="M68.2142 51.0489H68.2836C68.4917 51.1872 68.561 51.3946 68.6304 51.6021C69.2547 53.1235 69.0466 55.4055 68.9772 57.1343C68.9772 57.8258 68.8385 58.6556 68.2142 59.0014C67.8674 59.2089 67.5206 59.278 67.1738 59.278C66.6198 59.3242 66.063 59.3242 65.509 59.278C65.0235 59.1397 64.6073 59.0706 64.2605 58.794C63.5668 58.3099 63.4281 57.4109 63.3587 56.5811C63.2894 54.9906 63.2894 53.4001 63.4281 51.7404V52.017L63.4975 51.8096H63.7056C64.8103 51.6803 65.9233 51.6341 67.035 51.6712C67.2431 51.6712 68.0061 51.118 68.2142 51.118V51.0489ZM68.2142 49.0435C67.5899 49.0435 67.035 49.3201 66.6188 49.5967C65.578 49.5489 64.5351 49.572 63.4975 49.6658C62.6651 49.735 62.1102 50.1499 61.9021 50.4957C61.6246 50.8414 61.4165 51.1872 61.4165 51.6712C61.2084 53.4001 61.2084 55.1289 61.2778 56.7885C61.3472 57.6184 61.4859 59.4163 62.9426 60.5228C63.7749 61.076 64.6073 61.2143 65.2316 61.3526C65.9239 61.4116 66.6201 61.4116 67.3125 61.3526C67.9898 61.3512 68.6564 61.185 69.2547 60.8685C69.9483 60.5228 71.0581 59.4855 71.1275 57.2034V56.2353C71.1275 54.5757 71.1969 52.5011 70.5726 50.9106C70.4339 50.5648 70.2258 49.9424 69.4628 49.3892C69.116 49.1818 68.6998 49.0435 68.2142 49.0435Z" fill="#6E6F72"/>
<path d="M105.532 62.2511C104.908 62.2511 103.451 62.2511 102.896 62.0436H102.757C102.272 61.8362 101.648 61.5596 101.231 60.9372C100.8 60.2325 100.605 59.4087 100.676 58.586V52.4314C100.676 50.2186 100.815 49.9419 100.954 49.6653C101.301 49.1121 102.064 48.9738 103.312 48.6972L103.867 48.5589L106.295 47.5908C106.572 47.5216 106.85 47.3833 107.197 47.3833L107.752 47.5216C108.584 47.8674 108.653 48.8355 108.792 50.2877V50.4952C108.931 51.8091 108.792 53.0538 108.792 54.2294L108.376 59.5541C108.376 59.9691 108.376 60.5223 108.029 61.0063C107.613 61.6979 106.85 62.1819 105.948 62.2511H105.532V62.2511Z" fill="white"/>
<path d="M107.199 48.4208L107.338 48.4899C107.616 48.6282 107.754 50.357 107.754 50.6336C107.893 51.8092 107.754 52.9848 107.754 54.1604L107.338 59.4852C107.338 59.8309 107.338 60.1767 107.13 60.5224C106.922 60.9374 106.436 61.214 105.881 61.214H105.535L103.107 61.0757C102.691 60.8682 102.344 60.6607 102.066 60.3841C101.72 59.8309 101.72 59.2085 101.72 58.5862V52.4316C101.72 52.155 101.72 50.4953 101.858 50.2187C102.066 49.873 103.87 49.7347 104.217 49.5272L106.714 48.5591L107.199 48.4208V48.4208ZM107.199 46.3462C106.644 46.3462 106.298 46.4845 105.951 46.6228L105.535 46.8303L103.454 47.5909L103.107 47.6601C101.858 47.9367 100.679 48.1442 100.055 49.1814C99.7774 49.6655 99.6387 50.0804 99.6387 52.4316V58.5862C99.6387 59.2777 99.6387 60.5224 100.332 61.5597C101.026 62.3896 101.789 62.7353 102.344 62.9428L102.483 63.0119L102.691 63.0811C103.815 63.2511 104.953 63.3205 106.09 63.2885C107.338 63.1502 108.379 62.5279 108.933 61.5597C109.35 60.8682 109.419 60.0384 109.419 59.6235L109.627 56.8574L109.835 54.2987C109.835 53.054 109.974 51.7401 109.835 50.4262V50.2187C109.696 48.6282 109.558 47.176 108.17 46.5537C107.893 46.4153 107.477 46.3462 107.199 46.3462V46.3462Z" fill="#6E6F72"/>
<path d="M98.1131 63.6344C97.142 63.6344 95.4079 63.2195 94.7143 62.1131C94.5062 61.7673 94.2981 61.4216 94.2287 60.8683L94.09 60.5917C93.8678 59.7346 93.7973 58.8453 93.8819 57.9639C93.7432 57.065 93.8819 56.3043 93.8819 55.4744L94.0206 54.0914V53.1924V52.7083C93.9513 52.1551 93.8125 51.6711 93.6044 51.187C93.1765 50.8274 92.8027 50.4082 92.4946 49.9423C86.9455 49.9423 81.0495 49.6656 75.223 48.2826C74.5507 48.5244 73.8523 48.6868 73.142 48.7667C71.7872 49.9836 70.1937 50.9069 68.4624 51.4783C66.7312 52.0496 64.8999 52.2566 63.0843 52.086C63.0278 53.4252 62.9353 54.7626 62.8068 56.0968V56.8575C62.8762 57.8948 62.9455 59.0012 62.3906 59.8311C61.697 60.7992 60.3097 61.4216 58.6449 61.4216C57.1883 61.4216 55.7317 60.9375 54.9687 60.1768C53.512 58.7246 53.7895 56.0277 53.9976 53.9531L54.1363 52.2934C54.2057 49.389 53.4426 46.7612 52.4716 43.926L51.2924 39.7768C50.5987 36.8724 50.46 34.0372 50.6681 31.4785L50.3906 31.686C50.0742 31.8676 49.7153 31.963 49.3502 31.9626C48.3097 31.9626 47.408 31.4094 47.1305 30.5796C46.5852 28.8912 46.4773 27.0927 46.8169 25.3515C47.1565 23.6104 47.9325 21.9832 49.0727 20.6216C50.456 19.2605 51.9656 18.0333 53.5814 16.9565L54.5525 16.265C56.2172 14.8819 57.7432 13.7064 59.6854 12.7382C61.697 11.7009 63.8473 11.4243 65.9975 11.2169C67.4542 11.0786 68.9108 10.9403 70.1594 10.5253L72.2403 10.1104L73.9744 9.76467C74.7374 9.55721 75.3617 9.41891 75.986 9.41891C76.4021 9.41891 76.8183 9.41891 77.512 9.55721L80.9108 9.97213C81.7432 9.97213 82.4368 10.1796 83.0611 10.3179C83.8241 10.4562 84.5871 10.6636 85.4195 10.6636H85.4889C86.2519 10.6636 87.0149 10.5253 87.7779 10.3179C89.0642 10.1224 90.3615 10.0069 91.6623 9.97213L94.1594 10.0413L96.5177 10.1104C98.1131 10.1104 99.9859 9.97213 101.581 8.86569C102.691 8.17416 103.662 7.20603 104.703 6.23789C105.497 5.45907 106.331 4.72051 107.2 4.02501C109.788 2.05728 112.963 1.01042 116.217 1.05145C117.882 1.05145 119.547 1.32807 121.073 1.81214C122.382 2.20887 123.573 2.92143 124.541 3.88671C126.414 5.82298 126.344 7.27518 125.928 8.17416V8.24331C125.72 8.79653 125.512 9.2806 124.957 9.76467C124.333 10.3179 123.431 10.387 122.737 10.4562H122.321C122.113 10.4666 121.905 10.4666 121.697 10.4562C121.003 10.4562 120.379 10.387 119.755 10.2487L118.437 10.1104C118.229 10.1104 117.535 10.387 117.119 10.5945L116.148 12.4616V14.1904C116.286 14.7436 116.286 15.2969 116.286 15.9192C116.286 16.7491 115.662 17.5097 115.107 18.1321L114.483 19.0311L114.552 19.446L114.899 19.6535C115.662 20.2067 115.801 21.0365 115.87 21.728C115.87 22.0047 116.009 22.4196 116.078 22.4887C116.617 23.0128 117.173 23.5201 117.743 24.0101H118.298C118.576 24.0101 118.992 24.0101 119.477 24.2867L120.518 24.4941L121.905 24.8399L121.211 26.0155L120.795 26.707C120.665 26.9371 120.501 27.1468 120.31 27.3294C120.032 28.0209 119.893 28.1592 119.408 28.5741L119.269 28.6433C118.576 30.0263 118.229 31.2711 117.951 32.5158L117.604 33.8989C115.712 39.8007 111.967 44.9401 106.922 48.5592C106.229 49.0433 105.535 49.2507 105.05 49.389H104.772C104.703 49.5273 104.564 49.5273 104.495 49.5965C104.356 49.5965 104.287 49.7348 104.148 49.8039C103.662 50.0806 103.177 50.288 102.899 50.6338C102.622 50.9795 102.552 51.5328 102.483 52.0168C102.206 53.1233 102.136 54.2989 102.067 55.4744V55.5436L102.136 57.1341V57.6182C102.344 60.1077 102.136 61.629 101.512 62.4589C100.818 63.427 99.431 63.6344 98.1825 63.6344H98.1131V63.6344Z" fill="white"/>
<path d="M116.215 2.0888C117.741 2.0888 119.267 2.36541 120.723 2.78033C121.833 3.19524 122.943 3.67931 123.776 4.5783C124.608 5.47728 125.51 6.65287 125.024 7.75931C124.816 8.31253 124.677 8.65829 124.192 9.00405C123.845 9.41896 122.804 9.34982 122.25 9.41897H121.695C120.654 9.41897 119.614 9.14236 118.504 9.07321C117.949 9.07321 116.77 9.55727 116.423 9.83388C116.284 9.90303 115.382 11.6318 115.174 12.1851C114.966 13.4298 115.313 14.6054 115.244 15.8501C115.244 16.9566 113.302 18.063 113.44 19.1695L113.579 19.861C113.718 20.1376 113.995 20.3451 114.273 20.5525C115.105 21.1057 114.619 22.4196 115.313 23.1803C115.521 23.4569 116.562 24.5634 116.839 24.7017C117.186 24.9783 117.463 25.0474 117.741 25.0474H118.296C118.573 25.0474 118.781 25.0474 119.128 25.2549L120.307 25.5315L119.891 26.223L119.336 26.8454C119.059 27.6752 119.128 27.3986 118.434 28.021C117.325 30.1647 117.047 31.8244 116.562 33.6915C114.722 39.3581 111.098 44.2814 106.226 47.7294C105.602 48.2827 104.839 48.2827 104.284 48.4901L104.007 48.6976C103.313 49.0433 102.55 49.3891 102.065 50.0806C101.705 50.5971 101.468 51.1882 101.371 51.8094C101.162 53.0206 101.046 54.2458 101.024 55.4745V55.5437L101.163 57.6182C101.163 58.863 101.232 61.0759 100.677 61.9057C100.261 62.5281 99.0125 62.5972 98.1802 62.5972H98.1108C97.3478 62.5972 96.0299 62.2515 95.6137 61.5599C95.4056 61.2833 95.2669 60.8684 95.1975 60.5226L95.0588 60.246C94.8507 59.5545 94.8507 58.7247 94.9201 57.964C94.7813 56.581 94.9894 55.6128 95.0588 54.1606V53.3308V53.1233C95.0634 52.9389 95.0634 52.7545 95.0588 52.5701C94.9894 51.8786 94.7813 51.1871 94.5039 50.4955C93.9361 50.0949 93.4626 49.5758 93.1166 48.9742H93.0472L92.9085 48.905C86.8738 48.905 80.9085 48.6284 75.1513 47.1762C74.3766 47.4998 73.5588 47.7095 72.7236 47.7986C71.3284 49.1184 69.6386 50.0888 67.7934 50.6298C65.9483 51.1708 64.0006 51.267 62.1108 50.9104L61.764 56.0969C61.764 56.8576 62.0415 58.5172 61.5559 59.2087C61.001 60.0386 59.8218 60.3843 58.6426 60.3843C57.4635 60.3843 56.2843 59.9694 55.66 59.4162C54.2727 58.0332 55.1744 54.3681 55.1744 52.2935C55.3132 47.8677 53.371 43.8569 52.3305 39.5003C51.1122 35.0365 51.4048 30.2967 53.1629 26.0156L52.7467 25.8081C51.4981 26.5688 51.1513 28.2284 50.6658 29.6806C50.5964 30.0264 50.1802 30.6488 49.8334 30.7871L49.3479 30.9254C48.7929 30.9254 48.238 30.6488 48.0993 30.2339C47.0588 27.5369 47.8219 23.3186 49.8334 21.3132C51.2207 19.9301 52.7467 18.962 54.2033 17.7864C56.2149 16.2651 57.949 14.7437 60.1687 13.6373C63.29 12.0468 67.1051 12.5308 70.5039 11.5627C71.6137 11.2169 73.2785 11.1478 74.3189 10.802C75.0126 10.5254 75.4981 10.4563 75.9837 10.4563C76.816 10.4563 77.7178 10.7329 80.8391 11.0095C82.5733 11.1478 83.6831 11.701 85.4172 11.701H85.4866C86.7351 11.701 87.9143 11.3552 89.0935 11.1478C89.9441 11.0358 90.8022 10.9896 91.66 11.0095L96.5154 11.1478C98.527 11.1478 100.469 10.8712 102.203 9.76473C104.284 8.38168 105.88 6.3071 107.891 4.78575C110.18 2.98779 113.232 2.0888 116.215 2.0888V2.0888ZM116.215 0.0142288C112.608 0.0142288 109.209 1.12067 106.573 3.19525C105.68 3.91226 104.823 4.67391 104.007 5.47727C102.966 6.44541 102.065 7.34439 101.024 8.03592C99.9143 8.72744 98.527 9.07321 96.5154 9.07321L94.2264 9.00405C92.3756 8.95167 90.5232 8.99784 88.6773 9.14236L87.5675 9.34981C86.8738 9.48812 86.1802 9.62642 85.4866 9.62642C84.7235 9.62642 84.0993 9.48812 83.3363 9.28066C82.6426 9.14236 81.949 9.00405 80.9779 8.9349C79.3053 8.82932 77.6387 8.64471 75.9837 8.38168C75.2207 8.38168 74.5964 8.51999 73.6947 8.7966L72.0993 9.14236C71.3363 9.21151 70.5733 9.34981 69.8796 9.55727C68.7004 9.90303 67.3132 10.0413 65.9259 10.2488C63.7062 10.4563 61.4172 10.6637 59.1976 11.7701C57.186 12.8074 55.5213 14.1213 53.9259 15.4352L52.9548 16.1268L51.7756 17.0257C50.6658 17.8556 49.4866 18.7546 48.3074 19.861C45.8103 22.3505 44.8392 27.4678 46.1571 30.9254C46.441 31.5776 46.9196 32.1267 47.5278 32.498C48.136 32.8692 48.8442 33.0445 49.556 33C49.4866 35.2128 49.764 37.6332 50.2496 39.9844C50.6152 41.4048 51.0317 42.8118 51.4981 44.2027C52.3305 46.9688 53.1629 49.5966 53.0935 52.2935C53.0935 52.7084 53.0935 53.1925 52.9548 53.8149C52.7467 56.166 52.3999 59.1396 54.2727 60.8684C55.4802 61.922 57.0383 62.489 58.6426 62.4589C60.6542 62.4589 62.3189 61.6982 63.2207 60.3843C64.053 59.347 63.9143 57.8948 63.8449 56.7884V56.0969L63.9837 53.6765V53.1925H64.3305C67.7987 53.1925 70.9895 52.0169 73.6253 49.7349C74.189 49.6341 74.7451 49.4955 75.29 49.3199C80.8391 50.703 86.5964 50.9104 91.9374 50.9796L92.7698 51.8094L92.9779 52.7776V53.3308C93.0235 54.0229 93.0002 54.7178 92.9085 55.4054C92.8391 56.166 92.7004 56.9959 92.8391 57.964C92.6992 59.5921 93.0366 61.2258 93.8102 62.6664C94.8507 64.2569 97.001 64.7409 98.1108 64.7409H98.1802C99.2206 64.6718 101.302 64.6026 102.342 63.0813C103.105 62.044 103.382 60.3152 103.244 57.5491V57.065L103.105 55.5437C103.105 54.3681 103.244 53.2616 103.452 52.1552C103.452 51.9477 103.591 51.4637 103.729 51.2562L104.631 50.703C104.817 50.6136 105.002 50.5214 105.186 50.4264H105.325C105.88 50.2189 106.712 50.0115 107.544 49.3199C113.154 45.272 117.176 39.4043 118.92 32.7233C119.267 31.6169 119.475 30.5796 120.099 29.3349C120.723 28.8508 120.932 28.505 121.14 27.9518L121.695 27.1912L122.041 26.4996L123.429 24.1484L120.793 23.4569L119.752 23.2495C119.206 23.0162 118.61 22.9212 118.018 22.9729C117.667 22.6316 117.32 22.2858 116.978 21.9356L116.908 21.5898C116.839 20.8983 116.631 19.861 115.729 19.0312L115.937 18.8237C116.492 18.1322 117.325 17.164 117.325 15.8501L117.255 14.1213L117.186 12.7383L117.88 11.3552L118.573 11.1478L119.614 11.2861C120.53 11.4393 121.459 11.5088 122.388 11.4935H122.804C123.567 11.4244 124.747 11.3552 125.579 10.5254C126.342 9.83388 126.619 9.28066 126.897 8.65829V8.51998C127.452 7.41354 127.591 5.47727 125.302 3.12609C124.195 2.04933 122.836 1.26496 121.348 0.844062C119.694 0.289453 117.96 0.00911693 116.215 0.0142288V0.0142288Z" fill="#6E6F72"/>
<path d="M68.4902 51.6022C68.3515 51.5331 67.4498 52.1555 67.2417 52.1555C66.0838 52.1112 64.9241 52.1575 63.7735 52.2938V57.3419V52.3629C63.5654 53.8843 63.5654 55.4748 63.7041 57.0653C63.7041 57.826 63.9122 58.7249 64.5365 59.1398C64.8833 59.4856 65.2995 59.5548 65.785 59.6239H67.3804C67.7272 59.6239 68.074 59.6239 68.4209 59.4165C69.1145 59.0707 69.1839 58.2409 69.2532 57.4802C69.2532 55.8897 69.4613 53.6077 68.8371 52.1555C68.8371 51.948 68.6983 51.7405 68.4902 51.6022ZM107.75 49.4585H107.057C106.432 49.8043 105.669 50.0809 104.976 50.3575C104.34 50.6281 103.754 51.002 103.242 51.4639L103.103 53.5385V59.2782C103.103 59.8314 102.756 60.6612 103.034 61.0761C103.172 61.4219 103.935 61.4219 104.282 61.5602C104.629 61.6985 106.086 61.7676 106.432 61.6985C106.849 61.6985 107.265 61.491 107.473 61.007C107.612 60.7995 107.612 60.4538 107.612 60.108L107.889 55.129C107.958 54.0226 108.028 52.9161 107.889 51.8097C107.889 51.5331 107.958 49.5968 107.75 49.4585V49.4585Z" fill="#D1D3D4"/>
<path d="M123.705 4.5786C123.566 4.37114 123.08 4.02537 123.219 5.20096C123.496 6.92978 124.19 7.27554 122.664 8.10537C122.387 8.24368 118.849 8.10537 118.017 8.24367C116.629 8.45113 116.144 9.21181 115.45 10.3182C114.757 11.4247 113.785 14.6057 114.132 15.5738C114.826 17.6484 111.427 16.6111 111.913 18.8932C112.329 20.8986 112.606 22.904 112.468 24.702C112.468 26.085 115.45 26.085 115.589 27.4681C115.936 30.2342 113.231 34.1758 113.369 36.1121C113.508 38.4633 110.456 40.3304 110.04 40.607C106.225 43.1657 107.612 43.9263 103.103 44.6179C102.618 44.7562 101.369 48.6287 99.982 49.4585C99.8433 49.5968 100.259 59.4165 99.6352 60.1772C98.3173 61.6985 97.3462 61.0761 96.2364 61.007C95.6815 61.007 95.404 49.7352 95.1265 49.7352C94.641 49.7352 92.352 46.2775 92.0745 46.2775C90.3404 46.2775 88.6063 45.8626 86.8029 45.7243C81.9474 45.3094 80.7682 44.1338 78.6873 44.7562C77.5774 45.1019 73.3462 45.1711 72.2364 45.4477C68.9069 46.485 67.1035 50.2192 63.5659 49.0436C63.2884 48.9745 61.6237 49.9426 60.9994 50.7724C60.8607 50.9799 60.722 58.1026 60.3058 58.6558C58.9185 60.7304 56.0052 59.7623 55.4503 58.5175C55.3116 58.3101 55.3116 52.9162 55.7278 48.767C56.0052 45.7935 54.063 43.7189 53.9937 43.5806C53.3694 41.0219 53.0919 35.7664 52.4676 33.2077C51.4965 29.0586 53.7856 23.8721 53.0226 24.4945C51.4965 25.6009 51.2191 27.1223 49.9012 28.4362C47.8896 30.4416 47.0572 27.6064 48.0283 30.2342C48.3058 30.9257 49.2769 31.2023 49.8318 30.8565C50.1093 30.7182 50.5255 30.0267 50.6642 29.7501C51.0804 28.367 51.4272 26.6382 52.7451 25.8775L53.1613 26.085C51.2191 30.0959 51.2885 35.2131 52.3289 39.5697C53.3694 43.9263 55.2422 47.868 55.1035 52.3629C55.1035 54.4375 54.2017 58.0334 55.6584 59.4856C56.9069 60.6612 60.3751 60.8687 61.5543 59.2782C62.0399 58.5867 61.6931 56.927 61.6931 56.0972L62.0399 50.9799C66.063 51.6714 69.8087 50.565 72.7219 47.868C73.5501 47.7423 74.3634 47.5338 75.1497 47.2457C80.9069 48.6287 86.8722 48.9745 92.8375 48.9745L92.9762 49.0436H93.115C93.4618 49.666 93.878 50.1501 94.5023 50.6341C94.7797 51.2565 94.9184 51.8789 94.9878 52.6396V52.7779C95.0228 53.007 95.0459 53.2378 95.0572 53.4694V54.1609C94.9878 55.6823 94.7104 56.6504 94.8491 58.0334C94.8491 58.7941 94.8491 59.5548 95.0572 60.3155L95.1959 60.5921C95.1959 60.9378 95.404 61.2836 95.5427 61.6294C96.0283 62.3209 97.3462 62.6667 98.1092 62.6667C98.9416 62.6667 100.19 62.5975 100.606 61.9751C101.231 61.0762 101.161 58.9324 101.092 57.7568L101.022 55.6823V55.4748C101.022 54.2992 101.161 53.0545 101.369 51.8789C101.456 51.2336 101.693 50.6177 102.063 50.0809C102.548 49.4585 103.311 49.1128 104.005 48.6979L104.283 48.5596C104.838 48.3521 105.601 48.3521 106.225 47.868C111.108 44.4021 114.734 39.4529 116.56 33.7609C117.046 31.8938 117.254 30.2342 118.363 28.0904C119.057 27.4681 119.057 27.7447 119.335 26.8457C119.335 26.8457 119.82 26.3616 119.82 26.2233L120.236 25.5318L119.127 25.3243C118.155 24.7711 117.6 25.3243 116.768 24.6328C116.268 24.1872 115.782 23.7259 115.311 23.2498C114.618 22.5582 115.034 21.1752 114.202 20.5528C113.994 20.4145 113.716 20.2071 113.577 19.8613C113.525 19.6553 113.479 19.4477 113.439 19.2389C113.231 18.1325 115.242 17.026 115.242 15.9196C115.242 14.6749 114.965 13.4301 115.103 12.2545L116.352 9.90333C116.768 9.62672 117.947 9.14266 118.433 9.21181C119.681 9.21181 120.999 9.55757 122.179 9.48842C122.803 9.41927 123.774 9.48842 124.259 9.07351C124.606 8.72774 124.745 8.38198 124.953 7.82876C125.439 6.72232 124.329 5.61588 123.705 4.5786V4.5786Z" fill="#D1D3D4"/>
<path d="M123.423 25.0475C122.105 25.0475 121.134 24.8401 120.233 24.4943C120.094 24.356 119.886 24.2868 119.608 24.2177L117.944 23.457C116.695 22.558 113.99 20.6909 113.643 17.5099C113.504 16.4035 113.712 14.398 114.059 13.0841C114.337 11.8394 115.447 10.1106 115.516 9.90313L115.724 9.55737L116.14 9.41906C117.319 9.0733 118.845 8.72754 119.262 8.72754H119.47C120.163 8.86584 120.788 9.14245 121.204 9.34991C121.62 9.55736 121.897 9.62652 122.175 9.62652H122.314L122.522 9.55737C122.799 9.41906 123.146 9.28076 123.562 9.28076H123.701C124.533 9.28076 125.296 9.97228 125.921 10.3872L126.129 10.5947C127.169 11.4245 128.001 12.3926 128.764 13.3608L129.319 14.1214C130.221 15.2279 131.4 16.8875 131.747 18.893C132.025 20.9675 131.053 23.1113 129.319 24.0102C128.834 24.2868 128.279 24.4943 127.585 24.5635C126.406 24.7709 124.88 25.0475 123.423 25.0475V25.0475Z" fill="#A7A9AC"/>
<path d="M119.263 9.765C120.581 9.90331 121.136 10.664 122.176 10.664H122.384C122.87 10.664 123.147 10.3182 123.564 10.3182H123.633C124.188 10.3182 125.02 11.0097 125.436 11.4247C126.754 12.3928 127.517 13.5684 128.558 14.8131C129.529 16.0579 130.5 17.4409 130.639 18.9623C130.916 20.5528 130.292 22.3508 128.835 23.1114C127.07 23.6066 125.256 23.9081 123.425 24.0104C122.476 24.0399 121.532 23.8752 120.65 23.5263C120.095 23.2497 119.124 22.9731 118.569 22.5582C116.974 21.5209 114.962 19.9996 114.685 17.3718C114.616 16.4728 114.685 14.6057 115.032 13.3609C115.379 12.1853 116.419 10.3874 116.419 10.3874C116.419 10.3874 118.847 9.765 119.263 9.765V9.765ZM119.263 7.69043C119.055 7.69043 118.569 7.69043 115.864 8.38195L115.101 8.65856L114.616 9.35008C114.407 9.69585 113.367 11.4247 113.02 12.8077C112.673 14.2599 112.465 16.4036 112.604 17.6484C113.02 21.3135 116.072 23.388 117.459 24.287C117.945 24.7019 118.639 24.9785 119.263 25.186L119.818 25.3935C120.789 25.8775 121.968 26.085 123.425 26.085C124.951 26.085 126.546 25.8084 127.725 25.6009C128.558 25.4626 129.251 25.2552 129.806 24.9094C131.887 23.803 133.136 21.3135 132.72 18.6857C132.442 16.4728 131.124 14.6748 130.153 13.4992L129.529 12.7386C128.766 11.7013 127.933 10.664 126.754 9.765L126.546 9.6267C125.853 9.07348 124.881 8.24365 123.772 8.24365H123.564C123.082 8.26158 122.61 8.37933 122.176 8.58941L121.691 8.38195C121.205 8.1745 120.512 7.82873 119.61 7.69043H119.263V7.69043Z" fill="#6E6F72"/>
<path d="M107.126 18.755C106.964 18.7739 106.801 18.7739 106.64 18.755C105.947 18.5476 105.322 17.9252 105.045 17.0262C104.837 16.1964 104.837 15.2283 105.114 14.2601C105.461 13.292 105.877 12.5313 106.501 11.9781C106.571 11.9089 106.848 11.6323 107.195 11.6323H107.334C107.681 11.7015 107.75 11.8398 108.236 12.4622L109.276 13.8452L109.415 13.9144C109.692 14.191 110.039 14.5367 110.247 14.9516L110.455 15.7123C110.455 16.4038 110.108 16.9571 109.831 17.3028C109.491 17.7142 109.069 18.0499 108.591 18.2882C108.113 18.5264 107.59 18.6619 107.056 18.6859L107.126 18.755Z" fill="#A7A9AC"/>
<path d="M107.265 12.3237C107.265 12.3237 108.236 13.7067 108.791 14.2599C109.068 14.6057 109.484 14.9515 109.623 15.2972L109.762 15.7813C109.762 16.1962 109.554 16.4728 109.276 16.8186C108.791 17.5101 108.028 17.9942 107.195 18.0633C107.08 18.0733 106.964 18.0733 106.849 18.0633C106.294 17.925 105.877 17.3718 105.739 16.8186C105.461 16.1271 105.6 15.2281 105.808 14.4674C106.016 13.7067 106.432 13.0152 106.987 12.3928H107.195L107.265 12.3237ZM107.195 11.0098C106.779 11.0098 106.363 11.1481 106.016 11.4247C105.323 12.1162 104.768 13.0152 104.49 14.0525C104.151 15.0825 104.127 16.1898 104.421 17.2335C104.558 17.7292 104.822 18.1808 105.187 18.5444C105.552 18.9081 106.005 19.1712 106.502 19.3081C106.748 19.3895 107.005 19.4361 107.265 19.4464C108.375 19.3772 109.484 18.7548 110.386 17.7176C110.594 17.5101 111.218 16.7494 111.149 15.643C111.149 15.3664 111.08 14.9515 110.872 14.6057C110.594 14.1216 110.178 13.7067 109.901 13.4301L109.762 13.2918L108.791 12.0471C108.305 11.3555 108.097 11.0789 107.473 11.0098H107.195V11.0098Z" fill="#6E6F72"/>

</g>
</svg>
