<svg width="346" height="400" viewBox="0 0 346 400" fill="none" xmlns="http://www.w3.org/2000/svg">
<path d="M19.9636 111.54V288.46L173.177 376.921L326.036 288.46V111.54L173.177 23.0793L19.9636 111.54Z" fill="url(#paint0_radial_60_101)"/>
<path d="M173.2 33.5L317 116.7V283.3L173.2 366.5L29 283.3V116.7L173.2 33.5ZM173.2 8L4 104V300L173.2 400L342 296V104L173.2 8Z" fill="url(#paint1_linear_60_101)"/>
<path d="M173.2 28.9L321 114.4V285.6L173.2 371L25 285.6V114.4L173.2 29M173.2 4.1L4 104V296L173.2 396L342 296V104L173.2 4V4.1Z" fill="url(#paint2_linear_60_101)"/>
<path d="M173.2 15L333 107.5V292.5L173.2 385L13 292.5V107.5L173.2 15ZM173.2 4L4 104V296L173.2 396L342 296V104L173.2 4Z" fill="#1D5728"/>
<path d="M173.2 12.7L335 106.3V293.7L173.2 387.3L11 293.6V106.4L173.2 12.7ZM173.2 0L0 100V300L173.2 400L346 300V100L173.2 0Z" fill="#E0B568"/>
<defs>
<radialGradient id="paint0_radial_60_101" cx="0" cy="0" r="1" gradientUnits="userSpaceOnUse" gradientTransform="translate(173 200) scale(165.421 165.421)">
<stop stop-color="#209E34"/>
<stop offset="0.5" stop-color="#179838"/>
<stop offset="1" stop-color="#078D40"/>
</radialGradient>
<linearGradient id="paint1_linear_60_101" x1="173" y1="400" x2="173" y2="7.7851e-06" gradientUnits="userSpaceOnUse">
<stop stop-color="#A1E65C"/>
<stop offset="0.5" stop-color="#209E34"/>
<stop offset="0.7" stop-color="#1D5728"/>
</linearGradient>
<linearGradient id="paint2_linear_60_101" x1="173" y1="1.67258e-07" x2="173" y2="400" gradientUnits="userSpaceOnUse">
<stop stop-color="#A1E65C"/>
<stop offset="0.5" stop-color="#209E34"/>
<stop offset="0.7" stop-color="#1D5728"/>
<stop offset="0.8" stop-color="#1D602A"/>
<stop offset="0.9" stop-color="#1E782E"/>
<stop offset="1" stop-color="#209E34"/>
</linearGradient>
</defs>

<g transform="translate(51.900000000000006, 69.2) scale(1.384)">

<path d="M15.1539 61.8365C15.1539 61.8365 11.6857 59.4161 9.39668 58.8629C7.03831 58.3788 2.46028 57.7565 1.90536 58.0331C1.35045 58.3097 9.67414 65.4324 11.0614 68.9592C13.1423 72.4168 14.3215 77.6032 15.5007 78.848C16.6799 80.0927 16.8186 80.0235 18.3447 79.9544C19.94 79.8161 20.8418 78.1564 20.8418 78.1564V72.4168C20.8418 72.4168 20.3562 68.7517 19.2464 66.6771C18.1366 64.6026 15.0845 61.8365 15.0845 61.8365H15.1539ZM35.1308 60.6609C34.7839 60.4534 31.5238 60.9375 29.8591 61.3524C28.1943 61.7673 25.836 63.8419 25.836 63.8419C25.836 63.8419 23.755 66.1931 22.992 67.8527C22.229 69.5124 21.8129 72.6242 21.8129 72.6242V77.3958C21.8129 77.3958 22.5065 78.7788 23.6163 78.848C24.6568 78.9863 24.7955 78.9863 25.6279 77.949C26.4602 76.9117 27.2233 72.6934 28.6799 69.7198C29.7204 66.8154 35.4776 60.9375 35.1308 60.73V60.6609ZM32.9805 72.6934C32.9805 72.6934 31.5238 72.8317 30.8995 73.3849L29.1654 74.9063L28.4718 76.4276C28.4718 76.4276 28.4718 77.949 28.888 78.2256C29.3042 78.5022 29.9978 78.2947 30.5527 78.0873C31.1076 77.8798 31.94 76.3585 33.1192 75.5286C34.0903 74.6297 38.0441 74.0073 37.9747 73.7998C37.836 73.6615 35.8938 72.7625 35.2001 72.5551C34.3678 72.4168 32.9805 72.6934 32.9805 72.6934V72.6934ZM10.4371 74.0764C9.7435 73.1775 7.87068 72.0019 7.87068 72.0019C7.87068 72.0019 5.92848 71.1029 4.61056 71.0337C3.29265 70.9646 0.795541 71.0337 0.587449 71.172C0.309992 71.3795 5.23484 74.2839 6.2753 75.9436C7.66258 77.5341 8.63368 79.9544 9.39668 80.5076C10.0903 81.0608 10.1597 80.9917 10.9921 80.7842C11.8244 80.6459 12.1712 79.7469 12.1712 79.7469L11.7551 76.8425C11.7551 76.8425 11.2002 75.0446 10.4371 74.0764Z" fill="#177D35"/>
<path d="M151.387 54.7137C151.387 54.7137 147.988 52.2242 145.699 51.671C143.41 51.1178 138.694 50.5645 138.208 50.8412C137.723 51.1178 145.908 58.2405 147.364 61.7672C149.445 65.2249 150.555 70.4113 151.803 71.656C153.052 72.9008 153.121 72.8316 154.647 72.6933C156.173 72.6242 157.145 70.8954 157.145 70.8954V65.2249C157.145 65.2249 156.659 61.4906 155.549 59.4852C154.439 57.4798 151.387 54.6445 151.387 54.6445V54.7137ZM171.434 53.4689C171.087 53.1923 167.827 53.7456 166.162 54.1605C164.566 54.5754 162.139 56.65 162.139 56.65C162.139 56.65 160.058 58.932 159.225 60.6608C158.393 62.3896 158.116 65.4323 158.116 65.4323V70.1347C158.116 70.1347 158.809 71.5177 159.85 71.656C160.89 71.7944 161.029 71.7944 161.931 70.7571C162.763 69.7198 163.526 65.4323 164.983 62.5279C166.023 59.6235 171.78 53.7456 171.434 53.4689V53.4689ZM171.434 65.3632C170.671 65.2249 169.283 65.5015 169.283 65.5015C169.283 65.5015 167.827 65.6398 167.202 66.193C166.509 66.6079 165.399 67.6452 165.399 67.6452L164.705 69.2357C164.705 69.2357 164.705 70.7571 165.121 71.0337C165.538 71.3103 166.231 71.1028 166.786 70.8954C167.341 70.6188 168.173 69.1666 169.422 68.3367C170.393 67.4377 174.277 66.7462 174.277 66.6079C174.139 66.4696 172.197 65.5015 171.503 65.3632H171.434ZM146.74 66.8845C146.046 65.9855 144.173 64.81 144.173 64.81C144.173 64.81 142.162 63.911 140.913 63.8418C139.595 63.7035 137.098 63.8418 136.821 63.9801C136.613 64.1876 141.538 67.092 142.578 68.6825C143.965 70.273 144.936 72.7625 145.63 73.3157C146.324 73.7998 146.462 73.7998 147.295 73.5923C148.127 73.3849 148.474 72.4859 148.474 72.4859L148.058 69.6506C148.058 69.6506 147.503 67.8527 146.74 66.8845Z" fill="#177D35"/>
<path d="M16.2621 63.2882L13.2794 60.7987L9.25631 58.655L6.62047 58.1018H3.91528L2.11181 58.2401L5.16383 60.1763L7.03666 61.3519C6.7592 61.3519 10.3661 64.4638 12.3083 66.1926L14.1812 68.6129L15.8459 69.7194C15.8459 69.7194 17.4413 70.895 17.9962 70.4801C18.6205 70.0651 18.5511 69.3045 18.5511 69.3045C18.5511 69.3045 18.8979 68.5438 18.2736 66.6767C17.58 64.8096 16.1927 63.219 16.1927 63.219L16.2621 63.2882ZM33.1869 61.9051L34.7823 61.0062L31.869 61.1445C31.869 61.1445 29.0944 61.9052 28.8863 62.0435C28.6089 62.1126 26.2505 63.8414 26.2505 63.8414C26.2505 63.8414 24.5164 65.7085 24.1696 66.1926C23.8921 66.6767 23.0598 67.5756 23.0598 67.7831L22.8517 68.5438C22.8517 68.5438 22.5048 69.3045 23.6147 69.3736C24.7245 69.3736 25.973 67.714 25.973 67.714L27.7071 65.7777L29.5106 64.3946L31.5915 63.0116L33.1175 61.9051H33.1869ZM8.4933 72.6929L6.62047 71.7248C6.34302 71.5865 4.33146 71.3099 3.84591 71.2407C3.36036 71.1716 1.48753 71.3099 1.21008 71.379C1.00198 71.4482 2.80545 71.8631 2.80545 71.8631L3.56845 72.278L6.34302 73.6611L8.42394 75.2516C8.42394 75.2516 9.60313 75.7356 10.158 75.5973C10.6436 75.459 10.2968 74.076 10.158 73.8685L8.4933 72.6238V72.6929ZM34.2274 72.3472L32.0771 72.8312C32.0771 72.8312 31.2447 72.9695 30.9673 73.7994C30.6898 74.6292 30.9673 74.6292 30.9673 74.6292L31.2447 74.4909L32.632 73.3153L34.3661 73.0387H36.3083L37.4181 73.2461L36.7245 72.7621L34.2274 72.3472V72.3472ZM152.285 56.0272L149.302 53.5377L145.279 51.394L142.713 50.9099H139.938L138.204 51.0482L141.187 52.9153L143.06 54.1601C142.782 54.1601 146.389 57.2719 148.331 59.0007L150.204 61.3519L151.938 62.5275C151.938 62.5275 153.464 63.634 154.019 63.219C154.713 62.8041 154.643 62.0435 154.643 62.0435C154.643 62.0435 154.99 61.2828 154.297 59.4157C153.603 57.6177 152.216 55.958 152.216 55.958L152.285 56.0272ZM169.21 54.7133L170.805 53.7452L167.892 53.8835C167.892 53.8835 165.117 54.6441 164.909 54.7825L162.343 56.5804C162.343 56.5804 160.539 58.5167 160.262 59.0007C159.984 59.4157 159.152 60.3146 159.152 60.5221L158.875 61.3519C158.875 61.3519 158.597 62.1126 159.638 62.1818C160.678 62.2509 161.996 60.5221 161.996 60.5221L163.869 58.5858L165.603 57.1336L167.684 55.7506L169.21 54.7133V54.7133ZM144.516 65.4319C144.308 65.2245 142.921 64.6713 142.713 64.4638C142.435 64.3255 140.354 64.0489 139.938 63.9797L137.233 64.1872L138.828 64.6712L139.591 65.017L142.366 66.4001L144.447 67.9906C144.447 67.9906 145.626 68.4746 146.181 68.3363C146.736 68.2672 146.389 66.815 146.181 66.6767L144.516 65.4319ZM172.817 65.5702L170.32 65.0862L168.1 65.5702C168.1 65.5702 167.337 65.7085 166.99 66.5384C166.713 67.4373 166.99 67.4373 166.99 67.4373L167.337 67.2299L168.724 66.1234L170.389 65.7777H172.331L173.441 66.0543L172.747 65.5702H172.817Z" fill="#64B32E"/>
<path d="M82.0208 70.0654C80.4255 70.0654 79.1076 68.6823 79.1076 67.0918V57.2722L55.8012 57.5488C54.9689 57.5488 53.1654 57.5488 52.6105 56.1657C52.0556 54.7827 53.3041 53.5379 53.7203 53.0539H53.7897L53.859 52.9156C53.9978 52.9156 62.2521 46.761 67.0382 42.6118L60.7954 42.681C60.1712 42.681 58.5758 42.681 58.0209 41.4362C57.3272 40.1224 58.4371 38.8085 58.8532 38.3244L58.992 38.1861L59.1307 38.1169C59.2001 38.0478 69.5353 30.9251 73.1422 26.9142C73.6278 26.4302 74.1827 25.6695 74.7376 24.7705H69.1885C67.6625 24.7705 67.1076 24.2173 66.8301 23.6641C66.622 23.1108 66.4833 22.281 67.5237 21.1054L67.5931 20.898L67.8012 20.8288C67.8012 20.8288 74.3908 16.4722 76.6798 13.9827C78.5526 11.9773 81.8821 5.13121 82.9226 2.64172L83.0613 2.50341L83.2 2.36511C83.6856 1.67358 84.6567 1.46613 85.0729 1.39697H85.2116C85.5584 1.39697 86.6682 1.67358 87.2925 2.36511L87.3619 2.50341L87.4312 2.64172C89.141 6.62719 91.2561 10.4274 93.7434 13.9827C96.1018 16.4722 102.622 20.7597 102.691 20.8288L102.83 20.898L102.969 21.1054C103.94 22.2119 103.871 23.18 103.662 23.6641C103.385 24.2173 102.761 24.8397 101.373 24.8397L96.9341 24.7705C97.5584 25.6695 98.1133 26.4302 98.5989 26.9142C102.206 30.9251 112.472 37.9786 112.61 38.1169L112.749 38.1861L112.888 38.3244C113.235 38.8085 114.275 40.1224 113.72 41.4362C113.165 42.681 111.501 42.681 110.946 42.681H104.703C109.42 46.8301 117.743 52.8464 117.813 52.9156L117.882 52.9847L117.951 53.0539C118.437 53.5379 119.686 54.7827 119.131 56.1657C118.576 57.5488 116.703 57.5488 115.94 57.5488L92.3561 57.2722V67.161C92.3561 68.8206 91.0382 70.1345 89.4428 70.1345H82.0208V70.0654Z" fill="#468332"/>
<path d="M85.2796 2.78026C85.2796 2.78026 85.9732 2.91856 86.1813 3.26432C86.1813 3.26432 90.3432 12.2541 92.7709 14.9511C95.1986 17.648 101.927 21.9355 101.927 21.9355C102.69 22.9036 102.482 23.4569 101.303 23.4569L94.4356 23.3185C95.3283 24.9353 96.3735 26.4636 97.557 27.8826C101.372 32.0318 111.777 39.2236 111.777 39.2236C113.025 40.6758 112.678 41.2982 110.875 41.2982L101.164 41.229L102.551 42.6121C107.199 46.8304 116.979 54.0222 116.979 54.0222C118.436 55.5436 118.089 56.0968 115.938 56.0968L90.9674 55.8894V67.0921C90.9674 67.991 90.2738 68.6826 89.4414 68.6826H82.0195C81.1871 68.6826 80.4935 67.991 80.4935 67.0921V55.8894L55.7998 56.166C53.5802 56.166 53.2334 55.4744 54.69 54.0914C54.69 54.0914 64.5397 46.8304 69.1177 42.6812L70.505 41.229L60.7941 41.2982C58.9906 41.2982 58.7131 40.6758 59.8923 39.2236C59.8923 39.2236 70.2969 32.0318 74.1813 27.8826C75.3649 26.4636 76.4101 24.9353 77.3027 23.3185L69.1177 23.4569C67.9386 23.4569 67.7305 22.9036 68.5628 21.9355C68.5628 21.9355 75.2218 17.5789 77.7189 14.9511C80.216 12.3233 84.2391 3.19517 84.2391 3.19517C84.5166 2.91856 85.2102 2.78026 85.2102 2.78026H85.2796ZM85.2102 0.0141602H84.9328C84.2391 0.0833126 82.8518 0.498228 82.1582 1.39721L81.8807 1.74297L81.742 2.08873C80.0903 5.95249 78.0449 9.63691 75.638 13.084C72.9587 15.5079 70.0817 17.7053 67.0368 19.6535L66.69 19.8609L66.4125 20.2067C64.8865 22.0046 65.2334 23.526 65.5802 24.2175C65.927 24.9091 66.8287 26.2229 69.0484 26.2229H71.8923C68.216 30.0955 58.4357 36.8724 58.3663 36.9416L58.0195 37.149L57.742 37.4948C56.3548 39.0853 56.0773 40.6067 56.7016 41.9897C57.3952 43.3728 58.7825 44.0643 60.7941 44.0643H63.1524C59.8505 46.7107 56.4973 49.2929 53.0946 51.8094L52.8866 51.9477L52.7478 52.086C51.1524 53.6765 50.6669 55.1978 51.3605 56.65C52.2623 58.9321 54.8981 58.9321 55.7998 58.9321L77.7189 58.6555V67.1612C77.7189 69.5815 79.6611 71.5178 82.0195 71.5178H89.4414C91.7998 71.5178 93.742 69.5815 93.742 67.1612V58.7246L115.938 59.0012C116.771 59.0012 119.407 59.0012 120.378 56.7192C121.071 55.3361 120.517 53.7456 118.991 52.1551L118.782 52.0168L118.644 51.8785C118.574 51.8785 113.095 47.8677 108.517 44.1334H110.875C112.956 44.1334 114.343 43.4419 115.037 42.0589C115.661 40.6758 115.314 39.1545 113.927 37.564L113.719 37.2182L113.372 37.0107C113.233 37.0107 103.453 30.1646 99.7767 26.2921H101.303C103.592 26.2921 104.493 25.0474 104.84 24.2867C105.187 23.5952 105.534 22.0738 104.008 20.2758L103.8 19.9301L103.453 19.7226C100.384 17.7782 97.4834 15.5807 94.7824 13.1531C93.1871 11.4243 90.2738 5.54636 88.7478 2.15789L88.5397 1.81212L88.3316 1.53551C87.5161 0.670718 86.3988 0.150912 85.2102 0.0833116V0.0141602Z" fill="#1D5728"/>
<path d="M54.7595 54.0221H80.4242L103.176 54.2295C106.02 54.3678 108.309 52.8465 102.274 48.559C102.274 48.559 95.1987 42.8885 91.0369 39.3618L89.6496 38.1862L98.6669 38.2553C100.262 38.2553 100.54 37.7712 99.4299 36.5265L87.638 24.7706C86.6845 23.7601 85.847 22.6468 85.1409 21.4513H92.2161C92.771 21.4513 87.1525 13.8445 86.3895 12.254C85.0716 9.48788 84.1698 3.26416 84.1698 3.26416C83.823 3.26416 79.8692 12.254 77.4415 14.9509C75.0138 17.6479 68.2854 21.9353 68.2854 21.9353C67.5224 22.9035 67.6612 23.4567 68.8404 23.4567L77.0253 23.3184C76.1327 24.9351 75.0875 26.4634 73.9039 27.8824C70.0889 32.0316 59.6843 39.2234 59.6843 39.2234C58.4358 40.6756 58.7132 41.298 60.586 41.298L70.297 41.2289L68.8404 42.6119C64.2623 46.8302 54.482 54.0221 54.482 54.0221C53.0254 55.5434 53.3722 56.0966 55.5225 56.0966H55.6612C53.5803 56.0966 53.1641 55.5434 54.6207 54.0221H54.7595Z" fill="#54AE32"/>

</g>
</svg>
