<svg width="256" height="256" viewBox="0 0 64 64" fill="none" xmlns="http://www.w3.org/2000/svg">
<path d="M32 63.3602C23.36 63.3602 16.64 59.2002 16.64 54.0802C16.64 47.3602 23.04 42.2402 32 42.2402C40.96 42.2402 47.36 47.3602 47.36 54.0802C47.36 59.2002 40.64 63.3602 32 63.3602Z" fill="#BABABA"/>
<path d="M32 42.8799C40.64 42.8799 47.04 47.6799 47.04 54.0799C47.04 58.5599 40.64 63.0399 32 63.0399C23.04 63.0399 16.96 58.5599 16.96 54.0799C16.96 47.9999 23.04 42.8799 32 42.8799ZM32 41.9199C23.04 41.9199 16 47.0399 16 54.0799C16 56.6399 17.6 59.1999 20.8 61.1199C23.68 62.7199 27.52 63.9999 32 63.9999C36.16 63.9999 40.32 62.7199 43.2 61.1199C46.08 59.1999 48 56.6399 48 54.0799C48 50.5599 46.4 47.3599 43.2 45.1199C40.32 43.1999 36.48 41.9199 32 41.9199Z" fill="#223948"/>
<path d="M46.72 52.1602C47.04 54.4002 47.68 57.2802 41.28 61.1202C40.96 61.1202 43.2 60.1602 43.2 57.6002C42.88 56.0002 42.24 55.0402 41.6 55.0402C40.32 55.3602 37.12 57.2802 32 57.2802C24.96 57.2802 19.52 54.4002 19.52 50.5602C19.52 46.7202 24.96 44.1602 32 44.1602C39.04 44.1602 46.08 47.0402 46.72 52.1602Z" fill="#7A7A7A"/>
<path d="M32 54.4002C27.84 54.4002 22.08 53.1202 20.16 50.2402C17.6 47.0402 16.64 42.5602 16.64 35.8402C16.64 29.7602 18.24 25.2802 21.76 22.0802C24.64 19.5202 28.16 18.2402 32 18.2402C34.88 18.2402 39.04 18.5602 42.24 21.1202C45.76 24.0002 47.36 28.8002 47.36 35.8402C47.36 42.8802 45.76 48.3202 43.2 50.8802C40.96 53.1202 36.8 54.4002 32 54.4002Z" fill="#BABABA"/>
<path d="M32 18.5601C38.72 18.5601 47.04 20.4801 47.04 35.8401C47.04 42.2401 45.44 48.0001 42.88 50.5601C40.64 52.4801 36.48 53.7601 32 53.7601C27.52 53.7601 22.4 52.4801 20.48 49.9201C18.24 47.0401 16.96 42.2401 16.96 35.8401C16.96 23.0401 25.6 18.5601 32 18.5601ZM32 17.6001C28.16 17.6001 24.32 19.2001 21.44 21.7601C19.5809 23.5828 18.1336 25.7824 17.1952 28.211C16.2569 30.6396 15.8494 33.2409 16 35.8401C16 42.5601 17.28 47.3601 19.52 50.5601C21.76 53.4401 27.52 54.7201 32 54.7201C36.8 54.7201 41.28 53.4401 43.52 51.2001C46.4 48.6401 48 42.8801 48 35.8401C48 28.8001 46.08 23.6801 42.56 20.8001C39.36 17.9201 34.88 17.6001 32 17.6001Z" fill="#223948"/>
<path d="M47.04 35.8398C47.36 46.0798 42.88 50.5598 42.88 50.5598C42.88 50.5598 45.12 42.8798 45.12 38.3998C45.12 33.2798 42.56 27.1998 40.96 28.4798C36.48 31.6798 31.36 31.0398 27.84 30.3998C24 30.0798 20.16 24.9598 20.48 23.9998C24.32 18.2398 25.6 18.5598 32 18.5598C38.72 18.5598 46.4 19.5198 47.04 35.8398Z" fill="#7A7A7A"/>
<path d="M32 28.1601C22.4 28.1601 18.88 20.1601 18.88 15.0401C18.88 8.32014 21.12 0.640137 32 0.640137C40.64 0.640137 45.12 5.44014 45.12 15.0401C45.12 19.8401 42.24 28.1601 32 28.1601Z" fill="#BABABA"/>
<path d="M32.0001 0.96C39.0401 0.96 44.4801 4.16 44.4801 15.04C44.4801 20.16 41.2801 27.52 32.0001 27.52C22.4001 27.52 19.5201 19.52 19.5201 15.04C19.5201 4.48 24.9601 0.96 32.0001 0.96ZM32.0001 0C25.9201 0 18.5601 2.56 18.5601 15.04C18.5601 20.16 22.0801 28.48 32.0001 28.48C36.4801 28.48 40.0001 26.88 42.5601 23.68C44.4801 21.44 45.4401 18.24 45.4401 15.04C45.4401 5.12 40.9601 0 32.0001 0Z" fill="#223948"/>
<path d="M44.48 15.04C44.48 17.92 43.52 21.44 40.96 24C39.04 26.24 46.4 15.36 40 7.99996C32.96 -3.9041e-05 22.72 4.47996 22.72 4.47996C22.72 4.47996 25.28 0.959961 32 0.959961C39.04 0.959961 44.48 4.15996 44.48 15.04Z" fill="#7A7A7A"/>
</svg>
