<svg width="128" height="128" viewBox="0 0 128 128" fill="none" xmlns="http://www.w3.org/2000/svg">
<path d="M65.7275 18.0189C65.9772 18.0189 98.6791 45.0972 98.6791 45.0972C98.9189 45.2976 99.0787 45.5781 99.1387 45.8886L106.932 93.0727C107.112 93.9743 106.842 94.6756 106.303 94.6756C106.103 94.6756 105.873 94.5954 105.613 94.375L100.278 90.0974L98.4992 93.1729L89.2972 108.991H38.7007L29.5086 94.0244L27.2706 90.4681L22.3848 94.375C22.125 94.5854 21.8852 94.6756 21.6954 94.6756C21.1558 94.6756 20.896 93.9743 21.0659 93.0727L28.8592 45.8886C28.9191 45.5781 29.089 45.2976 29.3288 45.0972C29.3288 45.0972 62.0306 18.0089 62.2804 18.0189H65.7275ZM62.2704 13.01C60.472 13.01 59.6427 13.6712 57.6544 15.2741C52.6028 19.4035 47.5605 23.5442 42.5274 27.6962C34.3245 34.4582 26.1415 41.2403 26.1415 41.2403C24.9735 42.2108 24.1903 43.5682 23.9334 45.0672L16.1401 92.2112C15.9427 93.1574 15.954 94.1354 16.1732 95.0768C16.3924 96.0182 16.8142 96.9001 17.4091 97.6609C17.9302 98.2978 18.586 98.8107 19.329 99.1624C20.072 99.5141 20.8837 99.6959 21.7054 99.6945C22.6545 99.6945 24.0933 99.4441 25.542 98.262L26.0116 97.8813L34.4544 111.616C34.9016 112.345 35.5276 112.946 36.2728 113.364C37.0179 113.781 37.8572 114 38.7107 114H89.2972C90.1704 114 91.0285 113.771 91.7858 113.335C92.5432 112.899 93.1733 112.272 93.6134 111.516L101.677 97.6408L102.496 98.292C103.564 99.1887 104.91 99.6846 106.303 99.6945C107.971 99.6945 109.53 98.9532 110.599 97.6609C111.192 96.8993 111.612 96.017 111.829 95.0756C112.047 94.1343 112.057 93.1567 111.858 92.2112L104.064 45.0672C104.064 45.0271 104.064 44.987 104.044 44.9469C103.769 43.4956 102.999 42.1853 101.866 41.2403L85.4605 27.6862L74.1302 18.3696C67.6058 13.0301 67.6058 13.0301 65.7774 13H62.2804L62.2704 13.01Z" fill="black"/>
<path d="M38.0213 110.263L27.6802 93.4333L64.1488 64.8324L100.617 92.5518L90.3163 110.263H38.0213Z" fill="url(#paint0_linear_2_463)"/>
<path d="M64.1588 66.7358L98.6491 92.9325L89.457 108.751H38.8506L29.6585 93.784L64.1488 66.7157M64.1188 62.929L62.3004 64.3515L27.8101 91.4298L25.6919 93.0827L27.1107 95.3668L36.3028 110.333L37.192 111.766H91.1755L92.0448 110.263L101.237 94.4552L102.576 92.1511L100.458 90.5482L65.9772 64.3315L64.1388 62.929H64.1188Z" fill="#231F20"/>
<path d="M21.8552 95.9578C21.2257 95.9578 20.6562 95.6874 20.2566 95.1965C19.727 94.5553 19.5572 93.6237 19.757 92.5618L27.5403 45.4078C27.6702 44.7165 28.0199 44.1255 28.5294 43.7047C61.6409 16.2859 61.6709 16.2859 62.4303 16.2859H63.929V61.5265C63.929 62.388 63.5493 63.1995 62.8799 63.7404L23.4838 95.3267C22.9642 95.7375 22.4147 95.9578 21.8552 95.9578Z" fill="url(#paint1_linear_2_463)"/>
<path d="M62.4303 17.7885V61.5265C62.4303 61.9272 62.2505 62.3179 61.9307 62.5683L22.5546 94.1446C22.2949 94.365 22.0551 94.4552 21.8552 94.4552C21.3257 94.4552 21.0559 93.7539 21.2358 92.8523L29.0291 45.6582C29.089 45.3476 29.2489 45.0671 29.4887 44.8668C29.4887 44.8668 62.1905 17.7885 62.4403 17.7785M62.4403 14.7732H62.4303C61.2813 14.7732 61.2813 14.7732 55.2964 19.6819L43.9662 28.9985L27.5803 42.5527C26.8024 43.1974 26.2725 44.0935 26.0816 45.0872V45.1273L26.0716 45.1673L18.2783 92.3214C18.1262 92.9833 18.1226 93.6709 18.2677 94.3344C18.4129 94.9979 18.7032 95.6208 19.1176 96.1582C19.797 96.9897 20.7962 97.4605 21.8652 97.4605C22.4947 97.4605 23.4539 97.2902 24.453 96.4788L63.8191 64.9225C64.326 64.5147 64.7347 63.9976 65.0149 63.4097C65.2951 62.8218 65.4397 62.1781 65.4377 61.5265V14.7832H62.4403V14.7732Z" fill="#231F20"/>
<path d="M106.462 95.9578C105.903 95.9578 105.343 95.7375 104.824 95.3167L65.4378 63.7404C65.1057 63.4736 64.838 63.1349 64.6546 62.7499C64.4712 62.3648 64.3769 61.9432 64.3787 61.5165V16.2859H65.8974C66.6367 16.2859 67.0364 16.5864 99.7882 43.7147C100.298 44.1355 100.647 44.7265 100.767 45.3777L108.561 92.6019C108.674 93.0461 108.689 93.51 108.602 93.9604C108.516 94.4107 108.331 94.8363 108.061 95.2065C107.651 95.6874 107.082 95.9578 106.462 95.9578Z" fill="url(#paint2_linear_2_463)"/>
<path d="M65.8774 17.7885C66.1272 17.7885 98.829 44.8668 98.829 44.8668C99.0688 45.0671 99.2287 45.3476 99.2986 45.6582L107.092 92.8423C107.262 93.7439 106.992 94.4552 106.462 94.4552C106.263 94.4552 106.033 94.355 105.763 94.1546L66.3769 62.5683C66.0572 62.3079 65.8774 61.9272 65.8774 61.5165V17.7785M65.8774 14.7732H62.8799V61.5265C62.8799 62.8488 63.4694 64.081 64.4886 64.9125L103.895 96.4888C104.874 97.2902 105.833 97.4605 106.462 97.4605C107.522 97.4605 108.521 96.9897 109.21 96.1582C110.019 95.1764 110.309 93.814 110.039 92.3214L102.246 45.1673V45.1072C102.046 44.1054 101.527 43.2038 100.747 42.5527L84.3615 29.0085L73.0312 19.6919C67.0364 14.7832 67.0364 14.7832 65.8774 14.7832V14.7732Z" fill="#231F20"/>
<path d="M69.8439 112.016H58.4837L57.5145 100.185C57.5132 99.0716 57.8184 97.9791 58.3966 97.0282C58.9749 96.0772 59.8037 95.3047 60.7917 94.7958C61.78 94.2905 62.8715 94.0213 63.9808 94.0091C65.09 93.997 66.1871 94.2422 67.1862 94.7256L67.416 94.8258C69.5042 95.8477 70.8131 97.9614 70.8131 100.276L69.8539 112.006L69.8439 112.016Z" fill="black"/>
<defs>
<linearGradient id="paint0_linear_2_463" x1="64.1488" y1="64.8324" x2="64.1488" y2="110.263" gradientUnits="userSpaceOnUse">
<stop offset="0.11" stop-color="#7C7D80"/>
<stop offset="0.33" stop-color="#78797C"/>
<stop offset="0.56" stop-color="#6C6C6F"/>
<stop offset="0.8" stop-color="#575759"/>
<stop offset="1" stop-color="#414042"/>
</linearGradient>
<linearGradient id="paint1_linear_2_463" x1="61.2713" y1="66.9161" x2="26.4953" y2="46.8899" gradientUnits="userSpaceOnUse">
<stop offset="0.11" stop-color="#7C7D80"/>
<stop offset="0.33" stop-color="#78797C"/>
<stop offset="0.56" stop-color="#6C6C6F"/>
<stop offset="0.8" stop-color="#575759"/>
<stop offset="1" stop-color="#414042"/>
</linearGradient>
<linearGradient id="paint2_linear_2_463" x1="101.776" y1="46.8103" x2="67.0005" y2="66.8464" gradientUnits="userSpaceOnUse">
<stop offset="0.07" stop-color="#414042"/>
<stop offset="0.25" stop-color="#575759"/>
<stop offset="0.47" stop-color="#6C6C6F"/>
<stop offset="0.69" stop-color="#78797C"/>
<stop offset="0.89" stop-color="#7C7D80"/>
</linearGradient>
</defs>
</svg>
