<svg width="292" height="407" viewBox="0 0 292 407" fill="none" xmlns="http://www.w3.org/2000/svg">
<path d="M16.6348 390.357C14.999 390.355 13.4307 389.704 12.274 388.548C11.1173 387.391 10.4667 385.823 10.4648 384.187V16.5249C10.467 14.8894 11.1178 13.3215 12.2745 12.1651C13.4312 11.0088 14.9993 10.3585 16.6348 10.3569H269.794C271.429 10.3585 272.998 11.0088 274.154 12.1651C275.311 13.3215 275.962 14.8894 275.964 16.5249V384.187C275.962 385.823 275.311 387.391 274.155 388.548C272.998 389.704 271.43 390.355 269.794 390.357H16.6348Z" fill="url(#paint0_radial)"/>
<path d="M265.964 20.3569V380.357H20.4648V20.3569H265.964ZM269.794 0.356934H16.6348C7.70284 0.356934 0.464844 7.59493 0.464844 16.5249V384.187C0.464844 393.117 7.70284 400.357 16.6348 400.357H269.794C278.724 400.357 285.964 393.117 285.964 384.187V16.5249C285.964 7.59593 278.724 0.356934 269.794 0.356934Z" fill="#F78989"/>
<path d="M269.794 10.3569C271.429 10.3585 272.998 11.0088 274.154 12.1651C275.311 13.3215 275.962 14.8894 275.964 16.5249V384.187C275.962 385.823 275.311 387.391 274.155 388.548C272.998 389.704 271.43 390.355 269.794 390.357H16.6348C14.999 390.355 13.4307 389.704 12.274 388.548C11.1173 387.391 10.4667 385.823 10.4648 384.187V16.5249C10.467 14.8894 11.1178 13.3215 12.2745 12.1651C13.4312 11.0088 14.9993 10.3585 16.6348 10.3569H269.794ZM269.794 0.356934H16.6348C7.70284 0.356934 0.464844 7.59493 0.464844 16.5249V384.187C0.464844 393.117 7.70284 400.357 16.6348 400.357H269.794C278.724 400.357 285.964 393.117 285.964 384.187V16.5249C285.964 7.59593 278.724 0.356934 269.794 0.356934Z" fill="#414042"/>
<path d="M141.651 287.91C137.612 287.91 133.667 286.868 130.245 284.895C122.837 280.624 118.414 273.037 118.414 264.599C118.414 256.161 122.837 248.573 130.245 244.302C133.667 242.329 137.612 241.286 141.651 241.286C145.69 241.286 149.634 242.329 153.056 244.303C160.463 248.574 164.886 256.161 164.886 264.6C164.886 273.038 160.463 280.625 153.056 284.896C149.635 286.868 145.69 287.91 141.651 287.91Z" fill="url(#paint1_linear)"/>
<path d="M140.738 243.785C144.266 243.785 147.794 244.679 150.894 246.467C164.999 254.601 164.999 274.596 150.894 282.729C147.793 284.517 144.266 285.41 140.738 285.41C137.21 285.41 133.681 284.516 130.581 282.729C116.474 274.596 116.474 254.601 130.581 246.467C133.682 244.679 137.21 243.785 140.738 243.785ZM140.738 238.785C136.26 238.785 131.884 239.944 128.083 242.136C119.892 246.859 115 255.257 115 264.599C115 273.941 119.892 282.338 128.084 287.061C131.885 289.252 136.261 290.411 140.738 290.411C145.215 290.411 149.591 289.253 153.391 287.061C161.582 282.338 166.473 273.941 166.473 264.599C166.473 255.257 161.582 246.859 153.391 242.136C149.591 239.944 145.216 238.785 140.738 238.785Z" fill="#223948"/>
<path d="M119.414 100.506L122.914 218.509H160.415C161.415 180.008 162.915 139.007 164.415 100.506C153.915 97.5063 128.748 96.8394 119.414 100.506Z" fill="url(#paint2_linear)" stroke="#223948" stroke-width="5" stroke-linejoin="round"/>
<defs>
<radialGradient id="paint0_radial" cx="0" cy="0" r="1" gradientUnits="userSpaceOnUse" gradientTransform="translate(143.21 200.357) rotate(-90) scale(163.894 169.057)">
<stop stop-color="#32B4BA"/>
<stop offset="0.163" stop-color="#30ABBA"/>
<stop offset="0.429" stop-color="#2B93BA"/>
<stop offset="0.762" stop-color="#236BBA"/>
<stop offset="1" stop-color="#1D4BBA"/>
</radialGradient>
<linearGradient id="paint1_linear" x1="141.65" y1="287.91" x2="141.65" y2="241.285" gradientUnits="userSpaceOnUse">
<stop stop-color="#F78181"/>
<stop offset="0.16" stop-color="#F79E9E"/>
<stop offset="0.527" stop-color="#F8BEBE"/>
<stop offset="0.82" stop-color="#F9D6D6"/>
<stop offset="1" stop-color="#FFD8D8"/>
</linearGradient>
<linearGradient id="paint2_linear" x1="141.915" y1="98" x2="141.915" y2="218.509" gradientUnits="userSpaceOnUse">
<stop stop-color="#FFD8D8"/>
<stop offset="0.306775" stop-color="#F9D5D5"/>
<stop offset="0.713803" stop-color="#F7B3B3"/>
<stop offset="1" stop-color="#F77474"/>
</linearGradient>
</defs>
</svg>
