<svg width="347" height="401" viewBox="0 0 347 401" fill="none" xmlns="http://www.w3.org/2000/svg">
<g clip-path="url(#clip0_64_161)">
<path d="M4.39014 104.695V296.695L173.39 396.695L342.39 296.695V104.695L173.39 4.69507L4.39014 104.695Z" fill="url(#paint0_radial_64_161)"/>
<path d="M173.39 34.1951L317.423 117.395V283.995L173.39 367.195L29.3566 283.995V117.395L173.39 34.1951ZM173.39 4.69507L4.39014 104.695V296.695L173.39 396.695L342.39 296.695V104.695L173.39 4.69507Z" fill="url(#paint1_linear_64_161)"/>
<path d="M173.39 29.5951L321.419 115.095V286.295L173.39 371.695L25.3612 286.295V115.095L173.39 29.6951M173.39 4.69507L4.39014 104.695V296.695L173.39 396.695L342.39 296.695V104.695L173.39 4.69507Z" fill="url(#paint2_linear_64_161)"/>
<path d="M173.39 15.6951L333.405 108.195V293.195L173.39 385.695L13.3751 293.195V108.195L173.39 15.6951ZM173.39 4.69507L4.39014 104.695V296.695L173.39 396.695L342.39 296.695V104.695L173.39 4.69507Z" fill="#BE1622"/>
<path d="M173.39 13.3951L335.403 106.995V294.295L173.39 387.995L11.3774 294.295V107.095L173.39 13.3951ZM173.39 0.695068L0.390137 100.695V300.695L173.39 400.695L346.39 300.695V100.695L173.39 0.695068Z" fill="#E0B568"/>
</g>
<defs>
<radialGradient id="paint0_radial_64_161" cx="0" cy="0" r="1" gradientUnits="userSpaceOnUse" gradientTransform="translate(173.39 200.695) scale(186.884 187.1)">
<stop stop-color="#EB7930"/>
<stop offset="0.3" stop-color="#E7702D"/>
<stop offset="0.8" stop-color="#DD5824"/>
<stop offset="1" stop-color="#D94F21"/>
</radialGradient>
<linearGradient id="paint1_linear_64_161" x1="173.39" y1="400.695" x2="173.39" y2="0.695072" gradientUnits="userSpaceOnUse">
<stop stop-color="#FFC44D"/>
<stop offset="0.5" stop-color="#EB7930"/>
<stop offset="0.7" stop-color="#BE1622"/>
</linearGradient>
<linearGradient id="paint2_linear_64_161" x1="173.39" y1="0.695069" x2="173.39" y2="400.695" gradientUnits="userSpaceOnUse">
<stop stop-color="#FFC44D"/>
<stop offset="0.5" stop-color="#EB7930"/>
<stop offset="0.7" stop-color="#BE1622"/>
<stop offset="1" stop-color="#EB7930"/>
</linearGradient>
<clipPath id="clip0_64_161">
<rect width="346" height="400" fill="white" transform="translate(0.390137 0.695068)"/>
</clipPath>
</defs>

<g transform="translate(52.05000000000001, 69.4) scale(1.3201086956521737)">

<path d="M25.9654 43.1656C24.8555 43.1656 23.8151 43.4422 22.9134 43.8571C22.3128 42.3434 21.2569 41.0522 19.8908 40.1607C18.5246 39.2692 16.9151 38.8212 15.2833 38.8782C10.9134 38.8782 7.3758 42.0592 7.3758 46.0009L7.44517 46.8999H7.23708C3.56078 46.8999 0.578125 49.1819 0.578125 52.0171C0.578125 54.8524 3.56078 56.1663 7.30644 56.1663C10.4972 56.1663 12.2313 55.1981 13.7573 53.0544C14.2428 53.1236 16.2544 51.8097 16.74 51.7405C18.4047 51.6022 19.792 51.3256 21.5954 50.3575C22.9134 50.9107 24.9249 50.5649 26.7284 50.5649C29.7804 50.5649 31.5145 50.0117 31.5145 47.5914C31.5145 45.171 29.0174 43.1656 25.9654 43.1656V43.1656ZM154.15 45.1019C154.897 43.0877 156.252 41.3541 158.028 40.1402C159.805 38.9264 161.916 38.2921 164.069 38.3249C169.826 38.3249 174.474 42.6124 174.474 48.0063L174.404 49.1127H174.682C179.537 49.1127 183.422 52.2246 183.422 56.028C183.422 59.8314 179.468 61.5602 174.613 61.5602C170.381 61.5602 168.092 60.3846 166.081 57.411C165.387 57.5493 162.89 55.7514 162.196 55.6822C160.115 55.5439 158.243 55.129 155.746 53.8151C151.792 52.7087 153.248 44.6178 154.081 45.1019H154.15Z" fill="#9F5B57"/>
<path d="M6.82066 47.1069C3.97674 47.1069 1.13281 48.9049 1.13281 50.7029C1.13281 52.5008 3.69928 55.1286 6.26575 53.953C10.6357 51.8784 11.26 51.671 11.26 49.873C11.26 48.0751 9.59522 47.1069 6.82066 47.1069V47.1069Z" fill="#D88E8C"/>
<path d="M15.0048 39.085C11.1898 39.085 7.92969 41.4361 7.92969 43.7182C7.92969 46.0002 11.1898 48.7663 14.7967 47.729C17.7794 46.8992 19.0279 45.6544 21.5944 43.7182C23.3285 42.3351 18.7505 39.1541 15.0048 39.1541V39.085ZM26.3805 43.2341C24.7852 43.2341 23.0511 43.3724 22.9123 44.6863C22.7736 46.5534 24.2996 46.0002 26.3805 46.0002C28.4615 46.0002 30.5424 46.8992 30.5424 45.5853C30.5424 44.3405 28.0453 43.3033 26.3805 43.2341ZM174.542 48.0748C178.08 47.729 181.895 49.9419 182.103 52.4314C182.311 54.9209 179.398 58.8626 175.999 57.5487C170.242 55.1975 169.409 54.9209 169.201 52.4314C168.993 49.9419 170.935 48.4205 174.542 48.0748V48.0748Z" fill="#D88E8C"/>
<path d="M163.167 37.9787C167.953 37.5638 172.323 40.4682 172.601 43.5109C172.878 46.6227 169.202 50.9102 164.485 49.8729C160.67 48.9739 158.936 47.5217 155.468 45.0322C153.04 43.3726 158.45 38.3936 163.167 37.9787V37.9787Z" fill="#D88E8C"/>
<path d="M67.0289 16.9563C65.9987 16.9563 65.0107 16.5483 64.2822 15.8221C63.5538 15.0959 63.1445 14.1109 63.1445 13.0838V4.92381C63.1445 2.84923 64.8786 1.05127 67.0289 1.05127H88.8093C90.9596 1.05127 92.6937 2.78008 92.6937 4.92381V13.0838C92.6937 15.1584 90.9596 16.9563 88.8093 16.9563H67.0289V16.9563Z" fill="#FCD7C3"/>
<path d="M88.8106 2.08873C90.406 2.08873 91.6546 3.40263 91.6546 4.92398V13.084C91.6546 14.6053 90.406 15.9192 88.8106 15.9192H67.0303C66.2761 15.9192 65.5527 15.6205 65.0194 15.0888C64.486 14.5571 64.1864 13.8359 64.1864 13.084V4.92398C64.1864 3.40263 65.4349 2.08873 67.0303 2.08873H88.8106ZM88.8106 0.0141602H67.0303C64.2557 0.0141602 62.1055 2.22704 62.1055 4.92398V13.084C62.1055 15.7809 64.3251 17.9938 67.0303 17.9938H88.8106C91.5852 17.9938 93.7355 15.7809 93.7355 13.084V4.92398C93.7355 2.15789 91.5158 0.0141602 88.8106 0.0141602Z" fill="#945332"/>
<path d="M97.2702 16.9563C96.7542 16.9655 96.2417 16.8721 95.7624 16.6816C95.283 16.4912 94.8466 16.2074 94.4785 15.8468C94.1105 15.4863 93.8181 15.0563 93.6186 14.5819C93.4191 14.1075 93.3163 13.5982 93.3164 13.0838V4.92381C93.3164 2.84923 95.0505 1.05127 97.2008 1.05127H118.981C121.131 1.05127 122.935 2.78008 122.935 4.92381V13.0838C122.935 15.1584 121.131 16.9563 118.981 16.9563H97.2702V16.9563Z" fill="#FCD7C3"/>
<path d="M118.983 2.08873C120.579 2.08873 121.897 3.40263 121.897 4.92398V13.084C121.897 14.6053 120.509 15.9192 118.983 15.9192H97.2725C96.5183 15.9192 95.7949 15.6205 95.2615 15.0888C94.7282 14.5571 94.4286 13.8359 94.4286 13.084V4.92398C94.4286 3.40263 95.7465 2.08873 97.2725 2.08873H119.053H118.983ZM119.053 0.0141602H97.2725C94.4979 0.0141602 92.3477 2.22704 92.3477 4.92398V13.084C92.3477 15.7809 94.5673 17.9938 97.2725 17.9938H119.053C121.827 17.9938 124.047 15.7809 124.047 13.084V4.92398C124.047 2.15789 121.827 0.0141602 119.053 0.0141602Z" fill="#945332"/>
<path d="M67.0295 50.4954C66.5135 50.4955 66.0027 50.3931 65.5269 50.1941C65.051 49.9952 64.6197 49.7038 64.258 49.3368C63.8964 48.9699 63.6118 48.5348 63.4207 48.0569C63.2296 47.5791 63.1359 47.068 63.1452 46.5537V38.4629C63.1452 36.3191 64.8792 34.5903 67.0295 34.5903H88.8099C90.9602 34.5903 92.6943 36.3191 92.6943 38.4629V46.5537C92.6943 48.6974 90.9602 50.4954 88.8099 50.4954H67.0295Z" fill="#FCD7C3"/>
<path d="M88.8106 35.6278C90.406 35.6278 91.6546 36.8725 91.6546 38.3939V46.5539C91.6546 48.1444 90.406 49.4583 88.8106 49.4583H67.0303C66.6509 49.4584 66.2754 49.3828 65.9257 49.2361C65.5761 49.0893 65.2594 48.8742 64.9944 48.6036C64.7294 48.3329 64.5214 48.0122 64.3826 47.6601C64.2439 47.3081 64.1771 46.932 64.1864 46.5539V38.4631C64.1864 36.8725 65.4349 35.6278 67.0303 35.6278H88.8106V35.6278ZM88.8106 33.5532H67.0303C64.2557 33.5532 62.1055 35.7661 62.1055 38.3939V46.5539C62.1055 49.32 64.3251 51.5329 67.0303 51.5329H88.8106C91.5852 51.5329 93.7355 49.32 93.7355 46.5539V38.4631C93.7355 35.697 91.5158 33.5532 88.8106 33.5532V33.5532Z" fill="#945332"/>
<path d="M97.2708 50.4954C96.749 50.5048 96.2306 50.4092 95.7467 50.2145C95.2628 50.0197 94.8231 49.7297 94.4541 49.3618C94.0851 48.9939 93.7942 48.5556 93.5988 48.0732C93.4035 47.5907 93.3076 47.0739 93.317 46.5537V38.4629C93.317 36.3191 95.0511 34.5903 97.2014 34.5903H118.982C121.132 34.5903 122.935 36.3191 122.935 38.4629V46.5537C122.935 48.6974 121.132 50.4954 118.982 50.4954H97.2708Z" fill="#FCD7C3"/>
<path d="M118.983 35.6278C120.579 35.6278 121.897 36.8725 121.897 38.3939V46.5539C121.897 48.1444 120.509 49.4583 118.983 49.4583H97.2725C96.8931 49.4584 96.5176 49.3828 96.1679 49.236C95.8183 49.0893 95.5016 48.8742 95.2366 48.6036C94.9716 48.3329 94.7636 48.0122 94.6248 47.6601C94.4861 47.3081 94.4193 46.932 94.4286 46.5539V38.4631C94.4286 36.8725 95.7465 35.6278 97.2725 35.6278H119.053H118.983ZM119.053 33.5532H97.2725C94.4979 33.5532 92.3477 35.7661 92.3477 38.3939V46.5539C92.3477 49.32 94.5673 51.5329 97.2725 51.5329H119.053C121.827 51.5329 124.047 49.32 124.047 46.5539V38.4631C124.047 35.697 121.827 33.5532 119.053 33.5532V33.5532Z" fill="#945332"/>
<path d="M50.1031 33.8985C49.0729 33.8985 48.0849 33.4905 47.3565 32.7642C46.628 32.038 46.2188 31.053 46.2188 30.0259V21.9351C46.2188 19.7914 48.0222 17.9934 50.1725 17.9934H71.9528C74.0337 17.9934 75.8372 19.7914 75.8372 21.9351V30.0259C75.8372 32.1697 74.1031 33.8985 71.9528 33.8985H50.1031Z" fill="#FCD7C3"/>
<path d="M71.9533 19.0309C73.4793 19.0309 74.7972 20.3448 74.7972 21.9353V30.0261C74.7972 31.6166 73.4793 32.8614 71.9533 32.8614H50.1036C49.3544 32.8622 48.6336 32.5753 48.0911 32.0602C47.5486 31.545 47.226 30.8413 47.1903 30.0953V21.9353C47.1903 20.3448 48.5082 19.0309 50.1036 19.0309H71.8839H71.9533ZM71.8839 16.9563H50.1036C47.329 16.9563 45.1094 19.1692 45.1094 21.9353V30.0261C45.1094 32.7922 47.329 34.9359 50.1036 34.9359H71.8839C74.5891 34.9359 76.8087 32.7231 76.8087 30.0953V21.9353C76.8087 19.1692 74.5891 16.9563 71.8839 16.9563Z" fill="#945332"/>
<path d="M80.6227 33.8987C79.5925 33.8987 78.6045 33.4907 77.876 32.7645C77.1475 32.0382 76.7383 31.0532 76.7383 30.0262V21.9353C76.7383 19.7916 78.4724 17.9937 80.6227 17.9937H102.403C104.553 17.9937 106.287 19.7916 106.287 21.9353V30.0262C106.287 32.1699 104.553 33.8987 102.403 33.8987H80.6227Z" fill="#FCD7C3"/>
<path d="M102.404 19.0311C104 19.0311 105.248 20.345 105.248 21.9355V30.0264C105.248 31.6169 104 32.8616 102.404 32.8616H80.6241C79.8817 32.8618 79.1686 32.5726 78.6372 32.0558C78.1059 31.5389 77.7982 30.8354 77.7801 30.0955V21.9355C77.7801 20.345 79.0287 19.0311 80.6241 19.0311H102.404ZM102.404 16.9565H80.6241C77.8495 16.9565 75.6992 19.1694 75.6992 21.9355V30.0264C75.6992 32.7925 77.9189 34.9362 80.6241 34.9362H102.404C105.179 34.9362 107.329 32.7233 107.329 30.0955V21.9355C107.329 19.1694 105.11 16.9565 102.404 16.9565Z" fill="#945332"/>
<path d="M110.935 33.8987C109.905 33.8987 108.917 33.4907 108.188 32.7645C107.46 32.0382 107.051 31.0532 107.051 30.0262V21.9353C107.051 19.7916 108.785 17.9937 110.935 17.9937H132.715C134.866 17.9937 136.669 19.7916 136.669 21.9353V30.0262C136.669 32.1699 134.866 33.8987 132.715 33.8987H110.935Z" fill="#FCD7C3"/>
<path d="M132.717 19.0311C134.312 19.0311 135.63 20.345 135.63 21.9355V30.0264C135.63 31.6169 134.312 32.8616 132.717 32.8616H110.937C110.194 32.8618 109.481 32.5726 108.95 32.0558C108.418 31.5389 108.111 30.8354 108.093 30.0955V21.9355C108.093 20.345 109.411 19.0311 110.937 19.0311H132.717ZM132.717 16.9565H110.937C108.231 16.9565 106.012 19.1694 106.012 21.9355V30.0264C106.012 32.7925 108.231 34.9362 110.937 34.9362H132.717C135.491 34.9362 137.711 32.7233 137.711 30.0955V21.9355C137.711 19.1694 135.491 16.9565 132.717 16.9565Z" fill="#945332"/>
<path d="M67.3752 15.9192H88.878C90.4734 15.9192 91.7913 14.6053 91.7913 13.0148V4.92399C91.7913 3.33348 89.9185 2.15789 89.8491 2.4345C90.6815 5.40806 90.8896 9.34975 90.2653 14.5362C90.2653 15.0894 67.3752 14.6053 67.3752 14.6053H64.6006C64.6006 15.5043 66.4734 15.9192 67.3752 15.9192V15.9192ZM97.6179 15.9192H119.121C120.716 15.9192 121.965 14.6053 121.965 13.0148V4.92399C121.965 3.33348 120.161 2.15789 120.092 2.4345C120.924 5.40806 121.132 9.34975 120.508 14.5362C120.508 15.0894 97.6179 14.6053 97.6179 14.6053H94.8434C94.8434 15.5043 96.6468 15.9192 97.6179 15.9192ZM89.8491 35.9735C90.6815 38.947 90.8896 42.8887 90.2653 48.0751C90.2653 48.6284 67.3752 48.1443 67.3752 48.1443H64.6006C64.6006 49.0433 66.4734 49.4582 67.3752 49.4582H88.878C90.4734 49.4582 91.7913 48.1443 91.7913 46.5538V38.4629C91.7913 36.8724 89.9185 35.6968 89.8491 35.9735V35.9735ZM120.161 35.9735C120.855 38.947 121.132 42.8887 120.508 48.0751C120.508 48.6284 97.6179 48.1443 97.6179 48.1443H94.8434C94.8434 49.0433 96.6468 49.4582 97.6179 49.4582H119.121C120.716 49.4582 121.965 48.1443 121.965 46.5538V38.4629C121.965 36.8724 120.161 35.6968 120.092 35.9735H120.161ZM74.7971 30.0955V22.0047C74.7971 20.4141 72.9937 19.2386 72.9243 19.446C73.7567 22.4887 73.9648 26.3613 73.3405 31.6168C73.3405 32.1701 50.4503 31.686 50.4503 31.686H47.6758C47.6758 32.585 49.4792 32.9999 50.4503 32.9307H71.9532C73.5486 32.9307 74.7971 31.686 74.7971 30.0955V30.0955ZM80.9012 31.4785H78.1266C78.1266 32.3775 79.9301 32.8616 80.8318 32.7924H102.335C103.93 32.7924 105.248 31.4785 105.248 29.9572V21.7972C105.248 20.2067 103.375 19.0311 103.306 19.3077C104.138 22.2813 104.346 26.223 103.722 31.4094C103.722 31.9626 80.8318 31.5477 80.8318 31.5477L80.9012 31.4785ZM133.618 19.3077C134.45 22.2813 134.658 26.223 134.034 31.4094C134.034 31.9626 111.144 31.5477 111.144 31.5477H108.369C108.369 32.3775 110.242 32.7924 111.144 32.7924H132.647C134.242 32.7924 135.56 31.4785 135.56 29.9572V21.7972C135.56 20.2067 133.687 19.0311 133.618 19.3077V19.3077Z" fill="#D3977D"/>

</g>
</svg>
