<svg width="347" height="401" viewBox="0 0 347 401" fill="none" xmlns="http://www.w3.org/2000/svg">
<g clip-path="url(#clip0_64_214)">
<path d="M4.41016 104.695V296.695L173.41 396.695L342.41 296.695V104.695L173.41 4.69507L4.41016 104.695Z" fill="url(#paint0_radial_64_214)"/>
<path d="M173.41 34.1951L317.443 117.395V283.995L173.41 367.195L29.3767 283.995V117.395L173.41 34.1951ZM173.41 4.69507L4.41016 104.695V296.695L173.41 396.695L342.41 296.695V104.695L173.41 4.69507Z" fill="url(#paint1_linear_64_214)"/>
<path d="M173.41 29.5951L321.439 115.095V286.295L173.41 371.695L25.3813 286.295V115.095L173.41 29.6951M173.41 4.69507L4.41016 104.695V296.695L173.41 396.695L342.41 296.695V104.695L173.41 4.69507Z" fill="url(#paint2_linear_64_214)"/>
<path d="M173.41 15.6951L333.425 108.195V293.195L173.41 385.695L13.3952 293.195V108.195L173.41 15.6951ZM173.41 4.69507L4.41016 100.695V300.695L173.41 396.695L342.41 300.695V100.695L173.41 4.69507Z" fill="#966502"/>
<path d="M173.41 13.3951L335.423 106.995V294.295L173.41 387.995L11.3975 294.295V107.095L173.41 13.3951ZM173.41 0.695068L0.410156 100.695V300.695L173.41 400.695L346.41 300.695V100.695L173.41 0.695068Z" fill="#E0B568"/>
</g>
<defs>
<radialGradient id="paint0_radial_64_214" cx="0" cy="0" r="1" gradientUnits="userSpaceOnUse" gradientTransform="translate(173.41 200.695) scale(186.884 187.1)">
<stop stop-color="#FFC640"/>
<stop offset="0.2" stop-color="#FCC337"/>
<stop offset="0.6" stop-color="#F2B91F"/>
<stop offset="1" stop-color="#E6AD00"/>
</radialGradient>
<linearGradient id="paint1_linear_64_214" x1="173.41" y1="400.695" x2="173.41" y2="0.695072" gradientUnits="userSpaceOnUse">
<stop stop-color="#FFEE99"/>
<stop offset="0.1" stop-color="#FFE482"/>
<stop offset="0.2" stop-color="#FFD765"/>
<stop offset="0.3" stop-color="#FFCD51"/>
<stop offset="0.4" stop-color="#FFC844"/>
<stop offset="0.5" stop-color="#FFC640"/>
<stop offset="0.7" stop-color="#966502"/>
</linearGradient>
<linearGradient id="paint2_linear_64_214" x1="173.41" y1="0.695069" x2="173.41" y2="400.695" gradientUnits="userSpaceOnUse">
<stop stop-color="#FFEE99"/>
<stop offset="0.1" stop-color="#FFE482"/>
<stop offset="0.2" stop-color="#FFD765"/>
<stop offset="0.3" stop-color="#FFCD51"/>
<stop offset="0.4" stop-color="#FFC844"/>
<stop offset="0.5" stop-color="#FFC640"/>
<stop offset="0.7" stop-color="#966502"/>
<stop offset="1" stop-color="#FFC640"/>
</linearGradient>
<radialGradient id="paint3_radial_64_214" cx="0" cy="0" r="1" gradientUnits="userSpaceOnUse" gradientTransform="translate(143.744 149.495) scale(17.9792 18)">
<stop stop-color="#F2C024"/>
<stop offset="1" stop-color="#F2C024"/>
</radialGradient>
<radialGradient id="paint4_radial_64_214" cx="0" cy="0" r="1" gradientUnits="userSpaceOnUse" gradientTransform="translate(195.085 146.695) scale(21.6749 21.7)">
<stop stop-color="#F2C024"/>
<stop offset="1" stop-color="#F2C024"/>
</radialGradient>
<radialGradient id="paint5_radial_64_214" cx="0" cy="0" r="1" gradientUnits="userSpaceOnUse" gradientTransform="translate(156.829 135.495) scale(12.5854 12.6)">
<stop stop-color="#F2C024"/>
<stop offset="1" stop-color="#F2C024"/>
</radialGradient>
<radialGradient id="paint6_radial_64_214" cx="0" cy="0" r="1" gradientUnits="userSpaceOnUse" gradientTransform="translate(149.637 115.195) scale(10.6876 10.7)">
<stop stop-color="#F2C024"/>
<stop offset="1" stop-color="#F2C024"/>
</radialGradient>
<radialGradient id="paint7_radial_64_214" cx="0" cy="0" r="1" gradientUnits="userSpaceOnUse" gradientTransform="translate(152.934 101.795) scale(9.58891 9.6)">
<stop stop-color="#F2C024"/>
<stop offset="1" stop-color="#F2C024"/>
</radialGradient>
<radialGradient id="paint8_radial_64_214" cx="0" cy="0" r="1" gradientUnits="userSpaceOnUse" gradientTransform="translate(157.428 90.795) scale(7.89087 7.9)">
<stop stop-color="#F2C024"/>
<stop offset="1" stop-color="#F2C024"/>
</radialGradient>
<radialGradient id="paint9_radial_64_214" cx="0" cy="0" r="1" gradientUnits="userSpaceOnUse" gradientTransform="translate(163.322 80.195) scale(6.29273 6.3)">
<stop stop-color="#F2C024"/>
<stop offset="1" stop-color="#F2C024"/>
</radialGradient>
<radialGradient id="paint10_radial_64_214" cx="0" cy="0" r="1" gradientUnits="userSpaceOnUse" gradientTransform="translate(170.014 72.5952) scale(6.59238 6.6)">
<stop stop-color="#F2C024"/>
<stop offset="1" stop-color="#F2C024"/>
</radialGradient>
<radialGradient id="paint11_radial_64_214" cx="0" cy="0" r="1" gradientUnits="userSpaceOnUse" gradientTransform="translate(176.606 67.9951) scale(4.29504 4.3)">
<stop stop-color="#F2C024"/>
<stop offset="1" stop-color="#F2C024"/>
</radialGradient>
<radialGradient id="paint12_radial_64_214" cx="0" cy="0" r="1" gradientUnits="userSpaceOnUse" gradientTransform="translate(166.917 129.395) scale(7.59123 7.6)">
<stop stop-color="#F2C024"/>
<stop offset="1" stop-color="#F2C024"/>
</radialGradient>
<radialGradient id="paint13_radial_64_214" cx="0" cy="0" r="1" gradientUnits="userSpaceOnUse" gradientTransform="translate(165.819 115.395) scale(6.99192 7)">
<stop stop-color="#F2C024"/>
<stop offset="1" stop-color="#F2C024"/>
</radialGradient>
<radialGradient id="paint14_radial_64_214" cx="0" cy="0" r="1" gradientUnits="userSpaceOnUse" gradientTransform="translate(167.117 100.695) scale(6.99192 7)">
<stop stop-color="#F2C024"/>
<stop offset="1" stop-color="#F2C024"/>
</radialGradient>
<radialGradient id="paint15_radial_64_214" cx="0" cy="0" r="1" gradientUnits="userSpaceOnUse" gradientTransform="translate(171.113 87.095) scale(6.99191 7)">
<stop stop-color="#F2C024"/>
<stop offset="1" stop-color="#F2C024"/>
</radialGradient>
<radialGradient id="paint16_radial_64_214" cx="0" cy="0" r="1" gradientUnits="userSpaceOnUse" gradientTransform="translate(177.905 74.195) scale(5.29388 5.3)">
<stop stop-color="#F2C024"/>
<stop offset="1" stop-color="#F2C024"/>
</radialGradient>
<radialGradient id="paint17_radial_64_214" cx="0" cy="0" r="1" gradientUnits="userSpaceOnUse" gradientTransform="translate(182.2 127.495) scale(6.89203 6.9)">
<stop stop-color="#F2C024"/>
<stop offset="1" stop-color="#F2C024"/>
</radialGradient>
<radialGradient id="paint18_radial_64_214" cx="0" cy="0" r="1" gradientUnits="userSpaceOnUse" gradientTransform="translate(178.704 113.395) scale(7.79101 7.8)">
<stop stop-color="#F2C024"/>
<stop offset="1" stop-color="#F2C024"/>
</radialGradient>
<radialGradient id="paint19_radial_64_214" cx="0" cy="0" r="1" gradientUnits="userSpaceOnUse" gradientTransform="translate(187.394 107.395) scale(7.09181 7.1)">
<stop stop-color="#F2C024"/>
<stop offset="1" stop-color="#F2C024"/>
</radialGradient>
<radialGradient id="paint20_radial_64_214" cx="0" cy="0" r="1" gradientUnits="userSpaceOnUse" gradientTransform="translate(192.388 104.395) scale(3.09642 3.1)">
<stop stop-color="#F2C024"/>
<stop offset="1" stop-color="#F2C024"/>
</radialGradient>
<radialGradient id="paint21_radial_64_214" cx="0" cy="0" r="1" gradientUnits="userSpaceOnUse" gradientTransform="translate(198.381 106.095) scale(5.29388 5.3)">
<stop stop-color="#F2C024"/>
<stop offset="1" stop-color="#F2C024"/>
</radialGradient>
<radialGradient id="paint22_radial_64_214" cx="0" cy="0" r="1" gradientUnits="userSpaceOnUse" gradientTransform="translate(170.713 130.595) scale(13.8839 13.9)">
<stop stop-color="#F2C024"/>
<stop offset="1" stop-color="#F2C024"/>
</radialGradient>
<radialGradient id="paint23_radial_64_214" cx="0" cy="0" r="1" gradientUnits="userSpaceOnUse" gradientTransform="translate(206.871 97.995) scale(5.89318 5.9)">
<stop stop-color="#F2C024"/>
<stop offset="1" stop-color="#F2C024"/>
</radialGradient>
<radialGradient id="paint24_radial_64_214" cx="0" cy="0" r="1" gradientUnits="userSpaceOnUse" gradientTransform="translate(202.876 93.3952) scale(5.39376 5.4)">
<stop stop-color="#F2C024"/>
<stop offset="1" stop-color="#F2C024"/>
</radialGradient>
<radialGradient id="paint25_radial_64_214" cx="0" cy="0" r="1" gradientUnits="userSpaceOnUse" gradientTransform="translate(207.171 92.8952) scale(1.09873 1.1)">
<stop stop-color="#F2C024"/>
<stop offset="1" stop-color="#F2C024"/>
</radialGradient>
<radialGradient id="paint26_radial_64_214" cx="0" cy="0" r="1" gradientUnits="userSpaceOnUse" gradientTransform="translate(195.185 101.395) scale(6.49249 6.5)">
<stop stop-color="#F2C024"/>
<stop offset="1" stop-color="#F2C024"/>
</radialGradient>
<radialGradient id="paint27_radial_64_214" cx="0" cy="0" r="1" gradientUnits="userSpaceOnUse" gradientTransform="translate(189.791 115.995) scale(6.39261 6.4)">
<stop stop-color="#F2C024"/>
<stop offset="1" stop-color="#F2C024"/>
</radialGradient>
<radialGradient id="paint28_radial_64_214" cx="0" cy="0" r="1" gradientUnits="userSpaceOnUse" gradientTransform="translate(210.467 91.2951) scale(4.59469 4.6)">
<stop stop-color="#F2C024"/>
<stop offset="1" stop-color="#F2C024"/>
</radialGradient>
<clipPath id="clip0_64_214">
<rect width="346" height="400" fill="white" transform="translate(0.410156 0.695068)"/>
</clipPath>
</defs>

<g transform="translate(52.05000000000001, 69.4) scale(1.388)">

<path d="M15.1542 56.8575C15.1542 56.8575 11.6859 54.4372 9.39688 53.8839C6.9463 53.2851 4.42807 53.0061 1.90539 53.0541C1.41983 53.3307 9.60498 60.4534 11.0617 63.9802C13.1426 67.4378 14.3218 72.6243 15.5011 73.869C16.6803 75.1138 16.819 75.0446 18.345 74.9063C19.9405 74.768 20.8422 73.1083 20.8422 73.1083V67.4378C20.8422 67.4378 20.3566 63.7036 19.2468 61.6982C18.1369 59.6236 15.0849 56.8575 15.0849 56.8575H15.1542ZM35.1315 55.6819C34.7847 55.4053 31.5245 55.8894 29.8597 56.3734C28.2643 56.7883 25.8365 58.8629 25.8365 58.8629C25.8365 58.8629 23.7556 61.1449 22.9232 62.8738C22.0908 64.6026 21.8133 67.6453 21.8133 67.6453V72.3477C21.8133 72.3477 22.507 73.7307 23.6168 73.869C24.7267 74.0073 24.7267 74.0073 25.6284 72.97C26.4608 71.9327 27.2238 67.6453 28.6805 64.7409C29.721 61.8365 35.4784 55.8894 35.1315 55.6819V55.6819ZM32.9812 67.7144C32.9812 67.7144 31.5245 67.8527 30.9002 68.3368C30.2066 68.8209 29.1661 69.8582 29.1661 69.8582L28.4724 71.4487C28.4724 71.4487 28.4724 72.97 28.8886 73.2466C29.3048 73.5232 29.9985 73.2466 30.5534 73.1083C31.039 72.8317 31.9407 71.3795 33.1199 70.5497C34.091 69.6507 37.9755 68.9592 37.9755 68.8209C37.8368 68.6134 35.8945 67.7144 35.2009 67.5761C34.3685 67.4378 32.9812 67.7144 32.9812 67.7144ZM10.5067 69.1666C9.67434 68.1985 7.87084 67.0921 7.87084 67.0921C7.87084 67.0921 5.85924 66.1239 4.61065 65.9856C3.29271 65.9856 0.795546 65.9856 0.587449 66.1931C0.309987 66.4005 5.23495 69.2358 6.27543 70.8954C7.66274 72.486 8.63386 74.9754 9.39688 75.5287C10.1599 76.0819 10.0905 76.0127 10.9923 75.8053C11.8247 75.5978 12.1715 74.6988 12.1715 74.6988L11.7553 71.8636C11.7553 71.8636 11.2004 70.0656 10.4374 69.0975L10.5067 69.1666Z" fill="#CC9127"/>
<path d="M151.388 49.6657C151.388 49.6657 147.99 47.1762 145.7 46.6922C143.411 46.2081 138.695 45.5166 138.209 45.8623C137.723 46.1389 145.909 53.1925 147.365 56.7193C149.446 60.246 150.556 65.3633 151.805 66.6081C152.984 67.8528 153.123 67.8528 154.579 67.7145C156.175 67.5762 157.146 65.9165 157.146 65.9165V60.1769C157.146 60.1769 156.66 56.5118 155.55 54.5064C154.371 52.4318 151.388 49.6657 151.388 49.6657V49.6657ZM171.435 48.421C171.088 48.2135 167.828 48.6976 166.163 49.1125C164.499 49.5274 162.14 51.602 162.14 51.602C162.14 51.602 160.059 53.9532 159.227 55.6128C158.464 57.3416 158.117 60.4535 158.117 60.4535V65.1559C158.117 65.1559 158.811 66.5389 159.851 66.6772C160.961 66.6772 161.03 66.8155 161.932 65.7782C162.695 64.741 163.527 60.4535 164.984 57.48C166.025 54.5755 171.782 48.6976 171.435 48.4901V48.421ZM171.435 60.3844C170.672 60.1769 169.285 60.5227 169.285 60.5227C169.285 60.5227 167.828 60.661 167.204 61.145C166.51 61.6291 165.4 62.6664 165.4 62.6664L164.707 64.1877C164.707 64.1877 164.707 65.7091 165.123 65.9857C165.608 66.2623 166.233 66.124 166.788 65.8474C167.343 65.6399 168.175 64.1877 169.354 63.3579C170.325 62.3898 174.349 61.7674 174.21 61.6291C174.071 61.4908 172.198 60.5227 171.435 60.3844V60.3844ZM146.741 61.9057C146.047 61.0067 144.174 59.8311 144.174 59.8311C144.174 59.8311 142.163 58.863 140.914 58.7938C139.666 58.7247 137.099 58.7938 136.822 59.0013C136.544 59.2088 141.539 62.044 142.51 63.7037C143.897 65.2942 144.937 67.7837 145.631 68.2677C146.325 68.8209 146.464 68.7518 147.227 68.6135C147.99 68.4752 148.475 67.5071 148.475 67.5071L148.059 64.6718C148.059 64.6718 147.504 62.8047 146.741 61.9057V61.9057Z" fill="#CC9127"/>
<path d="M16.2613 58.1019L13.2092 55.6124L9.2554 53.5378L6.6195 52.9846H3.91424L2.11074 53.1229L5.16282 55.0592L7.0357 56.2348C6.75823 56.2348 10.3652 59.3466 12.3075 61.0754L14.1804 63.4958L15.8451 64.6022C15.8451 64.6022 17.4405 65.7778 17.9955 65.2937C18.6198 64.948 18.5504 64.1181 18.5504 64.1181C18.5504 64.1181 18.8972 63.4266 18.2729 61.4903C17.5793 59.6924 16.192 58.1019 16.192 58.1019H16.2613ZM33.1865 56.7188L34.7819 55.8198L31.8686 56.0273C31.8686 56.0273 29.094 56.7188 28.8859 56.8571L26.25 58.7242L24.169 61.0754C23.8915 61.5595 23.0592 62.3893 23.0592 62.5968L22.8511 63.4266C22.8511 63.4266 22.5042 64.1873 23.5447 64.2564C24.6546 64.3256 25.9725 62.5968 25.9725 62.5968L27.776 60.6605L29.5795 59.2775L31.6605 57.8944L33.1865 56.788V56.7188ZM8.42301 67.5066C8.21491 67.2991 6.89697 66.7459 6.6195 66.5385C6.41141 66.4002 4.33044 66.1236 3.84488 66.0544C3.35932 65.9852 1.41708 66.1927 1.20898 66.2619L2.8044 66.7459L3.56742 67.0917L6.34204 68.5439L8.35364 70.0652C8.35364 70.0652 9.60222 70.5493 10.1571 70.4802C10.6427 70.3418 10.2959 68.9588 10.1571 68.7513L8.49237 67.5066H8.42301ZM34.227 67.1608L32.0073 67.6449C32.0073 67.6449 31.3137 67.8524 30.9668 68.6822C30.62 69.512 30.9668 69.512 30.9668 69.512L31.2443 69.3046L32.6316 68.1981L34.3658 67.8524H36.308L37.4178 68.129L36.7242 67.6449L34.227 67.1608ZM152.287 50.8409L149.235 48.4205L145.212 46.3459L142.645 45.7927H139.871L138.067 45.931L141.119 47.8673L142.992 49.0429C142.715 49.0429 146.322 52.1547 148.264 53.8836L150.137 56.3039L151.871 57.4103C151.871 57.4103 153.397 58.5859 153.952 58.1019C154.507 57.6178 154.507 56.9954 154.507 56.9954C154.507 56.9954 154.923 56.1656 154.23 54.3676C153.536 52.5697 152.149 50.91 152.149 50.91L152.287 50.8409ZM169.212 49.527L170.808 48.5588L167.895 48.7663C167.895 48.7663 165.12 49.4578 164.912 49.5961L162.345 51.4632C162.345 51.4632 160.542 53.3303 160.264 53.8144C159.987 54.2985 159.085 55.1975 159.085 55.3358L158.877 56.2348C158.877 56.2348 158.6 56.9263 159.64 57.0646C160.75 57.0646 161.998 55.3358 161.998 55.3358L163.871 53.3995L165.605 52.0164L167.686 50.6334L169.212 49.527V49.527ZM144.518 60.2456C144.31 60.1073 142.923 59.5541 142.715 59.3466C142.437 59.1392 140.356 58.8625 139.94 58.7934L137.235 59.0008L138.83 59.4849L139.593 59.8998L142.368 61.2829L144.449 62.8734C144.449 62.8734 145.628 63.3574 146.183 63.2191C146.738 63.0808 146.391 61.6978 146.183 61.4903L144.518 60.2456V60.2456ZM172.82 60.3839L170.322 59.8998L168.103 60.3839C168.103 60.3839 167.34 60.5914 166.993 61.4212C166.715 62.251 166.993 62.251 166.993 62.251L167.34 62.0436L168.727 60.9371L170.392 60.6605H172.334L173.444 60.868L172.75 60.3839H172.82Z" fill="#E3C33B"/>
<path d="M86.1845 72.4859L85.0747 72.2784C84.4809 72.0302 83.9701 71.6189 83.6017 71.0925C83.2333 70.5661 83.0224 69.9461 82.9937 69.3049C82.9243 68.2676 83.2018 67.2995 83.5486 66.4005C83.7567 65.9164 83.9648 65.294 84.381 64.7408C86.6007 60.9374 90.1384 57.9639 93.6066 55.3361C96.0344 53.5381 97.9073 52.2242 99.8495 51.1178C102.485 49.5273 114.416 46.5537 116.567 46.5537C117.191 46.5537 117.607 46.7612 117.815 47.1761C118.44 48.3517 117.815 48.6974 111.642 52.0168C107.827 54.0913 103.04 56.7883 101.167 58.3788C98.7767 60.5634 96.551 62.921 94.5084 65.4324C93.1211 67.092 91.595 68.89 89.9996 70.4805C89.4394 71.0894 88.7834 71.6032 88.0574 72.0018C87.4799 72.3076 86.8383 72.4735 86.1845 72.4859V72.4859ZM77.4444 71.4486C76.7508 71.4486 76.0571 71.172 75.6409 70.9645C73.9297 70.0223 72.4025 68.7808 71.1322 67.2995L70.9241 67.092C68.0107 64.1184 64.9586 61.2832 61.7678 58.6554C60.1501 57.2772 58.4086 56.0503 56.5654 54.9903C55.5943 54.4371 53.652 54.2988 52.3341 54.1605C50.7387 54.0222 49.6288 53.8839 49.7676 52.7774C49.7676 51.9476 50.1838 51.3944 54.1376 51.3944C55.3862 51.3944 57.7446 51.4635 59.4094 52.0859C63.2888 53.4208 66.9212 55.3833 70.1611 57.8947C72.3808 59.4852 74.323 61.3523 76.1959 63.2195L77.5832 64.6025C78.4849 65.5015 80.2884 67.2303 79.8722 69.4432C79.7335 70.0656 79.456 70.5496 79.0399 70.8954C78.6237 71.2412 78.0687 71.4486 77.4444 71.4486ZM81.9532 61.7673H81.4676L81.3983 61.629H80.5659C79.7335 61.4215 79.0399 60.4534 77.8606 58.8629C77.5064 58.367 77.1363 57.8827 76.7508 57.4107C76.0571 56.5808 75.5022 55.8893 74.7392 55.1978C73.8202 54.3732 72.8469 53.6109 71.8258 52.9157L69.4674 51.0486C67.109 49.1124 65.8604 46.8995 65.791 44.8249C65.791 43.511 66.2766 42.4737 67.1783 42.0588C67.5252 41.9205 67.872 41.7822 68.2882 41.7822C68.7044 41.7822 69.1899 41.9205 69.6755 42.128C70.3691 42.3354 71.0628 42.6812 71.5484 43.0961C70.9241 42.4737 70.161 41.9897 69.398 41.5747L68.5656 41.1598L67.1783 40.4683C66.4847 40.0534 65.791 39.5693 65.3748 39.0853C64.7505 38.6012 63.9875 37.8405 63.4326 37.0107C62.6002 35.7659 62.1146 34.2446 62.184 32.7232C62.184 31.3402 62.6696 30.372 63.5019 29.6805C64.1262 29.1965 64.8893 28.989 65.7217 28.989C66.6928 28.989 67.5945 29.2656 68.1495 29.5422C70.2304 30.4412 72.0339 32.17 73.6987 34.7978C74.1843 35.4893 74.4617 36.1808 74.7392 36.8032C75.5895 39.3638 75.8271 42.0873 75.4328 44.7558L75.2941 46.692L74.6004 46.208C75.0971 46.9711 75.56 47.7556 75.9878 48.5591L76.4733 50.0113L76.5427 50.4263C76.7508 51.1178 77.0976 51.9476 77.5832 52.8466L77.7219 52.4317C77.8606 52.0859 77.6525 51.5327 77.4444 51.0486V50.9103C76.9589 49.6656 76.6121 48.3517 76.4733 47.1069C76.3113 45.8924 76.4543 44.6568 76.8895 43.511L75.7103 42.3354L75.849 41.7822C75.849 41.229 75.849 40.5375 75.7103 39.9151L75.6409 39.0853C75.5211 38.0669 75.5917 37.0353 75.849 36.0425L75.086 36.6649L74.6004 35.1436C74.1149 33.6222 73.1438 32.2392 71.7565 31.3402C71.2709 30.9944 70.716 30.6487 70.0917 30.372C68.7044 29.6805 67.3171 28.9198 66.4847 27.6059C66.0501 26.9049 65.7447 26.1321 65.5829 25.3239C65.3748 24.4941 65.2361 23.3876 65.6523 22.3504C65.9761 21.7128 66.4902 21.191 67.1237 20.8567C67.7572 20.5223 68.479 20.3919 69.1899 20.4832C70.1611 20.5524 70.9241 21.0365 71.6177 21.5897C70.4331 20.3897 69.7617 18.7783 69.7449 17.0948C69.8142 16.0575 70.2304 15.0893 70.9934 14.5361C71.479 14.1904 72.1033 13.9829 72.8663 13.9829C73.4212 13.9829 74.1149 14.1212 74.6698 14.3978C75.6409 14.951 76.3346 15.9192 76.7508 16.6107C77.7219 18.1321 78.3462 19.5151 78.6237 20.8982C78.693 21.5897 78.7624 22.2812 78.693 22.9036L80.5659 18.547L80.4965 18.6161L78.4156 19.3076V17.8554C78.4156 17.3714 78.2075 16.8182 77.7219 16.2649L77.0282 15.4351C76.6814 15.0893 76.3346 14.7436 76.0571 14.2595C75.5022 13.4988 75.086 12.669 74.8779 11.7009C74.5311 10.1795 74.9473 9.28053 75.4328 8.79647C75.7044 8.50005 76.0373 8.2661 76.4087 8.11086C76.78 7.95562 77.1808 7.88281 77.5832 7.89749C78.2768 7.89749 78.9705 8.10494 79.5254 8.45071C80.4272 9.00393 81.0515 9.90291 81.4676 11.286V11.3551C81.3033 10.4403 81.0715 9.5389 80.774 8.65816C80.3578 7.27512 79.9416 5.47715 80.7046 3.81749C81.0515 3.05681 81.4676 2.50359 82.0919 2.15783C82.4388 2.01953 82.855 1.88122 83.2711 1.88122C83.8261 1.88122 84.3116 2.08868 84.6585 2.43444C85.144 2.7802 85.3521 3.26427 85.3521 3.54088C85.4908 3.74834 85.4909 3.9558 85.5602 4.23241L85.9764 2.84936C86.1845 2.43444 86.3926 1.95038 86.8782 1.53546C87.2661 1.21124 87.7594 1.03914 88.2655 1.05139C88.5429 1.05139 88.8204 1.12055 89.0979 1.328C89.5141 1.53546 89.9996 2.01953 90.069 3.12597C90.069 4.02495 89.9303 4.92393 89.5834 5.75376C89.9303 5.54631 90.2771 5.47715 90.6933 5.47715C91.0401 5.47715 91.3869 5.54631 91.6644 5.75376C92.2887 6.09953 92.7049 6.79105 92.7049 7.62088C92.7049 8.86562 92.0112 10.0412 90.832 10.9402C89.9303 11.6317 88.751 12.0466 87.7799 12.4616L86.1845 13.0148C86.6433 13.1162 87.0766 13.3094 87.4582 13.5828C87.8397 13.8562 88.1616 14.2041 88.4042 14.6053C89.0979 15.7117 89.0285 17.1639 88.4042 18.4087C87.9187 19.3076 87.0863 20.0683 85.9764 20.8982C85.2135 21.4357 84.4005 21.8989 83.5486 22.2812C83.8842 22.3499 84.2008 22.4906 84.4763 22.6936C84.7519 22.8966 84.9797 23.1571 85.144 23.4568C86.2539 25.1165 86.0458 27.4676 84.5891 29.1964C83.3611 30.5672 81.7766 31.5724 80.011 32.1009H80.5659C81.9532 32.1009 83.2018 32.7232 83.8954 33.6914C84.2423 34.1754 84.381 34.7286 84.5197 35.2819C85.1882 35.554 85.7655 36.0096 86.1845 36.5958C85.7683 34.1063 86.1845 31.7551 87.2944 30.0954C87.7799 29.4039 88.3348 29.0581 89.0285 28.989H89.1672C89.6528 28.989 90.1384 29.1965 90.6239 29.6805C91.0401 30.0263 91.3176 30.5103 91.595 30.9944C91.6644 29.8188 91.9419 28.5741 92.7049 27.5368C93.0891 26.9554 93.6139 26.4798 94.2309 26.1537C94.6471 25.8771 95.202 25.7388 95.6182 25.7388C96.0344 25.7388 96.3119 25.808 96.5894 25.9463C97.2834 26.1793 97.8569 26.6765 98.1848 27.3293L98.3235 25.2548C98.3235 24.6324 98.4622 23.8717 98.8091 23.2493C98.9801 22.8674 99.2503 22.5379 99.5917 22.2948C99.9331 22.0517 100.333 21.9038 100.751 21.8663H100.821C101.653 21.8663 102.416 22.4195 102.902 23.2493L103.179 23.8026C103.595 22.0046 104.428 20.2758 105.538 18.7544C105.676 18.4778 106.231 17.7171 107.202 17.7171C108.035 17.7171 108.659 18.2704 108.867 19.031C109.006 19.5843 108.867 20.0683 108.867 20.4141L109.006 20.2066C109.977 19.1693 111.087 18.1321 112.752 17.9937H113.029C113.376 17.9937 113.584 17.9937 113.861 18.1321C114.416 18.4087 114.833 18.9619 114.971 19.6534C115.11 20.6907 114.416 21.728 113.306 22.2812C112.752 22.5578 112.197 22.6961 111.711 22.8344C112.752 22.9036 113.861 23.5259 114.069 24.7015C114.278 25.6697 113.584 26.6378 112.405 27.2602C111.434 27.7442 110.324 27.9517 109.353 28.09L106.231 28.5741C106.545 28.7204 106.817 28.9425 107.023 29.2202C107.229 29.498 107.362 29.8226 107.41 30.1646C107.48 30.787 107.41 31.6859 106.162 32.5849C104.571 33.7953 102.613 34.4294 100.613 34.3829H99.7108C100.127 34.452 100.474 34.5903 100.821 34.7978C101.861 35.4893 102.416 36.8032 102.208 38.048C102.055 38.5935 101.791 39.1019 101.433 39.542C101.075 39.982 100.631 40.3443 100.127 40.6066C99.2946 41.229 98.2541 41.5056 97.4217 41.6439L95.3408 42.0588C96.0344 42.5429 96.7281 43.3036 96.8668 44.1334C97.0749 45.2398 96.7281 46.4154 95.8957 47.3836C95.1327 48.2134 94.0922 48.7666 93.3985 49.1124C91.4872 50.0565 89.4181 50.6426 87.2944 50.8412L85.907 50.9103L86.1151 49.9422L85.6989 50.772L85.0053 52.0859L84.4504 53.8839C84.1035 55.0595 83.7567 56.7883 83.618 58.1713C83.1324 61.0757 82.9243 61.7673 81.9532 61.7673V61.7673ZM77.93 53.3307C78.9727 54.998 79.9902 56.6809 80.9821 58.3788C81.1877 56.2147 81.5353 54.0664 82.0226 51.9476C81.2596 52.6391 80.3578 53.1924 79.456 53.7456L78.7624 54.1605L77.93 53.3307V53.3307ZM87.6412 43.9951C87.5025 45.1707 87.4331 46.3463 87.0863 47.4527C87.8957 45.7696 88.9733 44.2283 90.2771 42.8886C90.5545 42.612 90.9707 42.2663 91.4563 41.9897H90.9707L92.4968 39.9151L93.3292 38.3937L91.9419 38.2554V38.048C92.0806 37.3564 92.0806 36.8032 92.0112 36.1117C92.0112 37.0107 91.8725 37.9788 91.6644 38.8778C91.2482 40.6758 90.4852 42.1971 89.3753 43.3727L89.1672 43.5802L87.6412 43.9951V43.9951ZM97.7686 33.2073L97.4911 33.7605C97.0749 34.452 96.5893 35.0053 96.1038 35.4893C96.52 35.2127 97.0056 34.867 97.6298 34.6595L97.7686 33.2073V33.2073ZM98.1848 34.452L98.6703 34.3829L98.3929 34.0371L98.1848 34.452V34.452ZM76.8202 34.1063C77.0976 33.6914 77.5138 33.4148 77.8606 33.069C77.3057 33.069 76.7508 32.7924 76.4733 32.3083L76.8202 34.1063ZM99.9883 31.1327L100.474 30.7178C101.624 29.9565 102.804 29.2414 104.011 28.5741L103.179 27.5368L102.624 27.8826V27.5368C102.277 28.2283 101.722 28.9198 101.237 29.4731L99.9883 31.0636V31.1327ZM72.7276 22.627C73.6293 23.5951 74.2536 24.4941 74.6698 25.3931C75.1554 26.4303 75.3635 27.4676 75.5716 28.5049L76.1959 31.0636V30.787C76.404 29.6805 76.612 28.6432 77.0282 27.6059L76.6121 28.2283L75.9878 25.7388C75.7797 24.909 74.8779 24.2175 73.9068 23.5259L73.2131 23.0419L72.7276 22.627V22.627ZM78.693 23.5951C78.693 24.01 78.5543 24.4249 78.4156 24.7707C78.8164 24.2521 79.2827 23.7872 79.8029 23.3876L78.693 23.5951ZM82.0226 13.2914C82.0919 14.1212 82.0226 15.0202 81.8838 15.7809C82.1337 15.3483 82.4118 14.9324 82.7162 14.5361L82.0226 13.2914ZM84.381 11.5626L83.8261 13.0839L83.618 13.6371C84.0194 13.301 84.4947 13.064 85.0053 12.9456L84.3116 12.5307V11.9775V11.5626H84.381ZM85.2828 8.38155L84.8666 10.0412L85.4215 9.21139L85.2828 8.38155V8.38155Z" fill="#976014"/>
<path d="M88.2646 2.08873C88.4034 2.08873 88.5421 2.08874 88.6808 2.22704C89.0276 2.36535 89.097 2.78026 89.097 3.19517C89.1222 4.11916 88.8815 5.03103 88.4034 5.82297C87.9337 6.67244 87.2048 7.35066 86.3224 7.75924L86.253 7.20602C86.253 5.82297 86.5305 4.50907 87.016 3.26432C87.1548 2.91856 87.2935 2.5728 87.571 2.36535C87.7791 2.22704 88.0565 2.08873 88.2646 2.08873V2.08873ZM83.3397 2.91856C83.6171 2.91856 83.8946 2.98772 84.0333 3.19517C84.3108 3.40263 84.3802 3.61009 84.4495 3.8867C84.8657 5.13144 84.6576 6.44534 84.4495 7.69008C84.0333 9.4189 83.4784 11.0786 82.8541 12.6691L82.7847 12.5308C82.7847 11.1477 82.2298 9.76466 81.8136 8.38161C81.3974 6.99856 81.12 5.54636 81.7443 4.23246C81.883 3.74839 82.2298 3.33348 82.646 3.12602C82.8541 2.98772 83.1316 2.91856 83.3397 2.91856V2.91856ZM90.7618 6.51449C90.9005 6.51449 91.0392 6.51449 91.178 6.6528C91.5942 6.86025 91.7329 7.27517 91.7329 7.69008C91.7329 8.65822 91.1086 9.5572 90.3456 10.1104C89.5132 10.8019 88.4727 11.0786 87.5016 11.4935L85.6287 12.185L85.4206 11.9775C85.4206 11.0786 85.8368 10.1104 86.6692 9.48805C87.0854 9.21144 87.571 9.00398 87.9872 8.65822C88.4727 8.38161 88.8195 7.9667 89.1664 7.48263L90.0681 6.72195C90.2768 6.59279 90.5162 6.5212 90.7618 6.51449V6.51449ZM77.6517 9.00398C78.1372 9.00398 78.6228 9.14229 79.039 9.34975C79.8056 9.93348 80.3451 10.7646 80.565 11.7009C81.2587 13.7755 81.2587 16.0575 79.8714 17.7863L79.5939 17.9247C79.5939 17.0948 79.1777 16.3341 78.6228 15.6426C78.0679 14.9511 77.4436 14.3979 76.958 13.7064C76.4725 13.0148 76.1256 12.3233 75.9869 11.5626C75.7788 10.8711 75.7788 10.1104 76.2644 9.48805C76.6112 9.14229 77.0968 9.00398 77.6517 9.00398V9.00398ZM85.5594 14.0521C86.3917 14.0521 87.1548 14.5362 87.6403 15.2277C88.0565 16.0575 87.9872 17.0948 87.5016 17.9938C87.016 18.8928 86.253 19.5152 85.4206 20.0684C83.8414 21.1858 82.046 21.963 80.1488 22.3504L81.6055 18.8928C82.0911 17.7172 82.646 16.5416 83.409 15.4352C83.7559 14.8819 84.2414 14.3287 84.9351 14.1213L85.5594 14.0521ZM72.9348 15.0202C73.3961 15.0245 73.8491 15.1433 74.2528 15.366C74.9464 15.7809 75.5707 16.4725 75.9869 17.164C76.7937 18.3574 77.3592 19.6963 77.6517 21.1057C77.8598 22.4887 77.7904 23.9409 77.0968 25.2548L77.0274 25.4623C76.6112 24.0792 75.0852 23.1802 73.9059 22.2121C72.2412 20.9674 70.8539 19.1694 70.9232 17.164C70.9232 16.4725 71.1313 15.7809 71.6169 15.366C72.0331 15.0894 72.4493 15.0202 72.9348 15.0202ZM107.271 18.7545C107.618 18.7545 107.895 19.0311 107.964 19.3077V20.2067C107.756 20.8982 107.548 21.728 107.132 22.4196C106.438 23.6643 105.259 24.6324 104.149 25.5314L103.941 25.6697C104.219 23.3877 105.051 21.244 106.438 19.3077C106.647 19.0311 106.924 18.7545 107.271 18.7545V18.7545ZM113.097 19.0311H113.514C113.791 19.2385 113.93 19.5152 113.999 19.7226C113.999 20.4141 113.514 21.0365 112.889 21.3823C112.265 21.6589 111.502 21.7972 110.808 21.9355L108.727 22.6962C108.866 22.0047 109.421 21.4514 109.837 20.9674C110.67 20.0684 111.641 19.1694 112.959 19.0311H113.097V19.0311ZM68.9116 21.4514H69.1891C70.1602 21.5897 70.9926 22.2813 71.6862 23.0419C72.4493 23.8718 73.2123 24.8399 73.7672 25.808L74.5996 28.7124L75.9175 34.6596L75.7094 34.7979C75.1125 33.0373 73.94 31.5276 72.3799 30.5104C70.7151 29.3348 68.4954 28.6433 67.3856 27.0528C67.0388 26.3613 66.8307 25.7389 66.6919 25.0474C66.4838 24.3558 66.3451 23.526 66.6919 22.7653C66.9005 22.3604 67.2195 22.0223 67.6121 21.7899C68.0047 21.5575 68.4551 21.4402 68.9116 21.4514V21.4514ZM108.727 22.6962V22.8345V22.6962ZM100.889 22.9728C101.375 22.9728 101.86 23.3185 102.068 23.7335C102.554 24.5633 102.415 25.6006 102.068 26.4996C101.652 27.3294 101.028 28.0901 100.404 28.7816C99.8728 29.4004 99.4078 30.0724 99.0163 30.787L99.4325 25.2548C99.4325 24.7707 99.5018 24.2175 99.7793 23.7335C99.9874 23.3185 100.404 23.0419 100.82 22.9728H100.889V22.9728ZM83.0622 23.2494C83.2703 23.2494 83.5478 23.2494 83.7559 23.3877C84.0333 23.526 84.2414 23.7335 84.3801 24.0101C85.2819 25.3931 84.9351 27.2602 83.8252 28.5741C82.7847 29.888 81.1893 30.6487 79.5246 31.2019C78.9696 31.4094 78.3453 31.6168 77.9291 31.8935V32.0318H77.7904C77.6888 32.0138 77.5924 31.9734 77.5084 31.9136C77.4244 31.8538 77.3549 31.776 77.3049 31.686C77.1661 31.4785 77.1661 31.2019 77.2355 30.9253C77.3742 29.888 77.6517 28.8507 77.9291 27.8826C78.3453 26.8453 78.8309 25.808 79.5939 24.9782C80.0298 24.477 80.5604 24.0664 81.1555 23.7697C81.7506 23.4731 82.3985 23.2963 83.0622 23.2494V23.2494ZM111.363 23.8026H111.571C112.265 23.8718 112.959 24.2175 113.097 24.8399C113.236 25.5314 112.612 26.0155 111.988 26.2921C111.155 26.7762 110.184 26.9836 109.213 27.1219C107.756 27.3985 106.23 27.606 104.704 27.7443L104.427 27.3985C105.514 26.4137 106.727 25.5766 108.034 24.9091C109.074 24.3558 110.115 23.8026 111.363 23.8026V23.8026ZM95.7561 26.7762C95.9642 26.7762 96.1723 26.7762 96.311 26.9145C96.866 27.1219 97.2821 27.606 97.4209 28.1592C97.5596 28.7124 97.5596 29.2657 97.4209 29.8189C97.4209 30.9945 97.1434 32.1701 96.5885 33.2765C95.548 35.0745 93.3283 36.3192 92.9815 38.3246V38.1863C93.2589 36.4575 92.9121 34.7287 92.704 33.069C92.5653 31.3402 92.704 29.5423 93.6751 28.0901C93.9526 27.6752 94.2994 27.2602 94.785 27.0528C95.081 26.8825 95.4145 26.7875 95.7561 26.7762V26.7762ZM105.12 29.404C105.745 29.404 106.369 29.7497 106.508 30.3029C106.508 30.8562 106.092 31.4094 105.606 31.7551C104.214 32.8161 102.503 33.3766 100.75 33.3457H100.473L99.2244 33.4148C99.6406 32.6541 100.334 32.1009 101.097 31.6168C102.313 30.8258 103.563 30.0875 104.843 29.404H105.12V29.404ZM65.7902 30.0263C66.4838 30.0263 67.1775 30.2338 67.8018 30.5104C70.0215 31.4785 71.6169 33.3457 72.8655 35.3511C73.2123 35.9043 73.5591 36.5267 73.8366 37.2182C74.8077 39.5694 74.669 42.1972 74.4609 44.6867L73.9059 44.2717C72.962 42.702 71.5911 41.4312 69.9521 40.6067C69.2584 40.2609 68.4261 39.9843 67.7324 39.5694C67.1775 39.2236 66.6226 38.8087 66.137 38.3246C65.4433 37.7714 64.8191 37.149 64.3335 36.3884C63.6289 35.3227 63.266 34.0685 63.293 32.7924C63.293 31.9626 63.5011 31.0636 64.1948 30.5104C64.6803 30.1646 65.2352 30.0263 65.7902 30.0263V30.0263ZM89.2357 30.0263C89.5132 30.0263 89.7907 30.2338 89.9988 30.4413C91.0393 31.3402 91.1086 32.8616 91.0393 34.1755C91.0393 35.6968 90.9699 37.2182 90.6231 38.6704C90.2762 40.1226 89.7213 41.5056 88.6115 42.6812H88.5421C88.7502 40.8141 87.8484 38.947 87.4322 37.149C86.8773 34.9362 86.9467 32.585 88.2646 30.7179C88.4727 30.3721 88.7502 30.0263 89.1664 30.0263H89.2357ZM99.0163 30.7179V31.0636L98.8082 31.1328C98.8082 30.9945 98.9469 30.9253 99.0163 30.787V30.7179ZM80.6344 33.1382C81.6055 33.1382 82.5766 33.5531 83.1316 34.2446C83.4784 34.7979 83.5478 35.4894 83.6171 36.1118C84.0333 36.1118 84.4495 36.3192 84.7963 36.5958C85.49 37.149 85.9756 37.9789 86.253 38.8779C86.6692 40.3992 86.6692 41.9206 86.5998 43.5111C86.4611 45.3782 86.253 47.3145 85.49 49.0433L84.1027 51.6711L83.4784 53.6765C82.7847 56.0277 82.2992 60.73 82.0911 60.73C81.7443 60.73 82.2298 55.8202 82.7847 53.3999C83.1316 51.9477 83.4784 50.4263 83.4784 48.9741C83.2009 49.4582 82.7847 49.8731 82.3686 50.3572C81.3025 51.305 80.1401 52.1394 78.9003 52.8467L78.7615 52.7083C79.039 52.0168 78.7615 51.2562 78.4147 50.5646C77.9985 49.389 77.721 48.2134 77.5823 46.9687C77.513 46.1389 77.4436 45.2399 77.721 44.4101C77.8363 43.9669 78.0442 43.553 78.3311 43.1954C78.618 42.8379 78.9774 42.5449 79.3858 42.3355C79.8895 42.1163 80.4318 41.9988 80.9812 41.9897C80.7061 41.3295 80.542 40.6286 80.4957 39.9151L79.802 40.2609C78.7615 40.745 77.9291 41.4365 77.2355 42.2663L76.8887 41.9206C77.0274 40.9524 76.8887 39.9843 76.7499 38.947C76.6112 37.8406 76.6806 36.665 77.1661 35.5585C77.4053 34.9977 77.7655 34.4963 78.2211 34.0899C78.6766 33.6835 79.2164 33.3822 79.802 33.2074L80.6344 33.1382V33.1382ZM99.155 35.4202C99.5712 35.4202 99.9874 35.4202 100.334 35.6968C100.657 35.9274 100.907 36.2453 101.055 36.6129C101.202 36.9805 101.241 37.3825 101.167 37.7714C101.071 38.1858 100.892 38.5768 100.642 38.9212C100.392 39.2657 100.075 39.5566 99.7099 39.7768C99.0163 40.1918 98.1145 40.4684 97.2822 40.6758C95.8527 41.0205 94.3812 41.1602 92.9121 41.0907L93.3977 40.3992C94.0913 39.0162 95.1318 37.6331 96.3804 36.5958C96.9353 36.1809 97.4902 35.766 98.1839 35.5585C98.5307 35.4202 98.8776 35.4202 99.155 35.4202V35.4202ZM93.3283 42.4738C94.5075 42.4738 95.6867 43.3036 95.8948 44.3409C95.9682 44.7596 95.9438 45.1895 95.8235 45.5973C95.7032 46.005 95.4902 46.3797 95.2012 46.6921C94.5769 47.3836 93.8139 47.7985 92.9815 48.2134C91.2473 49.0433 89.3051 49.5965 87.2935 49.8039V49.3199C88.334 47.3145 89.3745 45.2399 91.0393 43.6494C91.4835 43.1853 92.0296 42.8303 92.6347 42.6121L93.3283 42.4738V42.4738ZM68.3567 42.8195C68.7035 42.8195 69.0503 42.9579 69.3972 43.0962C71.3394 43.7877 72.8655 45.3782 73.9753 47.0378C74.3915 47.5911 74.8077 48.2826 75.0852 48.905C75.3626 49.5273 75.5013 50.1497 75.6401 50.7029C76.6112 54.1606 81.4668 60.5917 80.9119 60.5917C80.2182 60.3843 78.6922 58.0331 77.6517 56.7192L75.5707 54.4372C73.9059 52.9158 71.8943 51.6711 70.1602 50.288C68.4954 48.8358 66.9694 46.8995 66.9 44.7558C66.9 44.0643 67.0388 43.3036 67.7324 42.9578L68.3567 42.8195V42.8195ZM116.566 47.5911H116.913C117.19 48.2826 104.08 54.5063 100.473 57.6182C96.311 61.2833 93.1202 65.7782 89.2357 69.7199C88.7502 70.2039 88.1953 70.7571 87.571 71.1029C87.1548 71.3104 86.6692 71.4487 86.1837 71.4487L85.49 71.3104C84.5883 70.9646 84.1027 70.0656 84.0333 69.2358C83.964 68.406 84.2414 67.5761 84.5189 66.7463C86.9039 62.5271 90.2257 58.908 94.2301 56.166C96.1723 54.6446 98.1839 53.2616 100.334 52.0168C102.831 50.4955 114.415 47.5911 116.566 47.5911V47.5911ZM54.1367 52.4317C55.8015 52.4317 57.8131 52.57 58.9923 53.0541C62.7942 54.3569 66.356 56.2724 69.5359 58.7246C72.1449 60.7062 74.5813 62.9038 76.8193 65.2941C77.9292 66.4005 79.1084 67.7144 78.9003 69.2358C78.7615 69.5816 78.6228 69.9273 78.3453 70.1348C78.0864 70.3292 77.7674 70.427 77.4436 70.4114C77.0274 70.4114 76.4725 70.2731 76.0563 70.0656C74.3221 69.1666 72.9348 67.7144 71.6169 66.3314C68.7729 63.3578 65.6514 60.5226 62.4606 57.8256C60.7265 56.4426 58.9923 55.1287 57.1195 54.0914C55.1772 52.985 50.7378 53.1924 50.8072 52.8467C50.8072 52.6392 52.3332 52.4317 54.1367 52.4317V52.4317ZM88.2646 0.0141602C87.6957 0.0190793 87.1385 0.175549 86.6506 0.467359C86.1628 0.759168 85.7621 1.17571 85.49 1.67382C84.8657 1.1206 84.1027 0.84399 83.3397 0.84399C82.7847 0.84399 82.1605 0.982294 81.6749 1.2589C80.829 1.71407 80.1673 2.4471 79.802 3.33348C79.2471 4.71653 79.2471 6.03043 79.3858 7.20602C78.8309 6.92941 78.276 6.86026 77.6517 6.86026C76.4725 6.86026 75.432 7.27517 74.669 8.105C74.114 8.79652 73.4898 10.0413 73.9753 11.9775C73.9753 12.3925 74.1834 12.7382 74.3221 13.1531C73.8722 13.0174 73.4049 12.9475 72.9348 12.9457C71.9637 12.9457 71.1313 13.2223 70.4377 13.7064C69.932 14.1141 69.5258 14.6309 69.2494 15.2178C68.9731 15.8048 68.8339 16.4465 68.8423 17.0948C68.8423 17.8555 68.8423 18.6853 69.1891 19.3769H68.9116C68.0445 19.3591 67.1907 19.5911 66.4525 20.0449C65.7143 20.4987 65.1231 21.1551 64.7497 21.9355C64.3028 23.0852 64.2539 24.3509 64.611 25.5314C64.7497 26.223 65.0271 27.1219 65.5127 27.9518C64.5416 27.9518 63.6398 28.2975 62.9462 28.8507C62.3813 29.3227 61.9315 29.9167 61.6311 30.5876C61.3306 31.2586 61.1873 31.9889 61.212 32.7233C61.212 34.4521 61.6282 36.1809 62.5994 37.564C63.293 38.5321 64.056 39.2928 64.6803 39.846C65.2352 40.3301 65.7902 40.8141 66.4838 41.229C65.374 41.9206 64.7497 43.3036 64.8191 44.825C64.8884 47.2453 66.2757 49.6656 68.8423 51.8785L71.3394 53.7456C72.3105 54.4372 73.2817 55.1287 74.114 55.9585C74.8077 56.5809 75.3626 57.3416 76.0563 58.0331L77.0968 59.4161C78.4841 61.2833 79.1777 62.3205 80.3569 62.5972L80.6344 62.6663H80.9119L81.8136 62.8046H81.9524C83.7559 62.8046 84.1027 61.0066 84.2414 60.3151L84.5882 58.3788L85.4206 54.2297C85.6294 53.4458 85.908 52.6821 86.253 51.9477L87.3629 51.8785C89.6519 51.6711 91.8716 51.0487 93.8139 50.0806C94.6463 49.6656 95.7561 49.0433 96.6579 48.006C97.1647 47.4661 97.5408 46.8177 97.7573 46.1105C97.9737 45.4032 98.0247 44.656 97.9064 43.926L97.4209 42.7504H97.6983C98.5307 42.4738 99.7099 42.1972 100.75 41.5056C101.999 40.6758 102.831 39.5694 103.178 38.2555C103.414 37.2167 103.24 36.1273 102.693 35.2128C104.203 34.9494 105.629 34.3333 106.855 33.4148C108.45 32.1009 108.519 30.7179 108.45 30.0263C108.45 29.8189 108.381 29.5423 108.242 29.3348C108.682 29.271 109.121 29.2018 109.56 29.1274C110.6 28.989 111.78 28.7124 112.889 28.1592C114.485 27.3985 115.387 25.9463 115.109 24.4941C114.97 23.8718 114.693 23.3185 114.277 22.9036C115.456 22.0738 116.15 20.8291 115.941 19.446C115.838 18.686 115.437 17.9976 114.826 17.5312C114.215 17.0648 113.444 16.8582 112.681 16.9565C111.502 17.0948 110.462 17.5789 109.699 18.2013C109.471 17.7513 109.125 17.3718 108.697 17.1037C108.269 16.8356 107.776 16.689 107.271 16.6799H107.201C106.508 16.6799 105.537 16.8874 104.635 18.063C103.941 19.1694 103.248 20.345 102.762 21.5206C102.169 21.0574 101.434 20.813 100.681 20.8291C100.089 20.8818 99.5215 21.0884 99.0346 21.4281C98.5478 21.7679 98.1588 22.2289 97.9064 22.7653C97.5381 23.4978 97.3256 24.2983 97.2822 25.1165C96.7896 24.8573 96.2435 24.7152 95.6867 24.7016C94.9931 24.7016 94.2994 24.9091 93.7445 25.1857C93.0508 25.6006 92.3572 26.1538 91.8716 26.9145C91.4554 27.4677 91.178 28.0209 91.0393 28.6433C90.4494 28.1749 89.7121 27.9299 88.9583 27.9518C88.2646 28.0209 87.2935 28.3667 86.4611 29.4731C85.6551 30.6919 85.1774 32.097 85.0738 33.5531C84.662 32.7908 84.0349 32.1657 83.2703 31.7551C84.1027 31.2019 84.7963 30.5796 85.3513 29.888C87.1548 27.7443 87.4322 24.9091 86.0449 22.8345L85.6287 22.3504L86.5998 21.728C87.7154 21.0115 88.643 20.0393 89.3051 18.8928C89.7246 18.1547 89.9451 17.3208 89.9451 16.4725C89.9451 15.6241 89.7246 14.7902 89.3051 14.0521L88.6115 13.2223C89.6208 12.8991 90.5786 12.4333 91.4554 11.8392C92.1536 11.376 92.7273 10.7493 93.1264 10.014C93.5254 9.27861 93.7376 8.45698 93.7445 7.62093C93.7445 6.37619 93.0508 5.3389 92.1491 4.85483C91.8023 4.64738 91.4554 4.50907 91.0393 4.43992L91.1086 3.05687C91.1086 1.46636 90.1375 0.705684 89.5826 0.429074C89.1664 0.152464 88.6808 0.0141602 88.1953 0.0141602H88.2646ZM79.9408 54.6446H80.0795L80.4957 54.368L80.2876 55.4053L79.8714 54.7138L79.9408 54.6446ZM116.566 45.5165C114.138 45.5165 102.068 48.5592 99.2244 50.2189C97.3515 51.3253 95.4093 52.6392 92.9815 54.5063C88.6568 57.4936 85.0934 61.4486 82.5766 66.0548C82.2298 67.0229 81.883 68.1294 81.883 69.3741C81.9275 70.216 82.2122 71.0278 82.7038 71.7138C83.1953 72.3998 83.8732 72.9316 84.6576 73.2466C85.2125 73.3849 85.6981 73.5232 86.1837 73.5232C87.016 73.5232 87.7791 73.3158 88.5421 72.9009C89.4438 72.4168 90.1375 71.7944 90.7618 71.1721C92.3572 69.5124 93.8832 67.7836 95.3399 66.0548C97.4209 63.5653 99.5018 61.2141 101.86 59.1395C103.664 57.6182 108.589 54.9904 112.196 52.9158L116.358 50.6338C117.745 49.8039 119.687 48.6284 118.785 46.6921C118.508 46.2772 117.953 45.5165 116.566 45.5165V45.5165ZM54.1367 50.3572C51.709 50.3572 48.865 50.3572 48.7262 52.6392C48.7262 52.8467 48.5875 54.7138 50.8766 55.0595L52.2639 55.1978C53.3044 55.267 55.316 55.4745 56.079 55.8894C57.8825 56.9267 59.5473 58.1714 61.1427 59.4853C64.2641 62.0439 67.3162 64.8792 70.1602 67.7836L70.3683 68.0602C71.6862 69.4432 73.1429 70.8955 75.1545 71.9327C75.7094 72.1402 76.5418 72.486 77.4436 72.486C78.2497 72.4973 79.0346 72.2283 79.6633 71.7253C80.3165 71.2062 80.7599 70.4696 80.9119 69.6507C81.3974 66.8846 79.2471 64.81 78.276 63.7727L77.5823 63.1504L76.8887 62.4589C75.0158 60.6609 73.0736 58.7246 70.7845 57.065C67.4011 54.5275 63.6615 52.5004 59.686 51.0487C57.9519 50.4263 55.5241 50.3572 54.1367 50.3572V50.3572Z" fill="#976014"/>
<path d="M77.4457 71.1024C76.7521 71.1024 76.1971 70.8258 75.781 70.6875C73.9774 69.7885 72.6595 68.4055 71.3415 67.0916L71.1334 66.815C68.2895 63.8414 65.2374 61.0062 61.9772 58.3784C60.3612 56.9777 58.6198 55.7278 56.7748 54.6441C55.7343 54.0909 53.7227 53.9526 52.3354 53.8143C50.8093 53.676 50.0463 53.6069 50.1157 52.777C50.1157 52.293 50.1157 51.7397 54.1389 51.7397C55.3875 51.7397 57.6765 51.8089 59.2719 52.4313C63.125 53.746 66.7342 55.6853 69.9542 58.1709C72.1739 59.7614 74.1162 61.6285 75.9197 63.4957L77.307 64.8096C78.2087 65.7085 79.8735 67.3682 79.5267 69.3736C79.45 69.8571 79.2043 70.298 78.833 70.6184C78.4451 70.9426 77.9518 71.1147 77.4457 71.1024V71.1024Z" fill="url(#fg_grain_paint0_radial_1603_606923)"/>
<path d="M54.2071 52.4314C55.8025 52.4314 57.8141 52.5697 59.0627 53.0538C62.8403 54.3634 66.3782 56.2787 69.5369 58.7243C72.1459 60.7058 74.5823 62.9035 76.8203 65.2937C77.9302 66.4002 79.1094 67.7141 78.9013 69.2354C78.7626 69.5812 78.6238 69.927 78.3464 70.1344C78.0874 70.3288 77.7684 70.4267 77.4446 70.411C77.0284 70.411 76.4735 70.2727 76.0573 70.0653C74.3232 69.1663 72.9359 67.7141 71.6179 66.331C68.7739 63.3575 65.6525 60.5222 62.4616 57.8253C60.7275 56.4422 58.9934 55.1283 57.1205 54.091C55.1783 52.9846 50.7389 53.1921 50.8082 52.8463C50.8082 52.6388 52.3343 52.4314 54.1378 52.4314H54.2071ZM54.1378 51.0483C50.5308 51.0483 49.4903 51.4633 49.4209 52.708C49.2822 54.2293 50.8082 54.3677 52.2649 54.506C53.5135 54.5751 55.5251 54.7826 56.4268 55.2666C58.2997 56.3039 59.9645 57.6178 61.5599 58.9317C64.7507 61.5595 67.8028 64.3948 70.5774 67.2992L70.8549 67.5758C72.2422 68.9588 73.6295 70.3419 75.433 71.31C75.9186 71.5175 76.6816 71.7941 77.514 71.7941C78.1463 71.7897 78.7581 71.5701 79.2481 71.1717C79.7604 70.7519 80.1049 70.1632 80.2192 69.512C80.6354 67.1609 78.8319 65.2937 77.7914 64.3256L77.0978 63.6341L76.4041 62.9426C73.5872 60.1518 70.4965 57.6497 67.1785 55.4741C64.7843 53.9468 62.2246 52.6941 59.5483 51.7399C57.8141 51.1175 55.3864 51.0483 54.1378 51.0483V51.0483Z" fill="#976014"/>
<path d="M86.1809 72.1401C85.4536 72.0934 84.7672 71.7889 84.2456 71.2816C83.7239 70.7742 83.4016 70.0976 83.3369 69.374C83.2675 68.3367 83.545 67.3685 83.8918 66.5387C84.0305 66.0546 84.308 65.4323 84.6548 64.9482C86.8052 61.1448 90.3428 58.1713 93.8111 55.6126C96.2389 53.8147 98.1118 52.5008 99.9846 51.4635C102.621 49.8038 114.413 46.8994 116.563 46.8994C116.771 46.8994 117.257 46.8994 117.534 47.3143C117.95 48.1442 117.395 48.4899 111.499 51.7401C107.615 53.8147 102.829 56.5116 100.956 58.1021C98.4586 60.2458 96.3082 62.7353 94.2273 65.1557C92.84 66.8845 91.3139 68.6133 89.7185 70.2038C89.233 70.757 88.6087 71.3102 87.915 71.656C87.3601 71.9326 86.7358 72.1401 86.1809 72.1401V72.1401Z" fill="url(#fg_grain_paint1_radial_1603_606923)"/>
<path d="M116.565 47.5911H116.912C117.19 48.2826 104.08 54.5063 100.473 57.6182C96.3106 61.2832 93.1198 65.7782 89.2353 69.7199C88.7497 70.2039 88.1948 70.7571 87.5705 71.1029C87.1543 71.3104 86.6688 71.4487 86.1832 71.4487L85.4895 71.3104C84.5878 70.9646 84.1022 70.0656 84.0329 69.2358C83.9635 68.406 84.2409 67.5761 84.5184 66.7463C86.9034 62.5271 90.2253 58.908 94.2296 56.166C96.1718 54.6446 98.1834 53.2616 100.334 52.0168C102.831 50.4955 114.415 47.5911 116.565 47.5911V47.5911ZM116.565 46.208C114.207 46.208 102.415 49.1816 99.6401 50.8412C97.7672 51.9477 95.825 53.1924 93.3972 54.9904C89.1909 57.9145 85.7238 61.7733 83.2698 66.2622C82.8536 67.2304 82.5762 68.2676 82.5762 69.3741C82.7149 70.8263 83.686 72.1402 84.9346 72.5551C85.3508 72.6934 85.767 72.8317 86.1832 72.8317C86.8768 72.8317 87.5705 72.6243 88.2642 72.2785C89.0272 71.8636 89.6515 71.2412 90.2064 70.688C91.8712 69.0975 93.3278 67.2995 94.7845 65.6398C96.8655 63.2195 98.9465 60.7992 101.374 58.6555C103.247 57.0649 107.964 54.5063 111.779 52.3626C113.513 51.4636 114.97 50.6338 115.941 50.0114C117.467 49.1816 118.785 48.3517 118.161 47.0378C117.953 46.6229 117.467 46.208 116.565 46.208V46.208Z" fill="#976014"/>
<path d="M80.8451 61.2832H80.7064C80.0127 61.0757 79.3191 60.1767 78.2092 58.6554L77.0994 57.134C76.4057 56.4425 75.7814 55.6127 75.0184 54.9211C74.0992 54.0967 73.126 53.3344 72.1051 52.6391L69.7466 50.772C67.5269 48.9049 66.2783 46.8303 66.209 44.7557C66.209 43.6493 66.6252 42.7503 67.3882 42.3354C67.6657 42.1971 68.0125 42.1279 68.3593 42.1279C68.7755 42.1279 69.1917 42.2662 69.6773 42.4045C71.9663 43.3035 73.5617 45.1706 74.5329 46.5537L75.7814 48.6283L76.1976 50.0805L76.3364 50.5645C76.8219 52.5008 78.8335 55.6127 80.1515 57.6872C81.5388 59.9693 81.8162 60.4533 81.5388 60.9374L81.3307 61.2832H80.8451V61.2832Z" fill="url(#fg_grain_paint2_radial_1603_606923)"/>
<path d="M68.359 42.8887C68.7058 42.8887 69.0526 42.8887 69.3995 43.0962C71.3417 43.7877 72.8678 45.3782 73.9776 47.0379C74.3938 47.5911 74.81 48.2826 75.0875 48.905C75.3649 49.5274 75.5037 50.1497 75.6424 50.703C76.6135 54.1606 81.4691 60.5918 80.9142 60.5918C80.2205 60.3843 78.6945 58.0331 77.654 56.7192L75.573 54.4372C73.9083 52.9158 71.8966 51.6711 70.1625 50.288C68.4977 48.8358 66.9717 46.8996 66.9023 44.7558C66.9023 44.0643 67.041 43.3036 67.7347 42.9579L68.359 42.8196V42.8887ZM68.359 41.4365C67.8734 41.4365 67.4572 41.5748 67.1104 41.7131C66.0699 42.2664 65.4456 43.3728 65.515 44.825C65.5844 47.0379 66.9023 49.3199 69.3301 51.3253C70.0238 52.0168 70.9255 52.5701 71.6885 53.1924C72.729 53.884 73.7695 54.5755 74.6019 55.4745C75.2956 56.0968 75.9199 56.8575 76.5441 57.549L77.654 59.0704C78.9026 60.7301 79.5962 61.6982 80.5674 61.9056L80.7061 61.9748H80.9142C81.1656 61.9832 81.4147 61.9233 81.6346 61.8015C81.8545 61.6797 82.0371 61.5006 82.1628 61.2833C82.6483 60.3843 82.3015 59.9002 80.7755 57.3416C79.3881 55.267 77.5153 52.2243 76.9603 50.4263L76.891 49.9423L76.4054 48.4209C76.0586 47.5911 75.573 46.8304 75.0875 46.208C74.047 44.7558 72.3822 42.7504 69.885 41.7823C69.3301 41.5748 68.8445 41.4365 68.359 41.4365Z" fill="#976014"/>
<path d="M73.4229 44.7558L73.3535 44.6175C72.4518 43.2344 71.1338 42.0588 69.6078 41.229L68.7754 40.8832L67.3881 40.1917C66.7651 39.7896 66.1841 39.3263 65.6539 38.8087C65.099 38.3246 64.336 37.6331 63.7811 36.8032C62.977 35.5963 62.5653 34.1717 62.6019 32.7232C62.6019 31.5477 63.018 30.5795 63.7811 29.9571C64.336 29.5422 65.0296 29.2656 65.7927 29.2656C66.6944 29.2656 67.5268 29.6114 68.0817 29.8188C70.3404 30.9467 72.2028 32.731 73.4229 34.9361C73.9084 35.6968 74.2553 36.3192 74.4634 36.9415C75.5732 39.5002 75.2958 42.2663 75.157 44.7558L75.0183 46.0697L73.4229 44.6866V44.7558Z" fill="url(#fg_grain_paint3_radial_1603_606923)"/>
<path d="M65.7927 30.0261C66.4863 30.0261 67.18 30.2336 67.8043 30.5102C70.024 31.4783 71.6194 33.3454 72.868 35.3509C73.2148 35.9041 73.5616 36.5265 73.8391 37.218C74.8102 39.5692 74.6715 42.197 74.4634 44.6864L73.9085 44.2715C72.9645 42.7018 71.5936 41.431 69.9546 40.6064C69.261 40.2607 68.4286 39.9841 67.7349 39.5692C67.18 39.2234 66.6251 38.8085 66.1395 38.3244C65.4458 37.7712 64.8216 37.1488 64.336 36.3881C63.6314 35.3224 63.2685 34.0683 63.2955 32.7922C63.2955 31.9624 63.5036 31.0634 64.1973 30.5102C64.6828 30.1644 65.2378 30.0261 65.7927 30.0261V30.0261ZM65.7927 28.6431C64.8216 28.6431 63.9892 28.9197 63.3649 29.4037C62.3938 30.0953 61.9082 31.2709 61.9082 32.7231C61.9082 34.3136 62.3244 35.9041 63.2261 37.218C63.7811 38.0478 64.6135 38.8085 65.1684 39.2926C65.7233 39.8458 66.3476 40.3298 67.0413 40.8139L68.4979 41.5054L69.3303 41.8512C70.7176 42.5427 71.9662 43.7183 72.7292 44.9631L72.868 45.1705L73.0761 45.378L73.5616 45.7929L75.6426 47.3834L75.8507 44.8248C76.0588 42.2661 76.2669 39.3617 75.157 36.6648C74.8796 35.9732 74.4634 35.3509 74.0472 34.5902C72.7448 32.258 70.7608 30.3765 68.3592 29.1963C67.7349 28.9197 66.8332 28.6431 65.7927 28.6431V28.6431Z" fill="#976014"/>
<path d="M75.0172 35.0051C74.5316 33.4146 73.4911 32.0316 72.0344 31.0634L70.3003 30.0953C68.9824 29.4038 67.6644 28.7123 66.832 27.3292C66.3465 26.6377 66.1384 25.877 65.9996 25.2546C65.7046 24.3518 65.7291 23.3755 66.069 22.4885C66.3716 21.924 66.838 21.4635 67.4073 21.1674C67.9766 20.8713 68.6222 20.7533 69.2598 20.8289C70.5084 20.9672 71.4795 21.797 72.1732 22.5577C73.2137 23.595 73.9073 24.6323 74.3235 25.6004C74.8091 26.5685 75.0172 27.6058 75.2253 28.574L76.6126 34.8668L75.364 36.0424L75.0172 35.0051V35.0051Z" fill="url(#fg_grain_paint4_radial_1603_606923)"/>
<path d="M68.9156 21.4511H69.1931C70.1642 21.5894 70.9966 22.2809 71.6902 23.0416C72.4532 23.8714 73.2163 24.8396 73.7712 25.8077L74.6036 28.7121L75.9215 34.6592L75.7134 34.7975C75.1164 33.037 73.944 31.5272 72.3839 30.51C70.7191 29.3345 68.4994 28.6429 67.3896 27.0524C67.0427 26.3609 66.8346 25.7385 66.6959 25.047C66.4878 24.3555 66.3491 23.5257 66.6959 22.765C66.9045 22.36 67.2234 22.022 67.6161 21.7895C68.0087 21.5571 68.4591 21.4398 68.9156 21.4511V21.4511ZM68.9156 20.068C68.1932 20.0613 67.4838 20.2592 66.8698 20.6387C66.2558 21.0182 65.7625 21.5637 65.4473 22.2118C65.0426 23.2262 64.9937 24.3472 65.3086 25.3928C65.4473 26.0843 65.7248 26.9141 66.2103 27.744C67.1815 29.127 68.7075 29.9568 70.0254 30.7175L71.6209 31.6165C72.9288 32.4659 73.9074 33.7342 74.3955 35.2124L74.9504 37.287L76.6152 35.9039L76.8233 35.6965L77.4476 35.1433L77.2395 34.3134L76.2683 30.026L75.9215 28.4355C75.7377 27.3456 75.4353 26.279 75.0198 25.2545C74.4648 24.2172 73.7712 23.1799 72.6613 22.0735C71.8152 21.0568 70.6359 20.371 69.3318 20.1372C69.1932 20.1289 69.0542 20.1289 68.9156 20.1372V20.068Z" fill="#976014"/>
<path d="M76.3356 25.6005C76.0581 24.7015 75.1564 24.01 74.1159 23.2493L73.4222 22.7652C71.3413 21.1747 70.162 19.1001 70.2314 17.1639C70.2314 16.1266 70.5782 15.2968 71.2719 14.8127C71.6881 14.4669 72.243 14.3286 72.9367 14.3286C73.4942 14.3371 74.0415 14.4794 74.5321 14.7435C75.5032 15.2276 76.1275 16.1266 76.613 16.8181C77.5148 18.2012 78.0697 19.5842 78.3472 20.9673C78.6247 22.6269 78.4165 24.2174 77.7229 25.5313L76.7518 27.3293L76.3356 25.6005V25.6005Z" fill="url(#fg_grain_paint5_radial_1603_606923)"/>
<path d="M72.9351 15.0203C73.3964 15.0245 73.8494 15.1433 74.253 15.366C74.9467 15.7809 75.571 16.4725 75.9872 17.164C76.7939 18.3574 77.3594 19.6963 77.6519 21.1057C77.86 22.4887 77.7907 23.9409 77.097 25.2548L77.0276 25.4623C76.6114 24.0792 75.0854 23.1802 73.9062 22.2121C72.2414 20.9674 70.8541 19.1694 70.9235 17.164C70.9235 16.4725 71.1316 15.7809 71.6171 15.366C72.0333 15.0894 72.4495 15.0203 72.9351 15.0203ZM72.9351 13.6372C72.1027 13.6372 71.409 13.8447 70.8541 14.3287C70.431 14.6579 70.0869 15.077 69.8469 15.5555C69.6069 16.034 69.4771 16.5599 69.4668 17.0948C69.4668 19.3077 70.7154 21.5206 73.0738 23.3185L73.6981 23.8026C74.5999 24.4941 75.5016 25.1165 75.6403 25.808L76.5421 29.1273L78.2069 26.1538L78.3456 25.8772C79.1086 24.3558 79.3167 22.627 79.0392 20.8291C78.7618 19.446 78.1375 17.9247 77.1664 16.4033C76.6103 15.461 75.8225 14.6756 74.8773 14.1213C74.253 13.7755 73.5594 13.6372 72.9351 13.6372Z" fill="#976014"/>
<path d="M78.9032 17.8554C78.9032 17.3021 78.6257 16.6798 78.0708 16.0574L77.3772 15.2276C77.0303 14.8818 76.6835 14.536 76.406 14.052C75.8511 13.3604 75.5043 12.5306 75.2962 11.6316C75.0187 10.5252 75.2268 9.62621 75.7818 9.00384C76.198 8.51977 76.8916 8.24316 77.6546 8.24316C78.2789 8.24316 78.9032 8.38147 79.3888 8.72723C80.2212 9.28045 80.7761 10.1103 81.2616 11.4242C82.094 13.9137 81.8166 16.4032 80.4986 18.132L80.3599 18.3394L78.9032 18.8235V17.8554V17.8554Z" fill="url(#fg_grain_paint6_radial_1603_606923)"/>
<path d="M77.6558 8.93462C78.1414 8.93462 78.627 9.07293 79.0431 9.28038C79.8098 9.86412 80.3492 10.6952 80.5692 11.6316C81.2628 13.7061 81.2628 15.9882 79.8755 17.717L79.5981 17.8553C79.5981 17.0255 79.1819 16.2648 78.6269 15.5733C78.072 14.8817 77.4477 14.3285 76.9622 13.637C76.4766 12.9455 76.1298 12.2539 75.9911 11.4933C75.783 10.8017 75.783 10.0411 76.2685 9.41869C76.6154 9.07293 77.1009 8.93462 77.6558 8.93462V8.93462ZM77.6558 7.55157C76.6847 7.55157 75.783 7.89734 75.228 8.58886C74.7425 9.14208 74.2569 10.1102 74.6037 11.7699C74.8118 12.738 75.2974 13.637 75.8523 14.536L76.8928 15.7116L77.5865 16.4031C78.0027 17.0255 78.2108 17.4404 78.2108 17.7861V19.7224L80.0143 19.1692L80.2917 19.1L80.7773 18.9617L81.0547 18.5468C82.4421 16.6105 82.7889 13.9136 81.8871 11.1475C81.4016 9.76445 80.7079 8.72717 79.8062 8.17395C79.1125 7.75903 78.4189 7.48242 77.7252 7.48242L77.6558 7.55157Z" fill="#976014"/>
<path d="M82.0923 12.7385V12.4619C82.0923 11.4246 81.7455 10.4565 81.3986 9.41921L81.1212 8.52023C80.7744 7.13718 80.4275 5.47752 81.1212 3.88702C81.3334 3.28125 81.7503 2.76788 82.3004 2.43481C82.6472 2.29651 82.9941 2.1582 83.3409 2.1582C83.8264 2.1582 84.2426 2.36566 84.5201 2.57312C84.8669 2.91888 85.075 3.26464 85.1444 3.6104C85.5606 4.99345 85.3525 6.3765 85.075 7.75955C84.6588 9.48836 84.1733 11.2172 83.4796 12.8768L82.9247 14.2599L82.0923 12.6694V12.7385Z" fill="url(#fg_grain_paint7_radial_1603_606923)"/>
<path d="M83.3404 2.91869C83.6178 2.91869 83.8953 2.98784 84.034 3.1953C84.3115 3.40276 84.3809 3.61022 84.4502 3.88683C84.8664 5.13157 84.6583 6.44547 84.4502 7.69021C84.034 9.41902 83.4791 11.0787 82.8548 12.6692L82.7854 12.5309C82.7854 11.1478 82.2305 9.76478 81.8143 8.38173C81.3981 6.99869 81.1207 5.54648 81.745 4.23259C81.8837 3.74852 82.2305 3.33361 82.6467 3.12615C82.8548 2.98785 83.1323 2.91869 83.3404 2.91869V2.91869ZM83.3404 1.53564C82.8548 1.53564 82.4386 1.67395 81.9531 1.88141C81.249 2.28422 80.709 2.92048 80.427 3.67937C79.8342 5.33394 79.8342 7.14207 80.427 8.79665L80.7738 9.69563C81.0513 10.6638 81.3981 11.6319 81.3981 12.5309V12.8766L81.5369 13.2224L81.6062 13.3607L82.9935 15.9194L84.1728 13.1533C84.8664 11.4936 85.352 9.69563 85.7682 7.96682C86.0456 6.58377 86.3231 4.99327 85.7682 3.47191C85.6417 2.97157 85.3774 2.51646 85.0051 2.15801C84.5889 1.7431 83.9647 1.53564 83.3404 1.53564Z" fill="#976014"/>
<path d="M85.5645 7.20603C85.5645 5.75382 85.8419 4.37077 86.3968 3.05688C86.5349 2.58137 86.7984 2.15151 87.1599 1.81213C87.5067 1.60467 87.8535 1.39722 88.2697 1.39722C88.5472 1.39722 88.8246 1.46637 88.9634 1.60467C89.5183 1.88128 89.7957 2.4345 89.7957 3.12603C89.8758 4.2087 89.6346 5.29092 89.1021 6.23789C88.4778 7.20603 87.5761 7.9667 86.5356 8.38162L85.7032 8.72738L85.5645 7.20603V7.20603Z" fill="url(#fg_grain_paint8_radial_1603_606923)"/>
<path d="M88.2681 2.08862C88.4068 2.08862 88.5455 2.08862 88.6842 2.22692C89.0311 2.36523 89.1004 2.78014 89.1004 3.19505C89.1256 4.11904 88.8849 5.03091 88.4068 5.82285C87.9371 6.67232 87.2082 7.35054 86.3258 7.75912L86.2564 7.2059C86.2564 5.82285 86.5339 4.50895 87.0195 3.26421C87.1582 2.91844 87.2969 2.57268 87.5744 2.36523C87.7825 2.22692 88.06 2.08862 88.2681 2.08862V2.08862ZM88.2681 0.705566C87.7131 0.705566 87.1582 0.913025 86.742 1.32794C86.3086 1.70188 85.975 2.17706 85.7709 2.71099C85.216 4.16319 84.8691 5.61539 84.8691 7.13675V7.82827L85.0772 9.76454L86.8114 9.07301C87.9751 8.59511 88.9574 7.7625 89.6178 6.69431C90.2781 5.62612 90.5826 4.37708 90.4877 3.1259C90.4877 1.88116 89.7941 1.25879 89.3085 1.05133C89.0311 0.843871 88.6149 0.705566 88.2681 0.705566V0.705566Z" fill="#976014"/>
<path d="M78.002 52.916L78.1407 52.5011C78.2794 52.0861 78.0713 51.5329 77.8632 50.9106V50.7722C77.3777 49.5966 77.0309 48.2827 76.8921 47.038C76.8228 46.2773 76.7534 45.24 77.0309 44.2027C77.1809 43.6645 77.4441 43.1641 77.8029 42.7349C78.1616 42.3058 78.6078 41.9575 79.1118 41.7133C79.6667 41.4366 80.3604 41.2983 81.1928 41.2983C81.609 41.2983 82.0252 41.2983 82.5108 41.5058C83.69 41.8516 84.5917 43.0272 84.9386 44.756C85.0773 45.5166 85.0773 46.139 85.0079 46.8305C84.8692 48.2136 84.1062 49.5966 82.9269 50.7722C81.8247 51.7971 80.6155 52.7013 79.3199 53.4692L78.8344 53.7458L78.002 52.916V52.916Z" fill="url(#fg_grain_paint9_radial_1603_606923)"/>
<path d="M81.2629 41.9897C81.6097 41.9897 81.9566 41.9898 82.3034 42.1281C83.4826 42.4738 84.0375 43.7186 84.2456 44.8942C84.315 45.5165 84.3844 46.0697 84.315 46.6921C84.0917 48.0744 83.4075 49.3413 82.3728 50.288C81.31 51.26 80.1475 52.1176 78.9045 52.8467L78.7657 52.7084C79.0432 52.0169 78.7657 51.3253 78.4189 50.5647C78.0027 49.3891 77.7253 48.2135 77.5865 46.9687C77.5172 46.1389 77.4478 45.2399 77.7253 44.4101C77.8405 43.9669 78.0484 43.553 78.3353 43.1955C78.6222 42.838 78.9816 42.5449 79.39 42.3355C79.9806 42.0822 80.6205 41.964 81.2629 41.9897V41.9897ZM81.2629 40.6067H81.1935C80.2224 40.6067 79.4594 40.8142 78.7657 41.0908C78.1919 41.3851 77.6858 41.7954 77.2798 42.2954C76.8737 42.7955 76.5766 43.3743 76.4073 43.9952C76.0605 45.1708 76.1298 46.2772 76.1992 47.107C76.4073 48.4901 76.6848 49.7348 77.1703 51.0487V51.1179C77.3784 51.5328 77.5172 52.086 77.4478 52.2935L77.1703 53.1233L77.864 53.7457L78.0027 53.884L78.7657 54.5755L79.6675 54.0223C80.9161 53.2616 82.234 52.3626 83.3439 51.2562C84.7312 49.8731 85.5636 48.4209 85.7023 46.8996C85.7717 46.2081 85.7023 45.5165 85.5636 44.6175C85.2168 42.6121 84.1763 41.2982 82.7196 40.8142C82.2474 40.6716 81.7562 40.6017 81.2629 40.6067V40.6067Z" fill="#976014"/>
<path d="M76.1956 42.1975V41.8518C76.3343 41.1602 76.1956 40.5379 76.1956 39.7772L76.0568 39.0857C75.9181 37.5643 76.0568 36.3196 76.5424 35.2823C76.8163 34.6261 77.2317 34.0381 77.7592 33.5601C78.2867 33.082 78.9133 32.7256 79.5945 32.5162L80.635 32.447C81.8836 32.447 83.0628 33.0002 83.6871 33.8301C84.1726 34.5216 84.242 35.3514 84.3807 36.1121L84.3114 37.2185C84.1033 38.325 83.2015 39.1548 82.4385 39.5697C82.0223 39.9155 81.4674 40.1921 80.9818 40.3996L80.0801 40.8145C79.1783 41.3677 78.4153 41.9901 77.7216 42.6816L77.2361 43.304L76.1956 42.1975V42.1975Z" fill="url(#fg_grain_paint10_radial_1603_606923)"/>
<path d="M80.6363 33.1384C81.6074 33.1384 82.5785 33.5533 83.1334 34.2449C83.4803 34.8672 83.5496 35.5588 83.619 36.1811V37.0801C83.4803 37.9099 82.856 38.5323 82.0929 39.0164C81.3993 39.5004 80.4975 39.8462 79.7345 40.2611C78.7634 40.7452 77.931 41.4367 77.2374 42.2665L76.8905 41.9208C77.0293 40.9526 76.8905 39.9845 76.7518 38.9472C76.6131 37.8408 76.6824 36.6652 77.168 35.5588C77.4154 35.0108 77.7792 34.5229 78.2343 34.1289C78.6894 33.7349 79.225 33.4441 79.8039 33.2767C80.0813 33.1384 80.3588 33.1384 80.6363 33.1384V33.1384ZM80.6363 31.7554C80.2201 31.7554 79.8039 31.7554 79.3877 31.8937C78.6176 32.1302 77.9085 32.5311 77.3095 33.0685C76.7106 33.6059 76.2362 34.2669 75.9194 35.0055C75.3645 36.1811 75.2258 37.495 75.3645 39.1547L75.4339 39.9154C75.5726 40.6069 75.642 41.2293 75.5726 41.7825L75.4339 42.474L75.9194 42.8889L76.1969 43.2347L77.2374 44.272L78.2085 43.1655C78.9021 42.474 79.5958 41.9208 80.4282 41.4367L81.2606 41.0218L82.856 40.192C83.3861 39.8784 83.8449 39.4582 84.2032 38.9582C84.5614 38.4581 84.8113 37.8892 84.9369 37.2876C85.0757 36.8727 85.0063 36.4577 85.0063 36.112C85.0063 35.2821 84.7982 34.314 84.3126 33.4842C83.5496 32.4469 82.1623 31.7554 80.6363 31.7554V31.7554Z" fill="#976014"/>
<path d="M77.7968 32.723C77.569 32.7077 77.3485 32.6366 77.1549 32.5159C76.9613 32.3953 76.8006 32.2289 76.6869 32.0315C76.4788 31.5474 76.5482 31.0634 76.5482 30.7868C76.6869 29.7495 76.9644 28.7122 77.3112 27.6749C77.7968 26.2918 78.3517 25.3237 79.1147 24.4939C80.1231 23.3515 81.5453 22.655 83.0686 22.5576C83.4154 22.5576 83.7622 22.6268 84.0397 22.7651C84.3865 22.9725 84.7334 23.2491 84.9415 23.5949C85.9819 25.1854 85.7738 27.3983 84.3865 28.9888C83.1445 30.3761 81.5328 31.3833 79.739 31.8932H79.5309L78.976 32.1698L79.1147 32.3081L78.213 32.6539L77.7968 32.723V32.723Z" fill="url(#fg_grain_paint11_radial_1603_606923)"/>
<path d="M83.0676 23.2493C83.2757 23.2493 83.5532 23.2493 83.7613 23.3876C84.0387 23.5259 84.2468 23.7333 84.3855 24.0099C85.2873 25.393 84.9405 27.2601 83.8306 28.574C82.7901 29.8879 81.1947 30.6486 79.53 31.2018C78.975 31.4093 78.3507 31.6167 77.9345 31.8933V32.0316H77.7958C77.6942 32.0136 77.5978 31.9733 77.5138 31.9135C77.4298 31.8536 77.3603 31.7759 77.3103 31.6859C77.1715 31.4784 77.1715 31.2018 77.2409 30.9252C77.3796 29.8879 77.6571 28.8506 77.9345 27.8825C78.3507 26.8452 78.8363 25.8079 79.5993 24.9781C80.0352 24.4769 80.5658 24.0662 81.1609 23.7696C81.756 23.4729 82.4039 23.2961 83.0676 23.2493V23.2493ZM83.0676 21.8662H82.3739C80.9866 22.1428 79.5993 22.9035 78.5588 24.0791C77.7958 24.9781 77.1715 26.0154 76.686 27.4676C76.3391 28.5048 75.9923 29.5421 75.8536 30.7177C75.8536 30.9943 75.7148 31.6167 76.0617 32.3082C76.2296 32.6268 76.4778 32.8963 76.7819 33.0902C77.0859 33.2842 77.4353 33.396 77.7958 33.4147L78.4895 33.3455L80.2236 32.654L80.0849 32.5157C81.9654 31.9557 83.6487 30.8769 84.9405 29.4038C86.4665 27.5367 86.744 25.0472 85.5648 23.1801C85.2179 22.7652 84.8711 22.4194 84.3855 22.1428C83.9694 22.0045 83.5532 21.8662 82.9982 21.8662H83.0676Z" fill="#976014"/>
<path d="M80.9833 18.616C81.4688 17.3713 82.0237 16.1265 82.7868 14.9509C83.2029 14.4669 83.8272 13.7062 84.729 13.4296L85.5614 13.2913C86.6019 13.2913 87.6423 13.9136 88.1973 14.8126C88.7522 15.7808 88.7522 17.0946 88.1279 18.2702C87.7117 19.1001 86.9487 19.8607 85.8388 20.6214C84.1719 21.7789 82.2824 22.5794 80.2896 22.9726L79.041 23.1801L80.9833 18.616V18.616Z" fill="url(#fg_grain_paint12_radial_1603_606923)"/>
<path d="M85.56 13.9827C86.3923 13.9827 87.1554 14.4667 87.6409 15.1583C88.0571 15.9881 87.9877 17.0254 87.5022 17.9244C87.0166 18.8233 86.2536 19.4457 85.4212 19.9989C83.842 21.1163 82.0466 21.8935 80.1494 22.281L81.6061 18.8233C82.0917 17.6477 82.6466 16.4721 83.4096 15.3657C83.7565 14.8125 84.242 14.2593 84.9357 14.0518L85.56 13.9827ZM85.56 12.5996C85.2131 12.5996 84.8663 12.5996 84.5195 12.7379C83.5648 13.0812 82.7569 13.7401 82.2304 14.605C81.398 15.7806 80.8431 17.0945 80.3575 18.3393L79.6639 19.9989L78.9009 21.7277L77.791 24.2172L80.3575 23.7332C82.4385 23.2491 84.5195 22.4193 86.1842 21.2437C87.2166 20.5808 88.0732 19.6794 88.6814 18.6159C89.3751 17.2328 89.3751 15.7115 88.6814 14.4667C88.3437 13.9241 87.8744 13.4749 87.3168 13.1607C86.7591 12.8465 86.1311 12.6773 85.4906 12.6688L85.56 12.5996Z" fill="#976014"/>
<path d="M84.7324 12.3922V11.9773C84.7324 10.8017 85.2873 9.6953 86.2585 8.93462L86.9521 8.45055L87.6458 8.10478L88.6863 7.0675C88.9637 6.72173 89.2412 6.37598 89.7267 6.09937C90.0432 5.91775 90.4021 5.82235 90.7672 5.82276C91.0447 5.82276 91.3222 5.8919 91.5303 6.03021C92.0852 6.30682 92.432 6.92919 92.432 7.62072C92.432 8.72716 91.8077 9.90275 90.6979 10.6634C89.7961 11.355 88.6863 11.7699 87.7151 12.0465L85.4954 12.8763L84.7324 12.3922V12.3922Z" fill="url(#fg_grain_paint13_radial_1603_606923)"/>
<path d="M90.7661 6.51425C90.9048 6.51425 91.0436 6.51425 91.1823 6.65255C91.5985 6.86001 91.7372 7.27492 91.7372 7.68984C91.7372 8.65797 91.1129 9.55695 90.3499 10.1102C89.5175 10.8017 88.477 11.0783 87.5059 11.4932L85.633 12.1847L85.4249 11.9773C85.4249 11.0783 85.8411 10.1102 86.6735 9.4878C87.0897 9.21119 87.5753 9.00373 87.9915 8.65797C88.477 8.38136 88.8239 7.96645 89.1707 7.48238L90.0724 6.7217C90.2811 6.59254 90.5205 6.52095 90.7661 6.51425V6.51425ZM90.7661 5.1312C90.2813 5.12363 89.803 5.24284 89.3788 5.47696C88.8239 5.82272 88.4077 6.23764 88.1302 6.5834L87.1591 7.55153L86.6735 7.8973L85.8411 8.38136C85.2717 8.807 84.8114 9.36099 84.4979 9.99801C84.1845 10.635 84.0267 11.337 84.0376 12.0464V12.738L84.5926 13.1529L84.8007 13.2912L85.4249 13.7061L86.1186 13.4295L87.9915 12.738C88.9626 12.3922 90.1418 11.9773 91.1129 11.2166C92.4309 10.3176 93.1939 9.00373 93.1245 7.62069C93.1245 6.65255 92.639 5.82272 91.8759 5.40781C91.5291 5.2695 91.1823 5.1312 90.7661 5.1312V5.1312Z" fill="#976014"/>
<path d="M86.671 49.1124V49.0432C87.6421 47.1761 88.7519 44.8941 90.5554 43.1653C90.9716 42.7504 91.5959 42.1971 92.4283 41.9205L93.3301 41.7822C94.9255 41.7822 96.3128 42.8887 96.5903 44.2026C96.683 44.734 96.6498 45.2797 96.4932 45.796C96.3366 46.3123 96.061 46.7849 95.6885 47.1761C94.9948 47.9368 93.9544 48.5592 93.3301 48.8358C91.4598 49.7471 89.438 50.3096 87.3646 50.4954H86.4629L86.671 49.1124V49.1124Z" fill="url(#fg_grain_paint14_radial_1603_606923)"/>
<path d="M93.3304 42.4744C94.5097 42.4744 95.6889 43.3042 95.897 44.3415C95.9703 44.7602 95.9459 45.1901 95.8256 45.5978C95.7053 46.0056 95.4924 46.3802 95.2033 46.6927C94.579 47.3842 93.816 47.7991 92.9836 48.214C91.2495 49.0439 89.3072 49.5971 87.2956 49.8045V49.3205C88.3361 47.315 89.3766 45.2405 91.0414 43.65C91.4856 43.1859 92.0317 42.8308 92.6368 42.6127L93.3304 42.4744V42.4744ZM93.3304 41.0913L92.2206 41.2988C91.4055 41.5865 90.6692 42.0601 90.0703 42.6818C88.1974 44.4798 87.0182 46.831 86.1164 48.6981L86.047 48.9055V49.113L85.9083 49.5279L85.6309 51.3259L87.365 51.1876C89.5153 50.9801 91.6657 50.3578 93.6079 49.4588C94.3016 49.113 95.4114 48.4906 96.2438 47.5917C96.6673 47.1307 96.9808 46.5803 97.161 45.9816C97.3412 45.3828 97.3833 44.7513 97.2843 44.134C96.9375 42.4052 95.2033 41.0913 93.3304 41.0913V41.0913Z" fill="#976014"/>
<path d="M87.8519 42.6122C87.9906 41.3675 87.5744 40.1227 87.1582 38.8088L86.742 37.2875C86.0484 34.5214 86.3952 32.1011 87.7131 30.3031C87.8519 30.0956 88.3374 29.4041 89.1004 29.335H89.2392C89.6554 29.335 90.0716 29.5424 90.4877 29.8882C91.7363 30.9946 91.8057 32.7234 91.7363 34.2448C91.7363 35.697 91.667 37.2875 91.3201 38.8088C91.0177 40.4302 90.2738 41.9374 89.1698 43.1655L89.0311 43.3038L87.7825 43.5804L87.8519 42.6122V42.6122Z" fill="url(#fg_grain_paint15_radial_1603_606923)"/>
<path d="M89.2384 30.0266C89.5159 30.0266 89.7934 30.2341 90.0015 30.4415C91.0419 31.3405 91.1113 32.8619 91.0419 34.1758C91.0419 35.6971 90.9726 37.2185 90.6258 38.6707C90.2789 40.1229 89.724 41.5059 88.6142 42.6815H88.5448C88.7529 40.8144 87.8511 38.9473 87.4349 37.1493C86.88 34.9364 86.9494 32.5853 88.2673 30.7181C88.4754 30.3724 88.7529 30.0266 89.1691 30.0266H89.2384ZM89.1691 28.6436H89.0303C88.3367 28.7127 87.643 29.1276 87.0881 29.8883C85.7008 31.8937 85.354 34.5215 86.117 37.4951L86.5332 39.0164C86.9494 40.2612 87.2269 41.4368 87.2269 42.5432L86.9494 44.5486L88.8916 43.9954H89.0303L89.3772 43.8571L89.6546 43.5805C90.8496 42.2792 91.6651 40.6771 92.0131 38.9473C92.3599 37.3568 92.4293 35.7663 92.4293 34.2449C92.4293 33.0693 92.568 30.7873 90.9032 29.4042C90.4177 28.9202 89.7934 28.7127 89.2384 28.7127L89.1691 28.6436Z" fill="#976014"/>
<path d="M92.3608 38.2558V38.0483C92.4996 36.8727 92.3608 35.6972 92.2221 34.4524L92.014 33.0694C91.7366 31.2058 92.1035 29.3036 93.0545 27.6755C93.4707 27.1222 93.9562 26.7073 94.4418 26.4307C94.8455 26.208 95.2984 26.0892 95.7597 26.085L96.5921 26.2924C97.2858 26.4999 97.8407 27.1914 98.1182 27.9521C98.2569 28.6436 98.2569 29.3351 98.1182 29.8883C98.1182 31.0639 97.8407 32.3778 97.147 33.5534C96.7309 34.3833 96.1066 35.0056 95.4823 35.628C94.6499 36.5961 93.8869 37.426 93.6788 38.4633L92.2915 38.2558H92.3608Z" fill="url(#fg_grain_paint16_radial_1603_606923)"/>
<path d="M95.7587 26.7761C95.9668 26.7761 96.1749 26.7761 96.3136 26.9144C96.8685 27.1219 97.2847 27.6059 97.4235 28.1592C97.5622 28.7124 97.5622 29.2656 97.4235 29.8188C97.4235 30.9944 97.146 32.17 96.5911 33.2764C95.5506 35.0744 93.3309 36.3192 92.984 38.3246V38.1863C93.2615 36.4575 92.9147 34.7287 92.7066 33.069C92.5678 31.3402 92.7066 29.5422 93.6777 28.09C93.9552 27.6751 94.302 27.2602 94.7876 27.0527C95.0836 26.8824 95.4171 26.7874 95.7587 26.7761V26.7761ZM95.7587 25.3931C95.2011 25.4015 94.6539 25.5438 94.1633 25.808C93.4696 26.1537 92.984 26.6378 92.4985 27.3293C91.1805 29.2656 91.1805 31.6168 91.3886 33.2073C91.3886 33.6222 91.3886 34.1063 91.5274 34.5903C91.6661 35.7659 91.8048 36.8724 91.6661 37.9788V38.1863L94.3714 38.6012C94.5101 37.7714 95.2037 36.9415 96.0361 36.1117C96.6604 35.4202 97.2847 34.7287 97.7703 33.8988C98.4639 32.5849 98.7414 31.1327 98.8801 29.9571C98.8801 29.2656 98.9495 28.5741 98.7414 27.8134C98.6149 27.3183 98.3731 26.86 98.0357 26.4755C97.6982 26.091 97.2746 25.7912 96.7992 25.6005L95.7587 25.3931V25.3931Z" fill="#976014"/>
<path d="M98.1888 30.8564L98.3276 30.5107L99.9924 27.5371L99.6455 31.0639V31.4096L97.2871 32.931L98.1888 30.8564Z" fill="url(#fg_grain_paint17_radial_1603_606923)"/>
<path d="M99.02 30.7872V31.0638L98.8119 31.133C98.8119 30.9947 98.9506 30.9255 99.02 30.7872ZM100.962 24.2869L97.7714 30.0957V30.1648L97.4939 30.5797L95.7598 34.7289L99.5749 32.3085L99.7136 32.2394L100.338 31.8245V31.133V30.9255L101.032 24.2869H100.962Z" fill="#976014"/>
<path d="M98.3965 33.4839L98.6046 33.069C99.1246 32.2237 99.8376 31.5128 100.686 30.9944L103.391 29.3348C103.738 29.0582 104.223 28.7816 104.778 28.7124H105.125C106.165 28.7124 106.998 29.4039 107.206 30.2338C107.206 30.7178 107.067 31.4785 106.027 32.3083C104.514 33.459 102.657 34.068 100.755 34.0371H100.477L99.3676 34.1063L98.9514 34.1754L98.3965 33.4839V33.4839Z" fill="url(#fg_grain_paint18_radial_1603_606923)"/>
<path d="M105.125 29.4043C105.75 29.4043 106.374 29.7501 106.513 30.3033C106.513 30.8565 106.096 31.4097 105.611 31.7555C104.219 32.8164 102.507 33.3769 100.755 33.346H100.478L99.2292 33.4151C99.6454 32.6545 100.339 32.1012 101.102 31.6172C102.318 30.8261 103.568 30.0878 104.848 29.4043H105.125V29.4043ZM105.125 28.0212H104.64C103.946 28.1595 103.461 28.4362 102.975 28.7128L100.339 30.4416C99.3809 31.0029 98.5721 31.7856 97.9806 32.7236L97.5645 33.4843L98.1194 34.1758V34.245L98.6743 34.9365L99.5067 34.7982L100.478 34.729H101.241C103.114 34.6599 104.987 34.0375 106.443 32.8619C107.831 31.8246 107.969 30.7873 107.831 30.0958C107.692 28.9202 106.443 28.0212 105.056 28.0212H105.125Z" fill="#976014"/>
<path d="M81.9548 61.4216H81.6773L81.4692 61.0758C80.9143 60.3843 81.8161 54.5755 82.1629 53.1924C82.8863 50.9532 82.9585 48.5555 82.371 46.2772C82.1629 45.5165 81.6773 44.825 81.3305 44.0643C80.7062 43.027 80.0819 41.9897 79.9432 40.745C79.6657 39.6385 79.8044 38.4629 80.2206 37.4256C80.4805 36.7134 80.9679 36.1059 81.608 35.6968C82.0935 35.4894 82.5791 35.3511 83.0646 35.3511C83.8277 35.3511 84.5907 35.6277 85.1456 36.0426C85.978 36.5958 86.5329 37.4948 86.9491 38.6704C87.4347 40.3301 87.3653 42.0589 87.2959 43.5111C87.2366 45.9983 86.5952 48.4373 85.4231 50.6338L84.7294 51.9477L84.1745 53.8148C83.8277 54.9904 83.5502 56.7192 83.3421 58.1714C82.8565 61.0758 82.7872 61.4216 82.0242 61.4216H81.9548Z" fill="url(#fg_grain_paint19_radial_1603_606923)"/>
<path d="M83.0654 35.9736C83.6897 35.9736 84.314 36.2502 84.7995 36.5959C85.4932 37.1492 85.9788 37.979 86.2562 38.878C86.6724 40.3993 86.6724 41.9207 86.603 43.5112C86.4643 45.3783 86.2562 47.3146 85.4932 49.0434L84.1059 51.6712L83.4816 53.6766C82.7879 56.0278 82.3024 60.7302 82.0943 60.7302C81.7474 60.7302 82.233 55.8203 82.7879 53.4C83.3429 50.9797 83.8978 48.3519 83.0654 46.0007C82.3717 44.1336 80.9844 42.543 80.5682 40.6068C80.3601 39.6386 80.4989 38.6014 80.9151 37.7024C81.123 37.1326 81.5129 36.6466 82.0249 36.3193C82.3024 36.1119 82.7186 36.0427 83.0654 36.0427V35.9736ZM83.0654 34.6597C82.4411 34.6597 81.8168 34.798 81.3313 35.0746C80.5373 35.554 79.9269 36.2842 79.5971 37.1492C79.1116 38.3247 78.9035 39.6386 79.1809 40.8834C79.4584 42.2664 80.0827 43.3037 80.707 44.4102L81.7474 46.4847C82.4411 48.5593 81.9555 50.8413 81.47 53.0542C81.1925 54.1607 80.9151 55.8895 80.7763 57.6874C80.4295 60.8685 80.6376 61.1451 80.9151 61.4908L81.2619 62.044H81.8862L81.9555 62.1132H82.0249C83.2735 62.1132 83.4816 60.9376 83.6897 60.2461L83.9671 58.2407L84.7995 54.0915V54.0224C85.1904 52.4695 85.8475 50.9956 86.7418 49.6658C87.5384 47.7337 87.962 45.6691 87.9904 43.5803C88.0597 41.9207 88.1291 40.1227 87.5742 38.4631C87.158 37.1492 86.5337 36.181 85.6319 35.4895C84.9383 34.9363 83.9672 34.6597 83.0654 34.6597V34.6597Z" fill="#976014"/>
<path d="M103.459 27.3988L103.945 26.9147C105.054 25.8774 106.442 25.0476 107.69 24.3561C108.868 23.5853 110.236 23.1545 111.644 23.1113C112.615 23.1805 113.656 23.7337 113.794 24.7018C113.933 25.6008 113.378 26.4306 112.338 26.9147C111.367 27.3988 110.326 27.6062 109.355 27.8137L104.777 28.4361H104.43L103.528 27.3988H103.459Z" fill="url(#fg_grain_paint20_radial_1603_606923)"/>
<path d="M111.366 23.803H111.574C112.268 23.8721 112.961 24.2179 113.1 24.8403C113.239 25.5318 112.615 26.0158 111.99 26.2925C111.158 26.7765 110.187 26.984 109.216 27.1223C107.759 27.3989 106.233 27.6064 104.707 27.7447L104.43 27.3989C105.516 26.4141 106.729 25.577 108.037 24.9094C109.077 24.3562 110.117 23.803 111.366 23.803V23.803ZM111.366 22.4199C109.84 22.4199 108.453 23.1114 107.343 23.7338C106.025 24.4253 104.638 25.3243 103.458 26.4308L102.557 27.3297L103.389 28.2979L103.597 28.5745L104.083 29.1969L104.776 29.1277L109.493 28.4362C110.464 28.2979 111.574 28.0904 112.615 27.5372C114.002 26.8457 114.696 25.8084 114.488 24.6328C114.279 23.2497 112.892 22.5582 111.713 22.4199H111.366V22.4199Z" fill="#976014"/>
<path d="M103.25 25.6006C103.528 23.1803 104.429 20.8982 105.886 18.962C106.025 18.6854 106.51 18.063 107.273 18.063C107.967 18.063 108.452 18.5471 108.661 19.1003C108.73 19.5843 108.661 20.0684 108.591 20.345C108.383 21.1057 108.175 22.0047 107.759 22.7654C107.065 24.1484 105.678 25.1857 104.568 26.0847L103.111 27.122L103.25 25.6006V25.6006Z" fill="url(#fg_grain_paint21_radial_1603_606923)"/>
<path d="M107.273 18.6855C107.619 18.7546 107.897 19.0312 107.966 19.377V20.2068C107.758 20.8984 107.55 21.7282 107.134 22.4197C106.44 23.6645 105.261 24.6326 104.151 25.5316L103.943 25.6699C104.221 23.3878 105.053 21.2441 106.44 19.3079C106.648 19.0312 106.926 18.7546 107.273 18.7546V18.6855ZM107.273 17.3716C106.579 17.3716 105.885 17.7865 105.33 18.5472C103.804 20.6217 102.833 23.0421 102.556 25.4624L102.209 28.6434L104.776 26.7763L104.984 26.638C106.163 25.6699 107.55 24.5634 108.383 23.1112C108.868 22.2123 109.076 21.3133 109.284 20.4834C109.284 20.1377 109.423 19.5845 109.284 18.9621C109.179 18.5221 108.932 18.1286 108.581 17.8415C108.231 17.5543 107.795 17.3893 107.342 17.3716H107.273Z" fill="#976014"/>
<path d="M109.354 23.0424V22.9732L107.967 22.6966L108.106 22.2125L109.701 21.521L109.354 22.904V23.0424Z" fill="url(#fg_grain_paint22_radial_1603_606923)"/>
<path d="M108.729 22.6966V22.8349V22.6966ZM110.81 20.1379L108.174 21.521L107.481 21.7284L107.342 22.4891V22.6274L110.116 23.0423L109.978 23.2498L110.047 23.1115L110.879 20.1379H110.81Z" fill="#976014"/>
<path d="M98.7425 25.2548C98.7425 24.7016 98.8812 24.0101 99.1587 23.3877C99.3206 23.0787 99.558 22.8153 99.8489 22.6219C100.14 22.4285 100.475 22.3114 100.823 22.2812H100.893C101.725 22.2812 102.349 22.8345 102.696 23.3877C103.182 24.3558 103.182 25.5314 102.696 26.707C102.25 27.6414 101.665 28.5038 100.962 29.2657C100.407 29.888 99.9217 30.4412 99.5749 31.1328L98.0488 34.0372L98.7425 25.2548Z" fill="url(#fg_grain_paint23_radial_1603_606923)"/>
<path d="M100.891 22.9729C101.377 22.9729 101.862 23.3187 102.07 23.7336C102.556 24.5634 102.417 25.6007 102.07 26.4997C101.654 27.3295 101.03 28.0902 100.406 28.7817C99.8749 29.4005 99.4099 30.0726 99.0184 30.7871L99.4346 25.2549C99.4346 24.7709 99.504 24.2176 99.7814 23.7336C99.9895 23.3187 100.406 23.042 100.822 22.9729H100.891V22.9729ZM100.891 21.5898H100.753C99.8508 21.5898 99.0184 22.2122 98.5328 23.1112C98.186 23.8027 98.1166 24.5634 98.0473 25.1858L97.9086 27.0529L97.6311 30.6488L97.0762 37.2875L100.198 31.4095L101.516 29.6807C102.14 28.9892 102.903 28.0902 103.319 26.9837C103.943 25.6007 103.874 24.2176 103.319 23.042C103.082 22.605 102.732 22.2395 102.305 21.984C101.878 21.7285 101.389 21.5923 100.891 21.5898V21.5898Z" fill="#976014"/>
<path d="M93.747 41.7823H92.8452L91.666 41.644L92.7759 40.0535C93.5389 38.6013 94.6487 37.2182 95.9667 36.1118C96.4522 35.6969 97.1459 35.1437 98.0476 34.8671C98.3945 34.7288 98.7413 34.7288 99.1575 34.7288C99.7124 34.7288 100.267 34.8671 100.684 35.0745C101.152 35.383 101.515 35.8257 101.725 36.3442C101.936 36.8627 101.984 37.4327 101.863 37.9789C101.598 38.9698 100.949 39.8154 100.059 40.3301C99.2269 40.8833 98.1864 41.1599 97.4234 41.3674C96.1748 41.644 94.9262 41.7823 93.8163 41.7823H93.747Z" fill="url(#fg_grain_paint24_radial_1603_606923)"/>
<path d="M99.159 35.4202C99.5752 35.4202 99.9914 35.4202 100.338 35.6968C100.661 35.9273 100.911 36.2452 101.059 36.6128C101.206 36.9804 101.245 37.3824 101.171 37.7713C101.075 38.1857 100.896 38.5767 100.646 38.9212C100.396 39.2656 100.079 39.5565 99.714 39.7768C99.0203 40.1917 98.1185 40.4683 97.2862 40.6758C95.8567 41.0205 94.3852 41.1602 92.9161 41.0907L93.4017 40.3991C94.0953 39.0161 95.1358 37.633 96.3844 36.5958C96.9393 36.1808 97.4942 35.7659 98.1879 35.5585C98.5347 35.4202 98.8816 35.4202 99.159 35.4202V35.4202ZM99.159 34.0371C98.6735 34.0371 98.2573 34.0371 97.7717 34.2446C96.9227 34.5464 96.1439 35.0169 95.4827 35.6276C94.0953 36.7341 92.9855 38.1171 92.2225 39.7076L91.8063 40.2608L90.3496 42.2663L92.8468 42.4046C94.4313 42.5314 96.0259 42.3911 97.5636 41.9897C98.396 41.8513 99.5059 41.5056 100.477 40.9524C101.587 40.2608 102.28 39.2235 102.558 38.1863C102.712 37.4931 102.648 36.7695 102.375 36.1137C102.102 35.458 101.633 34.902 101.032 34.5212C100.477 34.1754 99.8527 34.0371 99.159 34.0371V34.0371Z" fill="#976014"/>
<path d="M108.039 22.5581C108.247 21.7283 108.802 21.0368 109.357 20.4836C110.259 19.5154 111.438 18.409 112.825 18.3398H113.103C113.38 18.3398 113.588 18.3398 113.797 18.4781C114.282 18.6856 114.629 19.1697 114.698 19.6537C114.768 20.5527 114.213 21.4517 113.242 22.0049C112.687 22.2815 112.062 22.4198 111.508 22.489L111.022 22.6273C110.328 22.7656 109.635 23.0422 109.01 23.3188L107.623 24.0103L108.039 22.5581V22.5581Z" fill="url(#fg_grain_paint25_radial_1603_606923)"/>
<path d="M113.171 19.0313H113.518C113.795 19.2388 113.934 19.5154 114.003 19.7228C114.003 20.4144 113.518 21.0367 112.893 21.3825C112.269 21.6591 111.506 21.7974 110.812 21.9357L108.731 22.6964C108.87 22.0049 109.425 21.4517 109.841 20.9676C110.674 20.0686 111.645 19.1696 112.963 19.0313H113.101H113.171ZM113.101 17.6483C113.009 17.6446 112.916 17.6446 112.824 17.6483C111.09 17.7866 109.772 19.0313 108.87 19.9995C108.193 20.6477 107.692 21.4567 107.413 22.3506L106.65 25.255L109.356 23.9411C109.93 23.6469 110.535 23.4151 111.159 23.2496H111.645C112.2 23.0422 112.893 22.9039 113.518 22.5581C114.766 21.9357 115.529 20.7601 115.39 19.5845C115.343 19.1879 115.19 18.8114 114.945 18.4949C114.701 18.1783 114.376 17.9336 114.003 17.7866L113.101 17.6483V17.6483Z" fill="#976014"/>
<path d="M68.8408 30.9942C70.4362 32.0315 73.4883 35.1434 71.9623 36.8722C70.4362 38.6701 67.3841 36.5264 66.2743 35.7657C64.0546 34.3135 62.5285 31.7549 64.1933 30.3718C65.9275 28.9888 67.3148 30.0261 68.8408 31.0634V30.9942ZM68.1472 25.9461C69.0489 26.7759 71.0605 27.6749 72.1704 26.6376C74.0432 24.7705 69.6039 20.4139 67.8003 21.7969C65.9968 23.18 66.8986 24.7013 68.1472 25.9461ZM71.7542 15.3657C72.9334 14.2593 74.8756 15.2274 75.6387 16.7488C76.1936 17.7169 76.7485 19.584 75.6387 20.6213C74.3901 21.5895 72.5172 19.9298 71.8929 18.8234C71.2686 17.7169 70.575 16.4722 71.7542 15.3657ZM79.5925 12.7379C78.552 13.6369 77.0953 13.0837 76.4711 11.9081C75.9161 10.8017 75.9855 9.48778 77.2341 9.07286C79.315 8.38134 80.9105 11.4932 79.5925 12.7379ZM84.1706 6.58338C84.7949 5.89185 84.9337 2.57253 83.3382 2.98745C80.0087 3.88643 82.2978 8.65795 84.1706 6.58338ZM87.9857 5.54609C88.6794 5.33863 89.165 3.95558 89.0956 3.33321C89.0262 2.64169 88.4019 1.67355 87.5696 2.43423C86.6678 3.12575 86.1129 6.30677 87.9857 5.54609ZM91.2459 6.72168C90.1361 6.09931 87.9857 8.24304 88.7488 9.97185C89.2343 11.1474 92.3558 7.34405 91.2459 6.72168ZM86.3903 18.2701C85.3498 19.4457 83.6157 20.3447 82.5752 19.3766C81.396 18.2701 82.7833 15.919 83.6851 14.8817C84.3787 13.9135 86.4597 13.2912 87.1534 15.02C87.7083 16.403 87.1534 17.4403 86.4597 18.2701H86.3903ZM82.714 23.2491C80.2168 22.9725 76.8872 28.4356 80.7717 29.3345C82.2978 29.6803 83.6851 28.5739 84.24 27.1217C84.5868 26.4301 85.2805 23.5257 82.714 23.2491ZM82.3671 34.6593C82.7833 34.1752 81.2573 33.4145 80.633 33.4145C79.6619 33.2762 78.3439 33.8986 77.8584 34.7284C77.026 36.3189 77.5809 37.9095 79.1763 38.8776C79.5231 37.7711 79.5231 37.1488 80.0781 36.3189C80.7024 35.42 81.4654 35.005 82.3671 34.6593V34.6593ZM79.5925 42.2661C77.2341 43.4417 76.9566 49.043 80.633 48.7664C84.0319 48.4206 79.87 43.8566 79.5925 42.2661ZM67.3841 43.4417C69.6732 40.5372 74.2513 46.761 72.2397 48.2132C70.2975 49.5962 66.3437 44.7555 67.3841 43.3725V43.4417ZM80.7717 37.9786C80.9286 37.4278 81.253 36.9391 81.7003 36.5799C82.1476 36.2206 82.6956 36.0087 83.2689 35.9732C84.3787 35.9732 84.8643 36.3189 85.3498 37.2179C86.1822 38.8084 86.0435 41.7128 84.3094 42.681C81.8122 43.9257 80.2862 39.4308 80.7717 37.9786ZM87.5002 32.6539C87.847 31.6166 88.3326 30.2335 89.3731 30.2335C90.0667 30.2335 90.691 31.5474 90.7604 32.1698C91.1766 33.4145 90.7604 34.9359 89.9974 35.904C88.8181 37.2871 87.7083 36.6647 87.3615 35.1434C87.1534 34.0369 87.2227 33.7603 87.5002 32.6539V32.6539ZM94.8529 27.0525C92.772 27.744 91.7315 32.8613 94.4367 32.9305C95.8934 32.9305 96.7952 30.8559 96.9339 29.542C97.0726 28.5739 96.5871 25.9461 95.1304 27.26C95.1304 27.3983 94.9917 27.26 95.1304 27.26C95.1304 27.26 96.7952 26.4301 94.8529 27.0525ZM100.68 22.9034C102.622 23.0417 102.622 26.7759 100.818 27.0525C98.668 27.4674 99.4311 22.9034 100.749 22.9034H100.68ZM106.021 22.4193C106.784 22.281 107.547 21.0362 107.755 20.4139C107.824 20.0681 107.963 18.0627 106.853 18.9617C105.674 19.7915 104.356 22.6959 106.021 22.4193ZM112.819 19.1C111.431 19.1 109.489 21.0362 111.431 21.382C111.842 21.4354 112.26 21.3652 112.631 21.1804C113.002 20.9956 113.309 20.7046 113.512 20.3447C113.79 19.7224 114.206 19.0308 112.819 19.1ZM112.333 23.9406C113.512 24.6322 112.541 25.6695 111.778 26.0844C111.084 26.4993 109.42 26.8451 108.657 26.4993C106.229 25.5312 110.738 23.0417 112.333 23.9406V23.9406ZM105.882 29.542C104.911 28.8505 102.067 30.5101 102.067 31.824C102.067 32.6539 104.148 32.4464 104.703 32.1006C105.119 31.8932 107.131 30.3718 105.882 29.542ZM99.7085 35.6274C101.651 35.8349 100.472 38.5318 99.7085 39.2233C98.5293 40.1223 96.7258 40.7447 95.616 39.7074C94.7142 38.8084 95.3385 37.3562 96.3096 36.5264C97.3501 35.8349 97.8357 35.4891 99.7779 35.6274H99.7085ZM95.2691 43.8566C96.2403 46.8301 89.6505 50.1494 89.6505 46.2769C89.6505 44.8939 91.2459 42.9576 92.7026 42.7501C93.9512 42.5427 94.9223 42.7501 95.2691 43.8566ZM50.8058 52.8464C51.9156 52.0166 57.4649 52.4315 59.5458 53.1921C63.6245 54.7728 67.4372 56.9649 70.8524 59.6925C73.6271 61.9054 81.0492 68.544 77.789 68.9589C63.1528 53.8145 57.0487 53.1921 54.7596 52.8464C53.1642 52.5698 50.4589 53.123 50.8058 52.8464V52.8464ZM116.842 47.7291C109.271 49.6307 102.244 53.2518 96.3096 58.3094C94.4367 60.1074 85.9048 68.4748 85.9741 69.7887C88.8181 74.007 94.9223 60.4532 103.246 55.4742C105.397 54.1603 116.703 48.2132 116.842 47.7983V47.7291Z" fill="#EACE59"/>
<defs>
<radialGradient id="fg_grain_paint0_radial_1603_606923" cx="0" cy="0" r="1" gradientUnits="userSpaceOnUse" gradientTransform="translate(64.8212 61.4211) scale(12.4858 12.4474)">
<stop stop-color="#F2C024"/>
<stop offset="1" stop-color="#F2C024"/>
</radialGradient>
<radialGradient id="fg_grain_paint1_radial_1603_606923" cx="0" cy="0" r="1" gradientUnits="userSpaceOnUse" gradientTransform="translate(100.47 59.4852) scale(15.0523 15.0061)">
<stop stop-color="#F2C024"/>
<stop offset="1" stop-color="#F2C024"/>
</radialGradient>
<radialGradient id="fg_grain_paint2_radial_1603_606923" cx="0" cy="0" r="1" gradientUnits="userSpaceOnUse" gradientTransform="translate(73.9086 51.7401) scale(8.74006 8.71321)">
<stop stop-color="#F2C024"/>
<stop offset="1" stop-color="#F2C024"/>
</radialGradient>
<radialGradient id="fg_grain_paint3_radial_1603_606923" cx="0" cy="0" r="1" gradientUnits="userSpaceOnUse" gradientTransform="translate(68.9141 37.7022) scale(7.42212 7.39931)">
<stop stop-color="#F2C024"/>
<stop offset="1" stop-color="#F2C024"/>
</radialGradient>
<radialGradient id="fg_grain_paint4_radial_1603_606923" cx="0" cy="0" r="1" gradientUnits="userSpaceOnUse" gradientTransform="translate(71.2021 28.4356) scale(6.6591 6.63864)">
<stop stop-color="#F2C024"/>
<stop offset="1" stop-color="#F2C024"/>
</radialGradient>
<radialGradient id="fg_grain_paint5_radial_1603_606923" cx="0" cy="0" r="1" gradientUnits="userSpaceOnUse" gradientTransform="translate(74.324 20.8289) scale(5.47988 5.46305)">
<stop stop-color="#F2C024"/>
<stop offset="1" stop-color="#F2C024"/>
</radialGradient>
<radialGradient id="fg_grain_paint6_radial_1603_606923" cx="0" cy="0" r="1" gradientUnits="userSpaceOnUse" gradientTransform="translate(78.4176 13.4987) scale(4.37003 4.3566)">
<stop stop-color="#F2C024"/>
<stop offset="1" stop-color="#F2C024"/>
</radialGradient>
<radialGradient id="fg_grain_paint7_radial_1603_606923" cx="0" cy="0" r="1" gradientUnits="userSpaceOnUse" gradientTransform="translate(83.0634 8.24362) scale(4.57812 4.56406)">
<stop stop-color="#F2C024"/>
<stop offset="1" stop-color="#F2C024"/>
</radialGradient>
<radialGradient id="fg_grain_paint8_radial_1603_606923" cx="0" cy="0" r="1" gradientUnits="userSpaceOnUse" gradientTransform="translate(87.6454 5.0623) scale(2.98272 2.97356)">
<stop stop-color="#F2C024"/>
<stop offset="1" stop-color="#F2C024"/>
</radialGradient>
<radialGradient id="fg_grain_paint9_radial_1603_606923" cx="0" cy="0" r="1" gradientUnits="userSpaceOnUse" gradientTransform="translate(80.9153 47.5221) scale(5.2718 5.25559)">
<stop stop-color="#F2C024"/>
<stop offset="1" stop-color="#F2C024"/>
</radialGradient>
<radialGradient id="fg_grain_paint10_radial_1603_606923" cx="0" cy="0" r="1" gradientUnits="userSpaceOnUse" gradientTransform="translate(80.1494 37.8409) scale(4.8556 4.84068)">
<stop stop-color="#F2C024"/>
<stop offset="1" stop-color="#F2C024"/>
</radialGradient>
<radialGradient id="fg_grain_paint11_radial_1603_606923" cx="0" cy="0" r="1" gradientUnits="userSpaceOnUse" gradientTransform="translate(81.057 27.6749) scale(4.8556 4.84067)">
<stop stop-color="#F2C024"/>
<stop offset="1" stop-color="#F2C024"/>
</radialGradient>
<radialGradient id="fg_grain_paint12_radial_1603_606923" cx="0" cy="0" r="1" gradientUnits="userSpaceOnUse" gradientTransform="translate(83.8272 18.2702) scale(4.85559 4.84067)">
<stop stop-color="#F2C024"/>
<stop offset="1" stop-color="#F2C024"/>
</radialGradient>
<radialGradient id="fg_grain_paint13_radial_1603_606923" cx="0" cy="0" r="1" gradientUnits="userSpaceOnUse" gradientTransform="translate(88.5475 9.34953) scale(3.67638 3.66508)">
<stop stop-color="#F2C024"/>
<stop offset="1" stop-color="#F2C024"/>
</radialGradient>
<radialGradient id="fg_grain_paint14_radial_1603_606923" cx="0" cy="0" r="1" gradientUnits="userSpaceOnUse" gradientTransform="translate(91.5266 46.208) scale(4.78622 4.77152)">
<stop stop-color="#F2C024"/>
<stop offset="1" stop-color="#F2C024"/>
</radialGradient>
<radialGradient id="fg_grain_paint15_radial_1603_606923" cx="0" cy="0" r="1" gradientUnits="userSpaceOnUse" gradientTransform="translate(89.1004 36.4577) scale(5.4105 5.39389)">
<stop stop-color="#F2C024"/>
<stop offset="1" stop-color="#F2C024"/>
</radialGradient>
<radialGradient id="fg_grain_paint16_radial_1603_606923" cx="0" cy="0" r="1" gradientUnits="userSpaceOnUse" gradientTransform="translate(95.1355 32.3087) scale(4.92494 4.90982)">
<stop stop-color="#F2C024"/>
<stop offset="1" stop-color="#F2C024"/>
</radialGradient>
<radialGradient id="fg_grain_paint17_radial_1603_606923" cx="0" cy="0" r="1" gradientUnits="userSpaceOnUse" gradientTransform="translate(98.605 30.2341) scale(2.15032 2.14372)">
<stop stop-color="#F2C024"/>
<stop offset="1" stop-color="#F2C024"/>
</radialGradient>
<radialGradient id="fg_grain_paint18_radial_1603_606923" cx="0" cy="0" r="1" gradientUnits="userSpaceOnUse" gradientTransform="translate(102.767 31.4093) scale(3.67638 3.66508)">
<stop stop-color="#F2C024"/>
<stop offset="1" stop-color="#F2C024"/>
</radialGradient>
<radialGradient id="fg_grain_paint19_radial_1603_606923" cx="0" cy="0" r="1" gradientUnits="userSpaceOnUse" gradientTransform="translate(83.5502 48.3517) scale(9.64184 9.61219)">
<stop stop-color="#F2C024"/>
<stop offset="1" stop-color="#F2C024"/>
</radialGradient>
<radialGradient id="fg_grain_paint20_radial_1603_606923" cx="0" cy="0" r="1" gradientUnits="userSpaceOnUse" gradientTransform="translate(108.661 25.8083) scale(4.09257 4.07999)">
<stop stop-color="#F2C024"/>
<stop offset="1" stop-color="#F2C024"/>
</radialGradient>
<radialGradient id="fg_grain_paint21_radial_1603_606923" cx="0" cy="0" r="1" gradientUnits="userSpaceOnUse" gradientTransform="translate(105.886 22.6271) scale(3.74574 3.73423)">
<stop stop-color="#F2C024"/>
<stop offset="1" stop-color="#F2C024"/>
</radialGradient>
<radialGradient id="fg_grain_paint22_radial_1603_606923" cx="0" cy="0" r="1" gradientUnits="userSpaceOnUse" gradientTransform="translate(108.869 22.2817) scale(0.76301 0.76068)">
<stop stop-color="#F2C024"/>
<stop offset="1" stop-color="#F2C024"/>
</radialGradient>
<radialGradient id="fg_grain_paint23_radial_1603_606923" cx="0" cy="0" r="1" gradientUnits="userSpaceOnUse" gradientTransform="translate(100.546 28.1592) scale(4.50877 4.49491)">
<stop stop-color="#F2C024"/>
<stop offset="1" stop-color="#F2C024"/>
</radialGradient>
<radialGradient id="fg_grain_paint24_radial_1603_606923" cx="0" cy="0" r="1" gradientUnits="userSpaceOnUse" gradientTransform="translate(96.7991 38.2555) scale(4.43939 4.42576)">
<stop stop-color="#F2C024"/>
<stop offset="1" stop-color="#F2C024"/>
</radialGradient>
<radialGradient id="fg_grain_paint25_radial_1603_606923" cx="0" cy="0" r="1" gradientUnits="userSpaceOnUse" gradientTransform="translate(111.161 21.1751) scale(3.19082 3.18101)">
<stop stop-color="#F2C024"/>
<stop offset="1" stop-color="#F2C024"/>
</radialGradient>
</defs>

</g>
</svg>
