<svg width="347" height="401" viewBox="0 0 347 401" fill="none" xmlns="http://www.w3.org/2000/svg">
<g clip-path="url(#clip0_64_282)">
<path d="M4.40991 104.695V296.695L173.41 396.695L342.41 296.695V104.695L173.41 4.69507L4.40991 104.695Z" fill="url(#paint0_radial_64_282)"/>
<path d="M173.41 34.1951L317.443 117.395V283.995L173.41 367.195L29.3764 283.995V117.395L173.41 34.1951ZM173.41 4.69507L4.40991 104.695V296.695L173.41 396.695L342.41 296.695V104.695L173.41 4.69507Z" fill="url(#paint1_linear_64_282)"/>
<path d="M173.41 29.5951L321.439 115.095V286.295L173.41 371.695L25.381 286.295V115.095L173.41 29.6951M173.41 4.69507L4.40991 104.695V296.695L173.41 396.695L342.41 296.695V104.695L173.41 4.69507Z" fill="url(#paint2_linear_64_282)"/>
<path d="M173.41 15.6951L333.425 108.195V293.195L173.41 385.695L13.3949 293.195V108.195L173.41 15.6951ZM173.41 4.69507L4.40991 104.695V296.695L173.41 396.695L342.41 296.695V104.695L173.41 4.69507Z" fill="#636664"/>
<path d="M173.41 13.3951L335.423 106.995V294.295L173.41 387.995L11.3972 294.295V107.095L173.41 13.3951ZM173.41 0.695068L0.409912 100.695V300.695L173.41 400.695L346.41 300.695V100.695L173.41 0.695068Z" fill="#E0B568"/>
</g>
<defs>
<radialGradient id="paint0_radial_64_282" cx="0" cy="0" r="1" gradientUnits="userSpaceOnUse" gradientTransform="translate(173.41 200.695) scale(186.884 187.1)">
<stop stop-color="#B7BDB9"/>
<stop offset="0.3" stop-color="#AEB4B0"/>
<stop offset="0.9" stop-color="#969C98"/>
<stop offset="1" stop-color="#909692"/>
</radialGradient>
<linearGradient id="paint1_linear_64_282" x1="173.41" y1="400.695" x2="173.41" y2="0.695072" gradientUnits="userSpaceOnUse">
<stop stop-color="#D2D9D5"/>
<stop offset="0.1" stop-color="#C8CECA"/>
<stop offset="0.3" stop-color="#B1B6B3"/>
<stop offset="0.5" stop-color="#A8ADAA"/>
<stop offset="0.7" stop-color="#636664"/>
</linearGradient>
<linearGradient id="paint2_linear_64_282" x1="173.41" y1="0.695069" x2="173.41" y2="400.695" gradientUnits="userSpaceOnUse">
<stop stop-color="#D2D9D5"/>
<stop offset="0.1" stop-color="#C8CECA"/>
<stop offset="0.3" stop-color="#B1B6B3"/>
<stop offset="0.5" stop-color="#A8ADAA"/>
<stop offset="0.7" stop-color="#636664"/>
<stop offset="1" stop-color="#A8ADAA"/>
</linearGradient>
<clipPath id="clip0_64_282">
<rect width="346" height="400" fill="white" transform="translate(0.409912 0.695068)"/>
</clipPath>
</defs>

<g transform="translate(52.05000000000001, 69.4) scale(1.3201086956521737)">

<path d="M25.9634 46.5561C24.8536 46.5561 23.8131 46.8327 22.9114 47.3167C22.3221 45.7901 21.2711 44.484 19.9039 43.5795C18.5368 42.675 16.9213 42.2169 15.2814 42.2686C10.9808 42.2686 7.37385 45.5188 7.37385 49.4605L7.44322 50.2903H7.23512C3.55883 50.2903 0.576172 52.6415 0.576172 55.4767C0.576172 58.312 3.62819 59.5567 7.30449 59.5567C10.4952 59.5567 12.2293 58.6577 13.7553 56.4449C14.3103 56.5832 16.2525 55.2001 16.738 55.2001C18.4027 55.0618 19.79 54.7852 21.5935 53.8171C22.9114 54.3703 24.923 54.0245 26.7264 54.0245C29.7784 54.0245 31.5125 53.4713 31.5125 51.051C31.5125 48.6306 29.0154 46.5561 25.9634 46.5561V46.5561ZM154.079 48.4923C154.829 46.4668 156.195 44.7252 157.985 43.5104C159.776 42.2955 161.902 41.668 164.067 41.7154C169.825 41.7154 174.472 46.072 174.472 51.3967V52.5723H174.68C179.535 52.5723 183.42 55.6842 183.42 59.4876C183.42 63.291 179.466 65.0198 174.611 65.0198C170.379 65.0198 168.09 63.775 166.079 60.8706C165.385 61.0089 162.888 59.1418 162.194 59.1418C160.114 58.9343 158.241 58.5886 155.813 57.2747C151.79 56.1683 153.246 48.0774 154.079 48.4923Z" fill="#7B6A58"/>
<path d="M6.81966 50.498C4.0451 50.498 1.20117 52.296 1.20117 54.094C1.20117 55.8919 3.69828 58.5889 6.26475 57.4133C10.6347 55.3387 11.259 55.1313 11.259 53.2641C11.259 51.397 9.59423 50.498 6.81966 50.498Z" fill="#BAC8CA"/>
<path d="M15.0038 42.5454C11.2582 42.5454 7.99805 44.8966 7.99805 47.1095C7.99805 49.3224 11.1888 52.2268 14.7957 51.1895C17.7784 50.2905 19.0269 49.1149 21.5934 47.1095C23.3275 45.7264 18.8188 42.5454 15.0038 42.5454ZM26.3795 46.6946C24.8535 46.6254 23.1194 46.7637 22.9113 48.1468C22.7726 49.9447 24.2986 49.3915 26.3795 49.3915C28.4604 49.3915 30.5414 50.3596 30.5414 49.0457C30.5414 47.7318 28.0443 46.7637 26.3795 46.6946ZM174.541 51.5352C178.079 51.1895 181.894 53.3332 182.102 55.8227C182.31 58.3813 179.397 62.323 176.067 60.94C170.31 58.5888 169.478 58.3813 169.2 55.8918C168.923 53.4024 170.934 51.8118 174.541 51.5352V51.5352ZM163.235 41.439C167.952 41.0241 172.391 43.8593 172.668 46.9712C172.946 50.0139 169.2 54.3013 164.553 53.264C160.668 52.4342 158.865 50.9129 155.397 48.4234C153.038 46.7637 158.449 41.8539 163.235 41.439V41.439Z" fill="#BAC8CA"/>
<path d="M81.5229 39.3639C80.0373 39.3904 78.5613 39.1228 77.1802 38.5768C75.7991 38.0308 74.5403 37.2171 73.4766 36.1829C70.4246 33.6243 67.9275 30.6507 65.8466 27.3314C64.598 25.1877 61.8235 16.9585 63.7657 12.9477C65.5691 9.14431 68.968 6.51652 71.7425 4.6494C73.5489 3.34446 75.6896 2.57714 77.9159 2.43652C78.6789 2.43652 79.4419 2.57483 80.1356 2.85144C81.731 3.54296 82.7714 4.71856 83.6732 5.75584L92.4824 15.5755C94.2859 17.6501 96.1587 19.7246 97.6847 22.145C98.2396 22.9748 98.7945 24.0812 99.072 25.326C99.4188 27.0548 98.9333 29.0602 97.6847 31.0656C96.1488 33.3223 94.1356 35.216 91.7868 36.6138C89.438 38.0117 86.8106 38.8795 84.0893 39.1565L81.5922 39.3639H81.5229Z" fill="#E9F4EC"/>
<path d="M77.9153 3.81962C78.4702 3.81962 79.0945 3.81963 79.6494 4.09624C80.8286 4.5803 81.7303 5.61759 82.632 6.58572L91.3719 16.5437C93.1754 18.5491 94.9788 20.5545 96.4355 22.8366C96.921 23.6664 97.4759 24.5654 97.6147 25.6027C97.8411 27.2749 97.4463 28.9719 96.5049 30.3742C95.062 32.4593 93.1772 34.2029 90.9836 35.4815C88.7901 36.7602 86.3416 37.5426 83.8112 37.7735C83.1176 37.9118 82.2852 37.9809 81.5222 37.9809C80.343 37.9809 79.1638 37.8426 78.054 37.4277C76.6667 36.8745 75.4875 36.0447 74.3777 35.0765C71.4694 32.6687 68.9844 29.794 67.0251 26.5708C65.7072 24.4271 63.4875 16.7511 65.0136 13.501C66.6089 10.2508 69.5222 7.83047 72.5049 5.8942C74.0748 4.70567 75.9511 3.98622 77.9153 3.81962ZM77.9153 1.05353C75.1407 1.05353 72.6436 2.43657 70.9789 3.54301C67.4187 5.66034 64.4956 8.69389 62.5165 12.3254C60.2274 17.0277 63.3488 25.8793 64.6667 28.023C66.7477 31.4806 69.4529 34.5925 72.5742 37.2203C73.7534 38.1192 75.2794 39.2948 77.1523 39.9864C78.4702 40.4704 79.9268 40.6779 81.5222 40.6779C82.3546 40.6779 83.2563 40.6779 84.2274 40.5396C90.6089 39.7098 96.0193 36.4596 98.7939 31.7572C100.181 29.4752 100.736 27.124 100.389 25.0494C100.042 23.5972 99.4181 22.3525 98.7245 21.3844C97.1985 18.8949 95.2563 16.7511 93.4528 14.6766L84.713 4.78776C83.6496 3.40142 82.2706 2.28732 80.6898 1.53759C79.7881 1.19183 78.8864 0.984375 77.9153 0.984375V1.05353Z" fill="#7B6A58"/>
<path d="M96.4329 30.3051C97.3986 28.9122 97.8182 27.2144 97.612 25.5336C97.404 24.5655 96.9184 23.6665 96.4329 22.8366C96.1554 24.9112 86.7219 22.1451 84.8491 22.8366C81.3809 24.0122 81.5196 28.9221 77.4965 28.3688C72.641 27.6773 67.7855 25.6719 64.5254 18.6875C64.5254 25.6719 71.4618 32.6563 74.3751 35.0766C75.4849 35.9756 76.7335 36.8746 78.0514 37.3587C79.9242 38.0502 81.9358 38.0502 83.8086 37.7736C86.3327 37.5249 88.7713 36.7272 90.9525 35.4368C93.1338 34.1464 95.0045 32.3947 96.4329 30.3051V30.3051Z" fill="#9FA5A5"/>
<path d="M65.9843 46.5563C62.6485 46.5849 59.3503 45.8515 56.3427 44.4125C53.9843 43.2369 52.1809 41.3007 51.5566 39.0878C50.9866 35.5653 51.1519 31.9634 52.0421 28.5075C52.5277 26.7787 53.6375 24.3583 55.7878 22.7678C55.9265 22.6295 57.0364 21.938 58.493 21.938L59.4641 22.0071C61.0595 22.4912 62.2387 23.6668 63.2098 24.7732L67.441 29.8905L69.3832 32.38C70.5624 33.9014 71.9496 35.6302 72.5739 37.7048C72.9969 38.8329 73.117 40.0516 72.9223 41.2403C72.7277 42.4289 72.225 43.5462 71.4641 44.4817C70.3121 45.6843 68.7568 46.4227 67.0941 46.5563H65.9843Z" fill="#E9F4EC"/>
<path d="M58.4952 23.3208H59.0501C60.368 23.7357 61.2697 24.7038 62.1715 25.672C63.6281 27.3316 64.946 29.0604 66.3333 30.7893L68.2755 33.2096C69.4547 34.7309 70.7032 36.3215 71.2581 38.0503C71.8824 39.9174 71.7437 42.1303 70.4258 43.5825C69.4983 44.5099 68.2675 45.0744 66.9576 45.173H65.9865C65.0154 45.173 63.9749 45.0347 63.0038 44.8964C60.9229 44.5506 58.842 44.1357 57.0385 43.1675C55.1657 42.2686 53.5703 40.6781 52.8767 38.6726C52.3765 35.4001 52.5416 32.0606 53.3622 28.853C53.9865 26.9167 55.027 25.1188 56.6223 23.874C56.6223 23.874 57.4547 23.3208 58.4952 23.3208V23.3208ZM58.4952 20.5547C57.2629 20.5594 56.0583 20.9196 55.027 21.592L54.9576 21.6611C53.0154 23.1133 51.4894 25.3262 50.7264 28.0923C49.7536 31.8182 49.5881 35.7079 50.2408 39.5025C51.0038 42.0611 53.0154 44.274 55.79 45.657C58.0096 46.8326 60.4374 47.2475 62.5183 47.5933C64.0752 47.8608 65.6574 47.9536 67.235 47.8699C69.3853 47.6625 71.2581 46.7635 72.5067 45.3804C73.4218 44.2675 74.0308 42.9365 74.274 41.518C74.5173 40.0995 74.3863 38.6424 73.894 37.2896C73.2003 34.9384 71.7437 33.1404 70.4258 31.5499L68.553 29.0604C67.1657 27.3316 65.7784 25.5337 64.2524 23.8049C63.122 22.3442 61.5743 21.2592 59.8131 20.693C59.3275 20.5547 58.9113 20.5547 58.4258 20.5547H58.4952Z" fill="#7B6A58"/>
<path d="M68.2775 33.2096L66.4046 30.7893L62.1734 25.6029C61.2717 24.6347 66.6127 31.9649 66.6127 35.63C66.6127 39.2259 66.474 40.8164 64.5318 41.992C62.5896 43.3751 60.2312 41.9229 56.9017 40.609C53.5723 39.2259 52.6012 33.9703 52.5318 35.2842C52.3931 38.3269 53.2254 41.3696 56.9711 43.1676C59.7457 44.4815 60.9249 44.5506 63.0058 44.8964C64.3237 45.1039 65.6416 45.2422 66.9595 45.1039C68.2775 44.9656 69.5954 44.4815 70.4277 43.5134C71.7457 42.1303 71.815 39.9174 71.2601 38.1195C70.7052 36.2524 69.4567 34.6618 68.2775 33.2788V33.2096Z" fill="#9FA5A5"/>
<path d="M124.877 42.2689C123.49 42.2689 122.103 41.7848 120.577 40.7475L119.398 40.056C118.704 39.5028 118.01 39.0187 117.247 38.6729L116.554 38.3963C115.583 37.9814 114.542 37.6357 113.779 36.6675C112.808 35.4919 112.531 33.7631 113.086 31.8268C113.849 28.8533 116.068 26.5713 117.664 25.1191L119.328 23.5286H119.467C120.23 23.0445 121.201 22.837 122.38 22.6987H123.282C126.473 22.6987 129.525 23.8743 131.467 26.1564C132.634 27.4499 133.399 29.0531 133.67 30.7715C133.941 32.4899 133.705 34.2498 132.993 35.8377C132.548 36.6766 132.013 37.4649 131.398 38.1889C130.01 39.9868 127.929 42.0614 125.155 42.1997H124.877V42.2689Z" fill="#E9F4EC"/>
<path d="M123.281 24.0127C125.917 24.0127 128.622 25.05 130.425 27.0554C131.397 28.1378 132.037 29.4749 132.271 30.9087C132.504 32.3425 132.321 33.8129 131.743 35.1462L130.356 37.29C128.969 39.0188 127.304 40.7476 125.154 40.8167H124.876C123.581 40.7463 122.331 40.315 121.269 39.572C120.159 38.8805 119.05 37.9815 117.801 37.4283C116.761 36.9442 115.581 36.6676 114.888 35.7686C114.055 34.8005 114.055 33.4174 114.402 32.1727C115.096 29.8215 116.761 27.8161 118.564 26.1564L120.159 24.7042C120.853 24.2893 121.685 24.151 122.448 24.0127H123.281V24.0127ZM123.281 21.2466H122.24C120.853 21.3849 119.743 21.7306 118.772 22.2839L118.495 22.4222L118.287 22.6296L116.691 24.151C114.375 26.0835 112.645 28.6221 111.697 31.4812C111.003 33.8323 111.42 36.0452 112.737 37.5666C113.627 38.5258 114.75 39.2402 115.998 39.6411L116.691 39.9178C117.316 40.1944 117.94 40.6093 118.633 41.1625L119.813 41.854C121.416 42.9804 123.331 43.5843 125.292 43.5828C128.552 43.4445 130.842 41.0242 132.506 39.0188C134.212 37.117 135.156 34.655 135.156 32.1035C135.156 29.552 134.212 27.09 132.506 25.1883C130.217 22.6988 126.888 21.2466 123.281 21.2466V21.2466Z" fill="#7B6A58"/>
<path d="M130.771 27.1938C128.482 25.3959 130.702 28.8535 129.73 30.1674C129.314 30.8589 127.788 32.5877 126.262 32.0345L120.921 31.7579C118.84 32.4494 115.233 30.0291 114.54 32.4494C114.193 33.625 113.915 34.7315 114.748 35.6996C115.441 36.5294 117.245 37.0826 118.216 37.5667C119.534 38.1199 120.574 39.0881 121.684 39.8487C122.863 40.5403 124.043 40.8169 125.36 40.7477C127.58 40.6786 129.245 38.8806 130.563 37.2209C131.118 36.5294 131.603 35.8379 131.95 35.1464C133.337 32.4494 133.06 29.061 130.771 27.1938V27.1938Z" fill="#9FA5A5"/>
<path d="M104.344 27.1244C103.445 27.13 102.555 26.9484 101.731 26.5912C100.907 26.2339 100.166 25.7089 99.5575 25.0498C99.0026 24.4966 98.5864 23.9434 98.1703 23.321L93.8697 17.3739C92.8292 15.9908 91.7888 14.4695 91.0258 12.7407C90.124 10.6661 89.8466 8.59152 90.3321 6.79355C90.7483 4.78813 92.2743 3.19762 92.413 2.99017L92.5518 2.85186L92.6905 2.78271C94.0778 1.88373 95.8812 1.39966 97.8928 1.39966H98.0315C99.7656 1.39966 101.361 1.74542 103.095 2.09118C105.8 2.78271 108.159 3.33593 110.309 4.78813C111.349 5.47965 112.251 6.37864 113.084 7.13932C113.638 7.76169 114.401 8.45321 114.748 9.42134C115.164 10.4586 115.164 11.4959 115.095 12.1874C115.095 13.7088 114.956 15.0918 114.818 16.4749C114.819 18.5055 114.189 20.4866 113.014 22.1454C111.636 24.2998 109.553 25.9124 107.118 26.7095C106.147 26.9861 105.245 27.1244 104.344 27.1244V27.1244Z" fill="#E9F4EC"/>
<path d="M97.8926 2.78261H98.0313C99.6267 2.78261 101.222 3.12837 102.887 3.47413C105.176 4.02735 107.534 4.58057 109.546 5.89447C110.447 6.58599 111.28 7.34667 112.112 8.1765C112.687 8.6537 113.159 9.24174 113.5 9.90532C113.777 10.5968 113.777 11.4267 113.708 12.1873L113.5 16.4056C113.505 18.1911 112.947 19.933 111.904 21.3846C110.708 23.2715 108.895 24.6884 106.771 25.3955C105.8 25.6721 105.037 25.7412 104.343 25.7412C103.621 25.7412 102.906 25.587 102.248 25.2888C101.59 24.9906 101.004 24.5554 100.528 24.0124C100.043 23.5975 99.6961 23.0443 99.3492 22.5602L95.0487 16.544C94.0082 15.1609 92.9677 13.7779 92.2741 12.1873C91.5176 10.6188 91.2749 8.85281 91.5805 7.13922C91.9966 5.4104 93.4533 3.9582 93.4533 3.9582C94.7932 3.15899 96.3315 2.75161 97.8926 2.78261V2.78261ZM97.8926 0.0165059C95.7933 -0.0265906 93.7248 0.524931 91.9273 1.60702L91.6498 1.81447L91.4417 2.02193C91.0949 2.36769 89.4302 4.23481 88.9446 6.51684C88.4591 8.59142 88.7365 10.9426 89.777 13.2938C90.54 15.1609 91.7192 16.7514 92.7597 18.1345L97.0602 24.1507C97.4764 24.7731 97.962 25.3955 98.5862 26.0178C99.9042 27.2626 101.569 28.5073 104.343 28.5073C105.315 28.5073 106.424 28.369 107.534 28.0233C110.27 27.154 112.622 25.3712 114.193 22.9751C115.521 21.1153 116.247 18.8956 116.274 16.6131L116.482 12.3257C116.482 11.4958 116.552 10.2511 116.066 8.86803C115.58 7.62328 114.679 6.79345 114.054 6.17108C113.222 5.4104 112.251 4.44226 111.072 3.61243C108.575 1.88362 105.592 1.26125 103.442 0.846334C101.569 0.362266 99.9042 0.0165059 98.1007 0.0165059H97.8926V0.0165059Z" fill="#7B6A58"/>
<path d="M92.2715 12.1183C93.2426 15.161 97.8206 20.5549 99.2772 22.4912C99.6934 23.0444 100.04 23.5976 100.526 24.0125C101.705 25.1881 103.3 26.3637 106.769 25.3956C108.892 24.6885 110.705 23.2716 111.901 21.3847C112.387 20.6932 112.734 20.0017 113.011 19.241C113.289 18.342 113.358 17.3739 113.427 16.4057L113.705 12.1874C113.705 11.4268 113.705 10.5969 113.497 9.90541C113.219 9.21389 113.011 15.7834 111.832 16.4057C108.849 17.8579 96.364 17.6505 92.2715 12.1874V12.1183Z" fill="#9FA5A5"/>
<path d="M100.253 54.6469C99.5597 54.6469 98.7967 54.5086 98.0337 54.3703C96.0915 53.8171 94.3574 52.7798 93.1782 51.95C91.3197 50.7296 89.5782 49.3406 87.9759 47.8008C84.9239 44.7581 83.606 41.8537 84.0222 39.0876C84.2996 36.8747 85.7563 34.8002 87.9759 33.2788C89.7794 32.0341 91.8603 31.3425 93.7331 30.7893C95.2291 30.1132 96.6476 29.2786 97.9643 28.2998L98.7274 27.6083C99.5006 26.7189 100.461 26.01 101.54 25.5319C102.619 25.0539 103.79 24.8184 104.97 24.8422C106.565 24.8422 108.23 25.188 109.756 25.9487C112.392 27.3317 114.473 29.5446 116.346 31.8266C117.733 33.4171 119.19 35.3534 120.091 37.7046C121.34 40.8856 121.271 44.4815 119.883 47.6625C119.606 48.2849 119.19 49.1147 118.357 49.8754C117.317 50.8435 115.999 51.2584 114.82 51.5351C113.086 51.95 111.352 52.2266 109.548 52.2266H108.438C107.398 52.2266 106.357 52.2266 105.525 52.6415L104.831 53.1256L103.93 53.6788C102.889 54.3012 101.571 54.6469 100.253 54.6469Z" fill="#E9F4EC"/>
<path d="M104.969 26.2253C106.356 26.2253 107.813 26.571 109.131 27.1934C111.559 28.4382 113.501 30.5819 115.304 32.7256C116.692 34.3853 118.009 36.1832 118.772 38.1886C119.882 41.0739 119.807 44.2786 118.564 47.1093C118.285 47.7551 117.885 48.3418 117.385 48.8381C116.552 49.5457 115.548 50.0227 114.472 50.2212C112.877 50.5669 111.212 50.7744 109.547 50.8436H108.507C107.277 50.7344 106.039 50.9242 104.9 51.3968L103.235 52.5032C102.333 52.9873 101.293 53.1947 100.252 53.1947C99.5586 53.1947 99.0037 53.1947 98.3795 52.9873C96.7841 52.5724 95.2581 51.7425 93.8708 50.8436C92.1035 49.616 90.4548 48.2269 88.9459 46.6944C86.865 44.7581 84.9922 42.1303 85.4084 39.2951C85.6165 37.2205 87.0731 35.5609 88.7379 34.4544C90.4026 33.2788 92.3448 32.6565 94.287 32.0341C94.287 32.0341 97.4084 30.651 98.865 29.268C99.628 28.6456 100.322 27.8849 101.154 27.3317C102.283 26.5845 103.614 26.1985 104.969 26.2253V26.2253ZM104.969 23.4592C103.613 23.4303 102.266 23.6934 101.022 24.2304C99.7766 24.7674 98.6625 25.5658 97.7552 26.571L97.0615 27.2626C96.2292 27.9541 94.287 28.9222 93.2465 29.4754C91.3043 30.0978 89.0847 30.8585 87.1425 32.1724C84.6454 33.832 82.9806 36.3215 82.6338 38.8802C82.2176 42.1303 83.6743 45.4497 87.0038 48.6998C88.6428 50.3368 90.4308 51.8184 92.3448 53.1256C93.7321 54.0246 95.5355 55.2002 97.6858 55.6842C98.5182 55.8917 99.4199 56.03 100.252 56.03C101.848 56.03 103.304 55.6151 104.622 54.9235L105.593 54.232L106.148 53.8863C106.703 53.6096 107.605 53.6097 108.437 53.6097H109.547C111.42 53.6097 113.293 53.333 115.096 52.9181C116.414 52.5724 118.009 52.0883 119.258 50.8436C120.229 49.9446 120.784 48.9073 121.131 48.2158C122.657 44.7581 122.796 40.7473 121.408 37.1514C120.412 34.8746 119.053 32.773 117.385 30.9276C115.443 28.5765 113.223 26.2253 110.31 24.7039C108.649 23.8858 106.822 23.4599 104.969 23.4592V23.4592Z" fill="#7B6A58"/>
<path d="M115.514 32.7945C113.78 30.6508 113.017 30.0284 112.046 29.1986C109.965 27.3315 118.219 38.6725 115.861 40.263C115.028 40.8162 113.086 42.1993 112.323 42.8908C110.797 44.1356 102.404 44.9654 102.404 44.9654C100.462 45.5186 96.3694 44.343 92.5544 42.1993C90.7509 41.162 85.6179 37.3586 85.3405 39.364C84.9937 42.1993 86.8665 44.8962 88.9474 46.8325C90.4734 48.3539 92.2075 49.7369 94.011 50.9125C95.3789 51.8806 96.9042 52.6058 98.5197 53.0562C100.115 53.4711 101.918 53.402 103.375 52.5722C103.999 52.2264 104.485 51.8115 105.109 51.5349C106.497 50.8433 108.161 50.9125 109.757 50.8433C111.437 50.8422 113.112 50.6567 114.751 50.2901C115.791 50.0827 116.901 49.7369 117.734 48.9071C118.233 48.4108 118.633 47.824 118.913 47.1783C120.161 44.4122 120.231 41.0928 119.121 38.2576C118.288 36.183 116.971 34.4542 115.514 32.7254V32.7945Z" fill="#9FA5A5"/>

</g>
</svg>
