<svg xmlns="http://www.w3.org/2000/svg" xmlns:xlink="http://www.w3.org/1999/xlink" width="200" height="200" fill="none" xmlns:v="https://vecta.io/nano"><path d="M136.056 54.8l-.223 21.251-72.012-.756.223-21.253 72.012.758z" fill="#c9ad65"/><path d="M65.355 55.386l69.347.733-.198 18.584-69.347-.733.198-18.584h0zm-2.64-2.694l-.027 2.667-.197 18.584-.027 2.667 2.667.03 69.347.73 2.666.03.027-2.668.197-18.584.03-2.666-2.667-.027-69.35-.736-2.666-.027h0z" fill="#a5790a"/><path d="M90.84 75.505s-1.46-13.613-7.544-13.674c-7.648-.309-7.792 13.512-7.792 13.512l15.336.163v-.001zm19.43-14.48c-.073 6.81 2.49 12.36 5.722 12.392s5.91-5.459 5.981-12.27c.022-2.04-.46-6.5-.46-6.5l-10.326-.11c-.003.003-.899 4.635-.918 6.488h.001zm-39.308-4.514l.026-2.498-6.656.16-.626 10.496 1.893.018c2.915.032 5.315-3.629 5.363-8.176h0z" stroke="#e7b127" stroke-width="2" stroke-miterlimit="10"/><g fill="#faca4e"><path d="M72.181 60.752c-4.274-.045-6.882 6.595-6.882 6.595l-.504 6.482 14.477.291.195-2.344c.061-6.045-2.526-10.976-7.286-11.024h0zm34.464 2.723c-1.645-4.39-4.784-7.374-8.426-7.41-2.283-.025-4.392 1.12-6.078 3.042.011-.198.027-.395.03-.595.01-.997-.344-2.843-.344-2.843l-11.816-.125s-.392 1.837-.403 2.835c-.05 4.61 2.723 8.376 6.192 8.41 1.101.011 2.139-.357 3.048-1.008M73.994 58.09c-.021 2.012.99 3.653 2.258 3.667s2.313-1.607 2.334-3.618-.99-3.653-2.258-3.667-2.313 1.607-2.334 3.618z"/><path d="M84.675 72.774c.026-2.488-1.12-4.514-2.563-4.53s-2.632 1.99-2.659 4.474 1.14 2.904 2.58 2.92 2.615-.378 2.642-2.864h0zm35.842-15.426c-1.837-.019-3.349 2.136-3.378 4.81s1.44 4.864 3.277 4.883 3.35-2.136 3.379-4.81a6.66 6.66 0 0 0-.36-2.265c1.328 1.46 3.042 2.766 4.933 2.784.609.004 1.218-.051 1.816-.165-1.776 1.333-3.099 3.675-3.555 6.475-.931-.548-1.989-.845-3.069-.862-3.344-.034-7.05 6.315-7.05 6.315l17.994.195.192-13.182s-.714-.122-1.085-.125c-.152 0-.299.016-.448.027.587-.37 1.555-1.736 1.555-1.736l-.016-3.57-14.04-.15s.365.72 1.002 1.69c-.35-.199-.744-.306-1.147-.314h0z"/></g><path d="M111.672 55.877s-.688 2.688-.707 4.352c-.04 3.707 1.163 6.723 2.683 6.74s2.784-2.977 2.824-6.684c.016-1.664-.613-4.365-.613-4.365l-4.187-.043h0zm-5.31 15.734c.07-6.582-2.335-11.944-5.375-11.976s-5.558 5.277-5.627 11.858c-.01.963.123 2.8.123 2.8l10.701.112c-.003 0 .168-1.832.179-2.794h-.001zM91.036 57.264c.005-.557-.096-1.61-.096-1.61l-5.512-.06s-.123 1.051-.13 1.609c-.033 3.2 1.223 5.805 2.807 5.824s2.896-2.563 2.93-5.763h.001zM77.333 72.437c.056-5.258-1.362-9.536-3.168-9.554-3.269-.035-4.49 4.16-4.546 9.418l-.019 1.72 5.917.027 1.75.035c.002-.003.064-1.086.066-1.646h0zm49.155-15.392c-.027 2.363 1.347 4.294 3.061 4.312s3.128-1.882 3.155-4.248c.003-.344-.075-1-.075-1l-6.045-.08c.003 0-.093.664-.096 1.016h0zm2.976 12.558c-.021 1.96.939 5.058.939 5.058l4.104.043.17-11.557s-1.01-.782-1.584-.79c-1.962-.024-3.586 3.222-3.629 7.246zm-3.872 1.736c-2.304-.024-2.336 3.144-2.336 3.144l4.619.154c-.003 0-.304-3.277-2.283-3.298zm-4.499-6.068c.903.009 1.65-1.471 1.669-3.306s-.697-3.33-1.6-3.339-1.65 1.471-1.669 3.306.697 3.33 1.6 3.34zm-44.766-4.48c.895.009 1.636-1.399 1.654-3.146s-.693-3.17-1.588-3.179-1.636 1.399-1.654 3.146.693 3.17 1.588 3.179zm6.655 14.489c.919.01 1.678-1.33 1.696-2.993s-.713-3.018-1.632-3.028-1.678 1.33-1.696 2.993.713 3.018 1.632 3.028z" fill="#ffe08f"/><path d="M65.355 55.386l69.347.733-.198 18.584-69.347-.733.198-18.584zm-2.64-2.694l-.027 2.667-.197 18.584-.027 2.667 2.667.03 69.347.73 2.666.03.027-2.668.197-18.584.03-2.666-2.667-.027-69.35-.736-2.666-.027z" fill="#694d05"/><path d="M196.34 121.577l-17.078 12.646-42.855-57.877 17.079-12.647 42.854 57.878z" fill="#c9ad65"/><use xlink:href="#B" fill="#a5790a"/><path d="M180.214 99.9s-9.974 9.384-6.352 14.267c4.368 6.285 15.477-1.941 15.477-1.941l-9.125-12.327v.001zm-23.272-6.752c5.474-4.053 8.352-9.445 6.432-12.042s-7.92-1.416-13.392 2.637c-1.64 1.216-4.904 4.293-4.904 4.293l6.144 8.3c-.006 0 4.229-2.084 5.72-3.188zm20.12 34.067l-2.006 1.485 4.144 5.211 8.744-5.835-1.125-1.52c-1.736-2.34-6.104-2.048-9.757.66v-.001z" stroke="#e7b127" stroke-width="2" stroke-miterlimit="10"/><g fill="#faca4e"><path d="M179.71 123.683c2.544 3.434 9.413 1.506 9.413 1.506l5.475-3.509-8.504-11.72-1.987 1.259c-4.861 3.602-7.23 8.64-4.397 12.464h0zM161.08 94.56c-2.504 3.96-2.992 8.267-.824 11.192 1.358 1.835 3.544 2.824 6.096 3.01-.165.11-.33.217-.493.337-.8.592-2.059 1.99-2.059 1.99l7.032 9.495s1.704-.797 2.504-1.39c3.704-2.74 5.035-7.223 2.968-10.013-.656-.885-1.576-1.49-2.642-1.82m2.831 16.499c1.616-1.197 2.314-2.992 1.559-4.012s-2.676-.875-4.292.321-2.313 2.992-1.559 4.011 2.676.876 4.292-.32z"/><path d="M181.755 106.467c-2 1.48-2.923 3.618-2.064 4.778s3.173.896 5.17-.58 1.63-2.662.771-3.82-1.88-1.858-3.877-.378h0zm-33.933-19.27c1.093 1.478 3.722 1.384 5.877-.21s3.008-4.08 1.915-5.558-3.723-1.38-5.875.211c-.621.455-1.157 1.015-1.587 1.653.363-1.938.368-4.093-.757-5.61-.366-.489-.778-.941-1.23-1.35 2.134.611 4.8.254 7.307-1.072.126 1.073.527 2.096 1.166 2.968 1.992 2.688 9.29 1.811 9.29 1.811l-10.704-14.467-10.626 7.803s.333.643.554.941c.09.123.195.23.294.342-.651-.243-2.323-.192-2.323-.192l-2.837 2.168 8.354 11.282s.355-.722.742-1.818a2.42 2.42 0 0 0 .44 1.098h0z"/></g><path d="M151.992 95.136s2.558-1.072 3.894-2.061c2.978-2.206 4.66-4.984 3.754-6.208s-4.053-.424-7.032 1.781c-1.336.99-3.112 3.125-3.112 3.125l2.496 3.363zm15.747-5.259c-5.29 3.918-8.112 9.072-6.304 11.515s7.563 1.248 12.853-2.67c.776-.573 2.158-1.786 2.158-1.786l-6.368-8.6a42.22 42.22 0 0 0-2.34 1.541h.001zm-2.187 20.88c-.448.334-1.226 1.048-1.226 1.048l3.28 4.43s.909-.536 1.36-.867c2.57-1.904 3.89-4.48 2.949-5.752s-3.792-.765-6.363 1.141h0zm20.363 1.766c-4.224 3.128-6.781 6.842-5.707 8.293 1.944 2.627 6.024 1.07 10.25-2.059l1.385-1.024-3.55-4.733-1.026-1.416c0-.003-.899.605-1.352.939h0zm-41.936-29.904c1.901-1.406 2.613-3.667 1.592-5.046s-3.39-1.357-5.29.051c-.278.205-.753.664-.753.664l3.584 4.867c0-.003.587-.326.867-.536h0zm8.219-9.952c1.573-1.168 3.466-3.8 3.466-3.8l-2.442-3.299-9.32 6.84s-.014 1.28.328 1.739c1.165 1.578 4.733.914 7.968-1.48zm3.722 2.04c1.37 1.85 3.918-.035 3.918-.035l-2.667-3.776c0 .003-2.43 2.219-1.25 3.81l-.001.001zm-2.124 7.252c-.537-.726-2.169-.428-3.646.665s-2.237 2.567-1.7 3.292 2.17.428 3.646-.665 2.237-2.567 1.7-3.292zm23.443 38.391c-.533-.719-2.103-.46-3.507.58s-2.109 2.466-1.576 3.185 2.103.46 3.506-.579 2.11-2.466 1.577-3.186zm7.53-14.045c-.547-.738-2.074-.535-3.41.455s-1.976 2.391-1.428 3.13 2.073.534 3.409-.456 1.976-2.391 1.429-3.129z" fill="#ffe08f"/><use xlink:href="#B" fill="#694d05"/><path d="M62.898 76.354l-42.851 57.883-17.08-12.644L45.82 63.71l17.078 12.644z" fill="#c9ad65"/><use xlink:href="#C" fill="#a5790a"/><path d="M19.107 99.9s9.973 9.384 6.352 14.267c-4.368 6.285-15.478-1.941-15.478-1.941l9.126-12.327v.001zm23.272-6.752c-5.475-4.053-8.352-9.445-6.43-12.042s7.92-1.416 13.392 2.637c1.64 1.216 4.904 4.293 4.904 4.293l-6.144 8.3c.003 0-4.234-2.084-5.722-3.188h0zm-20.12 34.067l2.008 1.485-4.147 5.211-8.744-5.835 1.125-1.52c1.734-2.34 6.102-2.048 9.758.66v-.001z" stroke="#e7b127" stroke-width="2" stroke-miterlimit="10"/><g fill="#faca4e"><path d="M19.61 123.683c-2.543 3.434-9.413 1.506-9.413 1.506l-5.474-3.509 8.504-11.72 1.986 1.259c4.859 3.602 7.23 8.64 4.398 12.464h-.001zM38.238 94.56c2.507 3.96 2.992 8.267.824 11.192-1.357 1.835-3.544 2.824-6.096 3.01.166.11.331.217.494.337.802.592 2.061 1.99 2.061 1.99l-7.032 9.495s-1.704-.797-2.504-1.39c-3.707-2.74-5.035-7.223-2.97-10.013.655-.885 1.575-1.49 2.645-1.82m-.109 12.802c-1.616-1.196-3.537-1.34-4.292-.321s-.056 2.815 1.559 4.012 3.537 1.339 4.292.32.056-2.815-1.559-4.011z"/><path d="M17.565 106.467c2 1.48 2.923 3.618 2.064 4.778s-3.173.896-5.17-.58-1.63-2.662-.771-3.82 1.877-1.858 3.877-.378h0zM51.5 87.197c-1.094 1.478-3.723 1.384-5.878-.21s-3.008-4.08-1.914-5.558 3.722-1.38 5.874.211c.62.455 1.157 1.015 1.587 1.653-.363-1.938-.368-4.093.757-5.61.374-.502.787-.95 1.227-1.35-2.133.611-4.8.254-7.307-1.072-.125 1.073-.527 2.096-1.165 2.968-1.992 2.688-9.29 1.811-9.29 1.811l10.703-14.467 10.627 7.803s-.333.643-.555.941c-.09.123-.192.23-.29.342.65-.243 2.322-.192 2.322-.192l2.838 2.168-8.355 11.282s-.355-.722-.744-1.818a2.46 2.46 0 0 1-.437 1.098h0z"/></g><path d="M47.328 95.136s-2.557-1.072-3.893-2.061c-2.979-2.206-4.662-4.984-3.755-6.208s4.053-.424 7.032 1.781c1.336.99 3.112 3.125 3.112 3.125l-2.496 3.363zm-15.747-5.259c5.291 3.918 8.112 9.072 6.304 11.515s-7.562 1.248-12.853-2.67c-.776-.573-2.157-1.786-2.157-1.786l6.368-8.6c0-.003 1.565.965 2.338 1.541zm2.187 20.88c.448.334 1.227 1.048 1.227 1.048l-3.28 4.43s-.91-.536-1.36-.867c-2.571-1.904-3.891-4.48-2.95-5.752s3.79-.765 6.363 1.141zm-20.365 1.766c4.226 3.128 6.781 6.842 5.709 8.293-1.947 2.627-6.027 1.07-10.253-2.059l-1.384-1.024L11.027 113l1.026-1.416a44.02 44.02 0 0 1 1.35.939h0zM55.34 82.619c-1.9-1.406-2.61-3.667-1.592-5.046s3.39-1.357 5.291.051c.277.205.752.664.752.664l-3.584 4.867c0-.003-.587-.326-.867-.536zm-8.218-9.952c-1.574-1.168-3.467-3.8-3.467-3.8l2.443-3.299 9.32 6.84s.013 1.28-.328 1.739c-1.166 1.578-4.734.914-7.968-1.48zm-3.723 2.04c-1.373 1.85-3.917-.035-3.917-.035l2.666-3.776c0 .003 2.43 2.219 1.251 3.81v.001zm7.472 11.205c.537-.726-.224-2.2-1.7-3.292s-3.108-1.39-3.645-.665.224 2.2 1.7 3.292 3.108 1.39 3.645.665zm-23.712 38.204c.533-.72-.174-2.146-1.578-3.185s-2.974-1.298-3.507-.578.174 2.146 1.578 3.185 2.974 1.298 3.507.578zm-7.775-14.23c.547-.738-.093-2.139-1.428-3.129s-2.863-1.194-3.41-.455.092 2.139 1.428 3.129 2.863 1.194 3.41.455z" fill="#ffe08f"/><use xlink:href="#C" fill="#694d05"/><defs ><path id="B" d="M153.222 65.568l41.269 55.739-14.939 11.058-41.266-55.736 14.936-11.06v-.001zm.557-3.728l-2.144 1.587-14.936 11.058-2.144 1.587 1.587 2.144 41.269 55.736 1.587 2.144 2.144-1.586 14.938-11.06 2.142-1.586-1.587-2.144-41.27-55.736-1.586-2.144h0z"/><path id="C" d="M46.099 65.568l14.936 11.059-41.267 55.738-14.939-11.058L46.1 65.568h-.001zm-.557-3.728l-1.586 2.144-41.27 55.736-1.586 2.144 2.144 1.587L18.18 134.51l2.144 1.586 1.586-2.144 41.267-55.736 1.587-2.144-2.144-1.587-14.936-11.058-2.142-1.587h0z"/></defs></svg>