<svg width="250" height="250" viewBox="0 0 250 250" fill="none" xmlns="http://www.w3.org/2000/svg">
<path d="M189.791 194.659C167.291 194.659 149.021 183.679 149.021 170.179C149.021 152.539 166.571 139.309 189.701 139.309C213.371 139.309 230.561 152.269 230.561 170.179C230.561 181.879 214.991 194.659 189.701 194.659H189.791Z" fill="#FFE08F"/>
<path d="M189.791 140.209C213.191 140.209 229.661 152.809 229.661 170.179C229.661 182.149 213.281 193.759 189.701 193.759C166.211 193.759 149.921 182.149 149.921 170.179C149.921 153.709 166.121 140.209 189.701 140.209H189.791ZM189.701 138.409C166.031 138.409 148.121 152.089 148.121 170.179C148.121 176.749 152.441 183.229 160.001 187.999C169.013 193.211 179.293 195.827 189.701 195.559C212.741 195.559 231.461 184.219 231.461 170.179C231.461 161.179 227.231 153.079 219.581 147.229C210.836 141.218 200.397 138.159 189.791 138.499L189.701 138.409Z" fill="#694D05"/>
<path d="M229.031 164.96C229.841 171.44 231.731 179 214.631 188.54C213.731 189.08 219.851 186.74 219.311 179.45C218.951 175.76 216.701 172.61 215.621 172.79C212.021 173.51 203.561 178.73 189.701 178.64C171.251 178.37 156.311 170.72 156.311 161.09C156.311 151.46 171.251 143.63 189.701 143.63C208.151 143.63 227.321 151.28 229.031 164.96Z" fill="#C78F00"/>
<path d="M189.791 170.629C178.091 170.629 163.601 167.029 158.291 159.919C151.991 151.729 149.021 139.039 149.021 121.219C149.021 105.919 153.791 93.4091 162.881 85.2191C170.081 78.5591 179.891 74.7791 189.881 74.7791C197.351 74.7791 208.421 75.6791 217.061 82.6991C226.061 90.1691 230.561 103.129 230.561 121.219C230.561 139.939 226.511 154.519 219.581 161.359C213.551 167.029 202.121 170.629 189.701 170.629H189.791Z" fill="#FFE08F"/>
<path d="M189.791 75.6799C207.791 75.6799 229.661 81.08 229.661 121.22C229.661 138.77 226.061 153.8 218.861 160.64C213.011 166.4 201.671 169.73 189.701 169.73C178.091 169.73 164.051 166.13 159.011 159.38C152.801 151.28 150.011 138.41 150.011 121.22C150.011 87.4699 172.691 75.6799 189.791 75.6799ZM189.791 73.8799C179.615 73.8991 169.805 77.6818 162.251 84.4999C157.444 89.2811 153.7 95.0234 151.265 101.351C148.83 107.679 147.759 114.45 148.121 121.22C148.121 139.22 151.271 152.09 157.571 160.46C163.331 168.11 178.271 171.53 189.701 171.53C202.301 171.53 214.001 167.93 220.211 161.99C227.411 155.06 231.461 140.21 231.461 121.22C231.461 102.86 226.781 89.7199 217.601 82.0699C208.781 74.7799 197.531 73.9699 189.791 73.9699V73.8799Z" fill="#694D05"/>
<path d="M229.661 121.22C230.561 149.12 218.861 160.64 218.861 160.64C218.861 160.64 224.441 140.21 224.441 128.6C224.441 114.65 218.141 98.72 214.091 101.78C202.031 110.87 187.721 108.53 178.451 107.54C168.191 106.37 157.931 92.24 159.281 90.17C169.181 75.05 172.781 75.77 189.881 75.77C207.701 75.77 228.401 78.2 229.661 121.22V121.22Z" fill="#C78F00"/>
<path d="M189.791 100.429C164.681 100.429 155.411 79.369 155.411 66.049C155.411 48.769 161.351 28.159 189.791 28.159C212.561 28.159 223.991 40.939 223.991 66.049C223.991 78.829 216.791 100.429 189.791 100.429Z" fill="#FFE08F"/>
<path d="M189.79 29.059C208.24 29.059 223.09 37.249 223.09 66.049C223.09 80.089 214.99 99.529 189.79 99.529C164.5 99.529 156.31 77.929 156.31 66.049C156.31 37.879 171.34 29.059 189.79 29.059ZM189.79 27.259C160.63 27.259 154.51 48.319 154.51 66.049C154.51 79.729 164.05 101.329 189.7 101.329C201.49 101.329 211.03 97.099 217.33 89.179C222.363 82.5244 225.053 74.392 224.98 66.049C224.98 40.309 213.1 27.259 189.88 27.259H189.79Z" fill="#694D05"/>
<path d="M223.091 66.05C223.091 73.97 220.571 83.51 213.731 90.44C208.511 95.84 228.311 67.31 210.851 47.33C192.491 26.45 165.131 37.97 165.131 37.97C165.131 37.97 172.331 28.97 189.791 28.97C208.241 28.97 223.091 37.25 223.091 66.05Z" fill="#C78F00"/>
<path d="M60.0128 194.659C37.6028 194.659 19.3328 183.679 19.3328 170.179C19.3328 152.539 36.8828 139.309 60.0128 139.309C83.6828 139.309 100.873 152.269 100.873 170.179C100.873 181.879 85.3028 194.659 60.0128 194.659Z" fill="#FFE08F"/>
<path d="M60.0126 140.209C83.5926 140.209 99.9726 152.809 99.9726 170.179C99.9726 182.149 83.5926 193.759 60.0126 193.759C36.5226 193.759 20.2326 182.149 20.2326 170.179C20.2326 153.709 36.4326 140.209 60.0126 140.209ZM60.0126 138.409C36.3426 138.409 18.4326 152.089 18.4326 170.179C18.4326 176.749 22.8426 183.229 30.4026 187.999C39.4161 193.211 49.695 195.827 60.1026 195.559C83.0526 195.559 101.773 184.219 101.773 170.179C101.773 161.179 97.5426 153.079 89.8926 147.229C81.1329 141.168 70.6596 138.076 60.0126 138.409Z" fill="#694D05"/>
<path d="M99.3428 164.959C100.243 171.439 102.043 178.999 84.9428 188.539C84.0428 189.079 90.1628 186.739 89.6228 179.449C89.2628 175.759 87.0128 172.609 85.9328 172.789C82.3328 173.509 73.8728 178.729 60.0128 178.639C41.5628 178.369 26.6228 170.719 26.6228 161.089C26.6228 151.459 41.5628 143.629 60.0128 143.629C78.4628 143.629 97.6328 151.279 99.3428 164.959Z" fill="#C78F00"/>
<path d="M60.0128 170.629C48.4028 170.629 33.9128 167.029 28.6028 159.919C22.3928 151.729 19.3328 139.039 19.3328 121.219C19.3328 105.919 24.1028 93.4091 33.1928 85.2191C40.3928 78.5591 50.2028 74.7791 60.1928 74.7791C67.6628 74.7791 78.7328 75.6791 87.3728 82.6991C96.3728 90.1691 100.873 103.129 100.873 121.219C100.873 139.939 96.9128 154.519 89.8928 161.359C83.8628 167.029 72.4328 170.629 60.0128 170.629Z" fill="#FFE08F"/>
<path d="M60.193 75.679C78.013 75.679 99.973 81.079 99.973 121.219C99.973 138.769 96.373 153.799 89.173 160.639C83.323 166.399 71.983 169.729 60.013 169.729C48.403 169.729 34.363 166.129 29.413 159.379C23.113 151.279 20.233 138.409 20.233 121.219C20.233 87.469 43.093 75.679 60.193 75.679ZM60.193 73.879C49.9858 73.8759 40.1404 77.6602 32.563 84.499C27.7552 89.2798 24.0113 95.0221 21.5763 101.35C19.1413 107.678 18.0702 114.449 18.433 121.219C18.433 139.219 21.583 152.089 27.883 160.459C33.643 168.109 48.583 171.529 60.013 171.529C72.613 171.529 84.313 167.929 90.523 161.989C97.723 155.059 101.773 140.209 101.773 121.219C101.773 102.859 97.093 89.719 87.913 82.069C79.093 74.779 67.843 73.969 60.103 73.969L60.193 73.879Z" fill="#694D05"/>
<path d="M99.9725 121.219C100.873 149.119 89.1725 160.639 89.1725 160.639C89.1725 160.639 94.7525 140.209 94.7525 128.599C94.7525 114.649 88.4525 98.719 84.4025 101.779C72.3425 110.869 58.0325 108.529 48.7625 107.539C38.5025 106.369 28.2425 92.239 29.5925 90.169C39.4925 75.049 43.0925 75.769 60.1925 75.769C78.0125 75.769 98.7125 78.199 99.9725 121.219V121.219Z" fill="#C78F00"/>
<path d="M60.0124 100.429C34.9924 100.429 25.7224 79.369 25.7224 66.049C25.7224 48.769 31.6624 28.159 60.1024 28.159C82.8724 28.159 94.3024 40.939 94.3024 66.049C94.3024 78.829 87.1024 100.429 60.1024 100.429H60.0124Z" fill="#FFE08F"/>
<path d="M60.1923 29.059C78.5523 29.059 93.4923 37.249 93.4923 66.049C93.4923 80.089 85.2123 99.529 60.0123 99.529C34.8123 99.529 26.6223 77.929 26.6223 66.049C26.6223 37.879 41.6523 29.059 60.1023 29.059H60.1923ZM60.1023 27.259C30.9423 27.259 24.8223 48.319 24.8223 66.049C24.8223 79.729 34.3623 101.329 60.0123 101.329C71.8023 101.329 81.3423 97.099 87.6423 89.179C92.675 82.5245 95.3648 74.3919 95.2923 66.049C95.2923 40.399 83.4123 27.259 60.1923 27.259H60.1023Z" fill="#694D05"/>
<path d="M93.49 66.05C93.49 73.97 90.79 83.51 84.13 90.44C78.82 95.84 98.62 67.31 81.16 47.33C62.89 26.45 35.53 37.97 35.53 37.97C35.53 37.97 42.64 28.97 60.1 28.97C78.55 28.97 93.4 37.25 93.4 66.05H93.49Z" fill="#C78F00"/>
<path d="M124.902 221.84C100.962 221.84 81.6116 210.14 81.6116 195.74C81.6116 177.02 100.152 162.89 124.812 162.89C150.102 162.89 168.462 176.66 168.462 195.74C168.462 208.34 151.812 221.84 124.902 221.84Z" fill="#FFE08F"/>
<path d="M124.901 163.79C150.011 163.79 167.561 177.29 167.561 195.74C167.561 208.52 150.011 220.94 124.901 220.94C99.7014 220.94 82.5114 208.52 82.5114 195.74C82.5114 178.19 99.7914 163.79 124.811 163.79H124.901ZM124.811 161.99C99.6114 161.99 80.7114 176.48 80.7114 195.74C80.7114 202.67 85.2114 209.6 93.3114 214.64C101.591 219.86 112.751 222.74 124.811 222.74C149.381 222.74 169.361 210.59 169.361 195.74C169.361 186.2 164.861 177.56 156.761 171.44C147.429 164.956 136.259 161.643 124.901 161.99H124.811Z" fill="#694D05"/>
<path d="M166.84 190.25C167.74 197.09 169.63 205.19 151.54 215.45C150.55 215.99 157.03 213.29 156.4 205.64C156.13 201.68 153.7 198.44 152.53 198.62C148.66 199.34 139.66 204.92 124.9 204.74C105.1 204.56 89.26 196.37 89.26 186.02C89.26 175.76 105.19 167.39 124.9 167.39C144.61 167.39 165.04 175.49 166.84 190.25Z" fill="#C78F00"/>
<path d="M124.9 196.19C112.48 196.19 97 192.32 91.42 184.85C84.76 176.03 81.52 162.53 81.52 143.54C81.52 127.16 86.65 113.84 96.28 105.11C104.176 97.9784 114.44 94.0334 125.08 94.0399C133.09 94.0399 144.88 94.9399 153.97 102.5C163.6 110.42 168.37 124.19 168.37 143.54C168.37 163.52 164.14 179.09 156.67 186.29C150.37 192.41 138.13 196.19 124.9 196.19Z" fill="#FFE08F"/>
<path d="M124.991 94.9399C144.161 94.9399 167.561 100.79 167.561 143.54C167.561 162.26 163.691 178.28 156.041 185.57C149.741 191.69 137.591 195.29 124.901 195.29C112.481 195.29 97.5414 191.42 92.1414 184.31C85.5714 175.49 82.5114 161.81 82.5114 143.54C82.5114 107.54 106.811 94.9399 124.991 94.9399ZM124.991 93.1399C114.191 93.1399 103.481 97.2799 95.6514 104.39C85.8414 113.39 80.7114 126.89 80.7114 143.54C80.7114 162.71 83.9514 176.39 90.7014 185.39C94.2114 189.89 100.601 192.68 105.371 194.21C111.401 196.01 118.331 197.09 124.901 197.09C138.401 197.09 150.821 193.22 157.301 186.92C164.951 179.54 169.361 163.7 169.361 143.54C169.361 123.92 164.321 109.88 154.601 101.87C146.045 95.6082 135.576 92.5214 124.991 93.1399Z" fill="#694D05"/>
<path d="M167.563 143.54C168.463 173.24 156.043 185.57 156.043 185.57C156.043 185.57 161.893 163.79 161.893 151.37C161.893 136.43 155.323 119.51 150.913 122.84C138.043 132.47 122.743 130.04 112.843 128.87C101.953 127.7 90.9729 112.67 92.4129 110.33C102.943 94.31 106.813 95.03 124.993 95.03C144.163 95.03 166.213 97.64 167.563 143.63V143.54Z" fill="#C78F00"/>
<path d="M124.9 121.22C98.2599 121.22 88.3599 98.8099 88.3599 84.6799C88.3599 58.3099 100.96 44.2699 124.99 44.2699C149.2 44.2699 161.44 57.8599 161.44 84.7699C161.44 98.2699 153.79 121.22 124.9 121.22Z" fill="#FFE08F"/>
<path d="M124.989 45.17C144.699 45.17 160.539 53.99 160.539 84.77C160.539 99.62 151.809 120.32 124.899 120.32C97.9895 120.32 89.2595 97.37 89.2595 84.68C89.2595 54.62 105.279 45.17 124.989 45.17ZM124.989 43.37C93.9395 43.37 87.4595 65.87 87.4595 84.77C87.4595 99.17 97.6295 122.12 124.899 122.12C137.409 122.12 147.579 117.62 154.239 109.25C159.369 102.68 162.339 93.77 162.339 84.68C162.339 57.32 149.739 43.37 124.989 43.37Z" fill="#694D05"/>
<path d="M160.543 84.6799C160.543 93.1399 157.843 103.31 150.553 110.69C144.973 116.36 166.033 86.0299 147.403 64.7899C127.873 42.3799 98.7129 54.7099 98.7129 54.7099C98.7129 54.7099 106.363 45.1699 124.993 45.1699C144.703 45.1699 160.543 53.9899 160.543 84.7699V84.6799Z" fill="#C78F00"/>
</svg>
